<svg xmlns="http://www.w3.org/2000/svg" xmlns:xlink="http://www.w3.org/1999/xlink" width="518" height="156" viewBox="0 0 518 156">
  <defs>
    <filter id="長方形_5975" x="0" y="0" width="518" height="156" filterUnits="userSpaceOnUse">
      <feOffset input="SourceAlpha"/>
      <feGaussianBlur stdDeviation="5.5" result="blur"/>
      <feFlood flood-opacity="0.102"/>
      <feComposite operator="in" in2="blur"/>
      <feComposite in="SourceGraphic"/>
    </filter>
  </defs>
  <g id="グループ_15817" data-name="グループ 15817" transform="translate(-642.5 -1039.271)">
    <g transform="matrix(1, 0, 0, 1, 642.5, 1039.27)" filter="url(#長方形_5975)">
      <g id="長方形_5975-2" data-name="長方形 5975" transform="translate(16.5 16.5)" fill="#fff" stroke="#3c4a6e" stroke-width="2">
        <rect width="485" height="123" stroke="none"/>
        <rect x="1" y="1" width="483" height="121" fill="none"/>
      </g>
    </g>
    <path id="パス_32271" data-name="パス 32271" d="M13.824-12.864a53.444,53.444,0,0,0,5.064-4.656c.432-.456.528-.6.528-.864a1.032,1.032,0,0,0-.96-.96,1.105,1.105,0,0,0-.816.456A36.28,36.28,0,0,1,3.552-9.264c-.552.216-.624.24-.72.288a.805.805,0,0,0-.384.7.944.944,0,0,0,.84,1.008A3.747,3.747,0,0,0,4.56-7.656,38.415,38.415,0,0,0,11.9-11.5V.288a.847.847,0,0,0,.936.84.877.877,0,0,0,.984-.84Zm15.72-4.752a.871.871,0,0,0-.912.96.835.835,0,0,0,.648.864,43.19,43.19,0,0,1,5.5,1.824c.552.24.576.24.792.24a.963.963,0,0,0,.96-.96c0-.552-.216-.768-1.176-1.2A28.7,28.7,0,0,0,29.544-17.616Zm16.3,2.9c-.528,0-.792.264-.912.888A14.908,14.908,0,0,1,39.5-4.7C37.392-3.192,34.7-2.28,30.7-1.776c-1.128.12-1.128.12-1.3.192a.925.925,0,0,0-.552.936.877.877,0,0,0,.888.96c.12,0,.744-.1,1.632-.24a31.582,31.582,0,0,0,5.88-1.416A13.707,13.707,0,0,0,45.36-9a19.528,19.528,0,0,0,1.44-4.776A.9.9,0,0,0,45.84-14.712Zm8.112-2.448a.788.788,0,0,0-.744.84.773.773,0,0,0,.744.84H68.28c.576,0,.768.24.768.888a13.771,13.771,0,0,1-3.1,9.072A14.851,14.851,0,0,1,58.44-1.344c-.792.192-.792.192-.936.288a1,1,0,0,0-.432.816.909.909,0,0,0,.912.96,21.639,21.639,0,0,0,5.928-2.232A12.812,12.812,0,0,0,70.3-9.672a28.416,28.416,0,0,0,.792-5.712A1.629,1.629,0,0,0,69.24-17.16Zm29.808-.648a.856.856,0,0,0-.96-.84.856.856,0,0,0-.96.84v3.648C81.888-7.3,80.9-4.32,77.712-1.776c-.672.48-.744.576-.744.984A1.064,1.064,0,0,0,77.928.24c.912,0,2.976-2.064,4.152-4.1,1.3-2.3,1.68-4.656,1.68-10.368Zm5.88-.672a.856.856,0,0,0-.96-.84.861.861,0,0,0-.936.84V-1.536c0,1.1.552,1.8,1.416,1.8A2.635,2.635,0,0,0,90.432-.12,16.54,16.54,0,0,0,96.816-5.9a13.537,13.537,0,0,0,1.824-4.368.912.912,0,0,0-.984-.888.845.845,0,0,0-.84.648,13.879,13.879,0,0,1-5.184,7.368,5.962,5.962,0,0,1-1.776.96c-.144,0-.216-.144-.216-.5Zm22.1,3.144v13.08h-8.376a.779.779,0,0,0-.72.864.779.779,0,0,0,.72.864h18.864a.779.779,0,0,0,.72-.864.779.779,0,0,0-.72-.864h-8.568v-13.08h7.152a.781.781,0,0,0,.744-.864.773.773,0,0,0-.744-.84H104.808a.773.773,0,0,0-.744.84.781.781,0,0,0,.744.864Zm18.6-2.28a.871.871,0,0,0-.912.96.835.835,0,0,0,.648.864,43.191,43.191,0,0,1,5.5,1.824c.552.24.576.24.792.24a.963.963,0,0,0,.96-.96c0-.552-.216-.768-1.176-1.2A28.7,28.7,0,0,0,130.344-17.616Zm16.3,2.9c-.528,0-.792.264-.912.888A14.908,14.908,0,0,1,140.3-4.7c-2.112,1.512-4.8,2.424-8.808,2.928-1.128.12-1.128.12-1.3.192a.925.925,0,0,0-.552.936.877.877,0,0,0,.888.96c.12,0,.744-.1,1.632-.24a31.582,31.582,0,0,0,5.88-1.416A13.708,13.708,0,0,0,146.16-9a19.529,19.529,0,0,0,1.44-4.776A.9.9,0,0,0,146.64-14.712Zm20.04.36H159.1v-4.224a.875.875,0,0,0-.936-.84.891.891,0,0,0-.984.84v4.224H153a.781.781,0,0,0-.744.864.766.766,0,0,0,.744.816h4.176v5.88c0,.5.384.84.984.84a.847.847,0,0,0,.936-.84v-5.88H166.7v.576c0,6.648-1.248,9.36-5.208,11.184a1.789,1.789,0,0,0-.5.24.9.9,0,0,0-.48.792.923.923,0,0,0,.864.984,2.321,2.321,0,0,0,.84-.216,9.725,9.725,0,0,0,4.368-3.408c1.44-2.064,2.04-4.9,2.04-9.576v-.576h4.656a.748.748,0,0,0,.72-.816.779.779,0,0,0-.72-.864H168.6l-.048-4.44a.907.907,0,0,0-.984-.864,1.145,1.145,0,0,0-.7.264c-.12.12-.12.12-.24.48l-.024.048.024.072ZM172.7-20.9a.729.729,0,0,0-.72.624c0,.144.024.216.192.48a15.568,15.568,0,0,1,1.32,2.592c.216.576.36.7.72.7a.687.687,0,0,0,.744-.648,8,8,0,0,0-1.152-2.592C173.232-20.736,173.088-20.9,172.7-20.9Zm-2.664,1.056a.755.755,0,0,0-.744.624.7.7,0,0,0,.144.384,16.532,16.532,0,0,1,1.344,2.688c.24.552.384.7.744.7a.672.672,0,0,0,.744-.648,8.908,8.908,0,0,0-1.1-2.544C170.616-19.608,170.4-19.848,170.04-19.848Zm11.424,2.256a1.625,1.625,0,0,0-1.824,1.824v5.736a.852.852,0,0,0,.96.816.852.852,0,0,0,.96-.816v-5.256c0-.432.168-.624.6-.624h12.432c.528,0,.648.12.648.744,0,5.184-1.152,8.976-3.312,10.944A15.491,15.491,0,0,1,186.264-1.3c-.648.168-.672.168-.816.264a.945.945,0,0,0-.408.744.938.938,0,0,0,.912.96,12.648,12.648,0,0,0,3.5-1.176c3.312-1.512,5.04-3.12,6.216-5.712a25.208,25.208,0,0,0,1.584-9.432c0-1.32-.648-1.944-2.04-1.944Zm30.912,1.1a7.474,7.474,0,0,0,.816-2.208.96.96,0,0,0-1.056-.84c-.432,0-.72.24-.912.816a17.443,17.443,0,0,1-5.592,7.584,6.888,6.888,0,0,0-.7.5.944.944,0,0,0-.288.624.98.98,0,0,0,.936.984,1.316,1.316,0,0,0,.84-.36,21.172,21.172,0,0,0,4.968-5.424h7.752c.5,0,.7.12.7.408a10.231,10.231,0,0,1-.312,1.536,16.827,16.827,0,0,1-3.456,6.888,18,18,0,0,1-7.752,4.968c-.84.24-.84.24-.984.336a.844.844,0,0,0-.408.72.944.944,0,0,0,.912.984c1.056,0,4.728-1.656,6.744-3.024a16.768,16.768,0,0,0,6.552-8.928,17.363,17.363,0,0,0,.816-3.72c0-1.224-.792-1.848-2.352-1.848Zm25.7,5.352h-9a.781.781,0,0,0-.744.864.752.752,0,0,0,.744.816h8.976c-.12,4.176-1.608,6.744-4.968,8.52-.48.264-.48.264-.576.312a1.013,1.013,0,0,0-.336.7,1.026,1.026,0,0,0,.936,1.032c.864,0,3.24-1.68,4.464-3.144,1.608-1.92,2.256-3.96,2.352-7.416h8.64a.752.752,0,0,0,.744-.816.781.781,0,0,0-.744-.864h-8.616v-5.3a38.611,38.611,0,0,0,4.536-.864c.648-.168.888-.432.888-.888a.925.925,0,0,0-.864-.936,1.331,1.331,0,0,0-.408.072A60.567,60.567,0,0,1,232.128-17.3a5.58,5.58,0,0,0-.7.048.769.769,0,0,0-.528.792c0,.528.312.792.912.792.624,0,4.9-.336,6.264-.5Zm18.264-6.48a.871.871,0,0,0-.912.96.835.835,0,0,0,.648.864,43.189,43.189,0,0,1,5.5,1.824c.552.24.576.24.792.24a.963.963,0,0,0,.96-.96c0-.552-.216-.768-1.176-1.2A28.7,28.7,0,0,0,256.344-17.616Zm16.3,2.9c-.528,0-.792.264-.912.888A14.908,14.908,0,0,1,266.3-4.7c-2.112,1.512-4.8,2.424-8.808,2.928-1.128.12-1.128.12-1.3.192a.925.925,0,0,0-.552.936.877.877,0,0,0,.888.96c.12,0,.744-.1,1.632-.24a31.582,31.582,0,0,0,5.88-1.416A13.707,13.707,0,0,0,272.16-9a19.529,19.529,0,0,0,1.44-4.776A.9.9,0,0,0,272.64-14.712ZM282.7-17.3a.785.785,0,0,0-.768.864.806.806,0,0,0,.768.888h10.872a.793.793,0,0,0,.768-.888.8.8,0,0,0-.768-.864Zm6.96,15.5a19.267,19.267,0,0,1-6.144-.768,2.079,2.079,0,0,1-1.488-2.016,2.952,2.952,0,0,1,.6-1.8c.264-.384.312-.5.312-.72a.914.914,0,0,0-.888-.864c-.936,0-2.064,1.992-2.064,3.6A3.628,3.628,0,0,0,282.36-.96c1.392.648,4.44,1.08,7.776,1.08A53.781,53.781,0,0,0,297-.288a.938.938,0,0,0,.864-1.008.87.87,0,0,0-.888-.936Zm5.688-17.784a.71.71,0,0,0-.72.624c0,.144.048.24.216.5a18.487,18.487,0,0,1,1.44,2.688c.24.576.36.7.72.7a.683.683,0,0,0,.744-.624,8.619,8.619,0,0,0-1.248-2.688C295.9-19.392,295.7-19.584,295.344-19.584Zm2.88-1.032a.736.736,0,0,0-.744.624c0,.144.048.24.216.5A20.926,20.926,0,0,1,299.16-16.8c.24.576.36.7.7.7a.668.668,0,0,0,.744-.6,7.085,7.085,0,0,0-1.1-2.472C298.752-20.448,298.584-20.616,298.224-20.616Zm15.744,6.384c-1.128-.768-3.1-2.04-3.84-2.448a1.3,1.3,0,0,0-.672-.216.94.94,0,0,0-.888.912c0,.312.168.528.576.792,1.248.792,3.744,2.52,5.424,3.744H304.032a.781.781,0,0,0-.744.864.79.79,0,0,0,.744.888h9.48v9.12c0,.528-.264.72-1.056.72a22.492,22.492,0,0,1-2.784-.168,3.43,3.43,0,0,0-.576-.048.865.865,0,0,0-.96.936.875.875,0,0,0,.744.936,31.017,31.017,0,0,0,3.912.24c2.064,0,2.616-.456,2.616-2.136V-9.7H322.2c.384,0,.552.072.552.216a17.624,17.624,0,0,1-3.072,3.912c-.48.456-.576.624-.576.984a1,1,0,0,0,.984.936,1.276,1.276,0,0,0,.936-.48,22.914,22.914,0,0,0,2.784-3.288,6.14,6.14,0,0,0,1.368-2.88c0-.744-.576-1.152-1.632-1.152h-6.936a.737.737,0,0,0,.1-.36c0-.336-.12-.5-.72-.96l-.384-.288a41.86,41.86,0,0,0,5.664-4.032c.72-.6,1.008-1.056,1.008-1.56,0-.6-.6-.984-1.536-.984H306.36a.781.781,0,0,0-.744.864.8.8,0,0,0,.744.888h12.36c.312,0,.5.072.5.168,0,.336-2.424,2.064-5.088,3.6Zm15.984,4.656a8.254,8.254,0,0,0-.984.048.736.736,0,0,0-.624.768.819.819,0,0,0,.864.864c.072,0,.072,0,1.872-.144l1.08-.1.792-.072V1.536c0,.456.336.744.864.744a.747.747,0,0,0,.84-.744V-8.4c1.176-.12,1.776-.192,2.616-.336l.048.12c.1.264.168.48.264.768.24.648.336.768.744.768.552,0,.912-.288.912-.7a10.5,10.5,0,0,0-1.128-2.88c-.912-1.872-.912-1.872-1.368-1.872a.759.759,0,0,0-.816.672.936.936,0,0,0,.168.528c.264.552.384.792.528,1.1l.072.144c-.624.1-3.6.336-4.416.384A73.3,73.3,0,0,0,337.3-15.48c.432-.552.5-.672.5-.936a.937.937,0,0,0-.864-.912c-.312,0-.528.168-.84.576-1.1,1.512-1.728,2.3-2.976,3.84l-.072-.1c-.528-.72-.864-1.128-1.272-1.632l-.12-.144a45.386,45.386,0,0,0,3.1-3.912c.36-.456.432-.624.432-.888a.9.9,0,0,0-.912-.816c-.336,0-.552.144-.816.576a35.731,35.731,0,0,1-2.784,3.936l-.048-.072c-.624-.648-.768-.744-1.128-.744a.911.911,0,0,0-.84.888.986.986,0,0,0,.36.72c1.056,1.128,2.208,2.424,3.024,3.456-.264.336-1.248,1.416-1.872,2.064ZM342.36-16.44a13.886,13.886,0,0,0,.672-2.976.832.832,0,0,0-.912-.864c-.5,0-.744.24-.888.912a23.907,23.907,0,0,1-2.664,7.1c-.288.5-.312.576-.312.84a.9.9,0,0,0,.888.888.93.93,0,0,0,.768-.5,19.878,19.878,0,0,0,1.848-3.72h5.976c.6,0,.7.192.7,1.224a113.46,113.46,0,0,1-.7,12.528c-.144.888-.48,1.176-1.3,1.176a22.915,22.915,0,0,1-2.352-.144,2.515,2.515,0,0,0-.5-.048.865.865,0,0,0-.936.96.781.781,0,0,0,.624.816,19.316,19.316,0,0,0,3.552.24c1.32,0,1.9-.24,2.3-1.008.36-.672.5-1.608.72-4.728.12-1.632.336-7.848.336-9.336,0-2.136-.024-2.352-.36-2.784a1.848,1.848,0,0,0-1.56-.576ZM330.6-6.528c-.5,0-.7.216-.792.84a33.085,33.085,0,0,1-1.032,4.56,2.041,2.041,0,0,0-.168.672.889.889,0,0,0,.888.792c.408,0,.648-.216.792-.672a25.659,25.659,0,0,0,1.128-5.376A.735.735,0,0,0,330.6-6.528Zm6.144-.264a.742.742,0,0,0-.816.648,1.184,1.184,0,0,0,.072.36,33.782,33.782,0,0,1,1.224,4.272c.12.5.12.5.192.624a.8.8,0,0,0,.672.36.762.762,0,0,0,.816-.792,25.327,25.327,0,0,0-1.32-4.608C337.32-6.6,337.152-6.792,336.744-6.792Zm5.472-4.272a.872.872,0,0,0-.888.792.97.97,0,0,0,.216.6c1.2,1.776,2.112,3.216,2.592,4.08.36.7.528.84.96.84a.963.963,0,0,0,.936-.888,13.185,13.185,0,0,0-2.256-3.888C342.792-10.9,342.624-11.064,342.216-11.064Z" transform="translate(768.957 1109.521)" fill="#3c4a6e"/>
    <path id="パス_32272" data-name="パス 32272" d="M5.632-.032a.657.657,0,0,0,.736.624A.676.676,0,0,0,7.1-.032V-12c0-.512-.24-.816-.656-.816a1.79,1.79,0,0,0-.784.24,12.574,12.574,0,0,1-2.752,1.04,1.858,1.858,0,0,0-.48.144.573.573,0,0,0-.3.512.585.585,0,0,0,.592.64,12.288,12.288,0,0,0,2.912-.9ZM19.056-12.8c-2.976,0-4.816,2.56-4.816,6.72,0,4.144,1.84,6.72,4.8,6.72s4.8-2.56,4.8-6.72C23.84-10.224,22-12.8,19.056-12.8Zm-.032,1.264c2.016,0,3.248,2.08,3.248,5.472,0,3.328-1.248,5.424-3.232,5.424-2,0-3.232-2.08-3.232-5.44S17.04-11.536,19.024-11.536ZM38-4V-.56c0,.48-.16.624-.7.624C36.7.064,35.632.032,35.248,0c-.192-.016-.208-.016-.256-.016a.6.6,0,0,0-.656.624.591.591,0,0,0,.56.624c.24.032,1.744.08,2.736.08,1.216,0,1.632-.368,1.632-1.424v-11.36a1.086,1.086,0,0,0-1.232-1.248H30.224a1.086,1.086,0,0,0-1.232,1.248v5.28A9.4,9.4,0,0,1,27.136-.064c-.5.608-.5.608-.5.848a.7.7,0,0,0,.672.688c.336,0,.608-.224,1.168-.976A9.24,9.24,0,0,0,30.144-4Zm0-4.992H30.256v-2.176a.382.382,0,0,1,.432-.432h6.88a.382.382,0,0,1,.432.432Zm0,1.12V-5.12H30.24v-.128c.016-.32.016-.48.016-.832V-7.872ZM51.632-8.944h4.816a.511.511,0,0,0,.5-.544.525.525,0,0,0-.5-.56H51.632v-2.8a.588.588,0,0,0-.64-.56.569.569,0,0,0-.608.56v8.192a9.606,9.606,0,0,0-1.712-.16c-2.64,0-4.256,1.056-4.256,2.784,0,1.584,1.552,2.72,3.712,2.72a3.164,3.164,0,0,0,3.5-3.5v-.32a21.755,21.755,0,0,1,4.16,2.384c.464.352.48.352.672.352a.755.755,0,0,0,.688-.7.769.769,0,0,0-.288-.528,4.932,4.932,0,0,0-.448-.336A21.157,21.157,0,0,0,51.632-4.32ZM50.384-3.072c0,1.84-.7,2.656-2.32,2.656-1.376,0-2.384-.72-2.384-1.712,0-.976,1.168-1.616,2.944-1.616a8.82,8.82,0,0,1,1.76.192ZM65.984-7.3a.565.565,0,0,0-.5.32c-.432.816-1.1,1.6-1.36,1.6-.272,0-.464-1.248-.464-3.072a17.834,17.834,0,0,1,.416-3.584,1.867,1.867,0,0,0,.08-.384c0-.3-.288-.528-.672-.528-.32,0-.528.176-.608.56a28.827,28.827,0,0,0-.448,4.416c0,2.656.512,4.08,1.44,4.08a2.21,2.21,0,0,0,1.44-.88,4.776,4.776,0,0,0,1.232-1.984A.575.575,0,0,0,65.984-7.3Zm5.136-5.872c-.416,0-.688.208-.688.528a.961.961,0,0,0,.032.256A33.411,33.411,0,0,1,70.928-7.3,7.837,7.837,0,0,1,69.472-2.32,6.416,6.416,0,0,1,66.608-.464c-.544.176-.7.352-.7.688a.619.619,0,0,0,.64.624A7.818,7.818,0,0,0,69.92-.9c1.52-1.312,2.32-3.5,2.32-6.352a38.344,38.344,0,0,0-.5-5.392A.615.615,0,0,0,71.12-13.168Zm8.864,1.632a.523.523,0,0,0-.512.576.538.538,0,0,0,.512.592h7.248a.529.529,0,0,0,.512-.592.533.533,0,0,0-.512-.576ZM84.624-1.2a12.845,12.845,0,0,1-4.1-.512,1.386,1.386,0,0,1-.992-1.344,1.968,1.968,0,0,1,.4-1.2c.176-.256.208-.336.208-.48a.61.61,0,0,0-.592-.576c-.624,0-1.376,1.328-1.376,2.4A2.419,2.419,0,0,0,79.76-.64a14.72,14.72,0,0,0,5.184.72A35.854,35.854,0,0,0,89.52-.192.625.625,0,0,0,90.1-.864a.58.58,0,0,0-.592-.624Zm3.792-11.856a.474.474,0,0,0-.48.416c0,.1.032.16.144.336a12.326,12.326,0,0,1,.96,1.792c.16.384.24.464.48.464a.456.456,0,0,0,.5-.416,5.746,5.746,0,0,0-.832-1.792C88.784-12.928,88.656-13.056,88.416-13.056Zm1.92-.688a.49.49,0,0,0-.5.416c0,.1.032.16.144.336A13.951,13.951,0,0,1,90.96-11.2c.16.384.24.464.464.464a.445.445,0,0,0,.5-.4,4.724,4.724,0,0,0-.736-1.648C90.688-13.632,90.576-13.744,90.336-13.744Zm10.5,4.256c-.752-.512-2.064-1.36-2.56-1.632a.865.865,0,0,0-.448-.144.627.627,0,0,0-.592.608c0,.208.112.352.384.528.832.528,2.5,1.68,3.616,2.5H94.208a.521.521,0,0,0-.5.576.527.527,0,0,0,.5.592h6.32v6.08c0,.352-.176.48-.7.48a14.994,14.994,0,0,1-1.856-.112,2.287,2.287,0,0,0-.384-.032.577.577,0,0,0-.64.624.583.583,0,0,0,.5.624,20.678,20.678,0,0,0,2.608.16c1.376,0,1.744-.3,1.744-1.424v-6.4h4.528c.256,0,.368.048.368.144a11.749,11.749,0,0,1-2.048,2.608c-.32.3-.384.416-.384.656a.665.665,0,0,0,.656.624.851.851,0,0,0,.624-.32,15.277,15.277,0,0,0,1.856-2.192,4.094,4.094,0,0,0,.912-1.92c0-.5-.384-.768-1.088-.768h-4.624a.491.491,0,0,0,.064-.24c0-.224-.08-.336-.48-.64L101.92-8.7a27.906,27.906,0,0,0,3.776-2.688c.48-.4.672-.7.672-1.04,0-.4-.4-.656-1.024-.656H95.76a.521.521,0,0,0-.5.576.536.536,0,0,0,.5.592H104c.208,0,.336.048.336.112a13.69,13.69,0,0,1-3.392,2.4Zm10.656,3.1a5.5,5.5,0,0,0-.656.032.49.49,0,0,0-.416.512.546.546,0,0,0,.576.576c.048,0,.048,0,1.248-.1l.72-.064.528-.048v6.5c0,.3.224.5.576.5a.5.5,0,0,0,.56-.5V-5.6c.784-.08,1.184-.128,1.744-.224l.032.08c.064.176.112.32.176.512.16.432.224.512.5.512.368,0,.608-.192.608-.464a7,7,0,0,0-.752-1.92c-.608-1.248-.608-1.248-.912-1.248a.506.506,0,0,0-.544.448.624.624,0,0,0,.112.352c.176.368.256.528.352.736l.048.1c-.416.064-2.4.224-2.944.256a48.869,48.869,0,0,0,3.344-3.856c.288-.368.336-.448.336-.624a.625.625,0,0,0-.576-.608c-.208,0-.352.112-.56.384-.736,1.008-1.152,1.536-1.984,2.56l-.048-.064c-.352-.48-.576-.752-.848-1.088l-.08-.1a30.258,30.258,0,0,0,2.064-2.608c.24-.3.288-.416.288-.592a.6.6,0,0,0-.608-.544c-.224,0-.368.1-.544.384a23.821,23.821,0,0,1-1.856,2.624l-.032-.048c-.416-.432-.512-.5-.752-.5a.608.608,0,0,0-.56.592.657.657,0,0,0,.24.48c.7.752,1.472,1.616,2.016,2.3-.176.224-.832.944-1.248,1.376Zm8.272-4.576a9.257,9.257,0,0,0,.448-1.984.555.555,0,0,0-.608-.576c-.336,0-.5.16-.592.608a15.938,15.938,0,0,1-1.776,4.736c-.192.336-.208.384-.208.56a.6.6,0,0,0,.592.592.62.62,0,0,0,.512-.336,13.253,13.253,0,0,0,1.232-2.48h3.984c.4,0,.464.128.464.816a75.643,75.643,0,0,1-.464,8.352c-.1.592-.32.784-.864.784a15.277,15.277,0,0,1-1.568-.1,1.677,1.677,0,0,0-.336-.032.577.577,0,0,0-.624.64.521.521,0,0,0,.416.544,12.878,12.878,0,0,0,2.368.16c.88,0,1.264-.16,1.536-.672.24-.448.336-1.072.48-3.152.08-1.088.224-5.232.224-6.224,0-1.424-.016-1.568-.24-1.856a1.232,1.232,0,0,0-1.04-.384Zm-7.84,6.608c-.336,0-.464.144-.528.56a22.058,22.058,0,0,1-.688,3.04,1.361,1.361,0,0,0-.112.448.593.593,0,0,0,.592.528c.272,0,.432-.144.528-.448a17.107,17.107,0,0,0,.752-3.584A.49.49,0,0,0,111.92-4.352Zm4.1-.176a.5.5,0,0,0-.544.432.79.79,0,0,0,.048.24,22.522,22.522,0,0,1,.816,2.848c.08.336.08.336.128.416a.532.532,0,0,0,.448.24.508.508,0,0,0,.544-.528,16.884,16.884,0,0,0-.88-3.072C116.4-4.4,116.288-4.528,116.016-4.528Zm3.648-2.848a.581.581,0,0,0-.592.528.647.647,0,0,0,.144.4c.8,1.184,1.408,2.144,1.728,2.72.24.464.352.56.64.56a.642.642,0,0,0,.624-.592,8.79,8.79,0,0,0-1.5-2.592C120.048-7.264,119.936-7.376,119.664-7.376Zm9.328-.4h3.84a1.018,1.018,0,0,0,1.152-1.152v-2.9c0-.768-.384-1.136-1.168-1.136h-3.84a1.048,1.048,0,0,0-1.2,1.2V.976a.564.564,0,0,0,.592.56.583.583,0,0,0,.624-.56Zm3.84-3.024h-3.84v-.864c0-.256.128-.4.368-.4h3.1c.24,0,.368.128.368.4Zm-3.84.832h3.84v.912a.339.339,0,0,1-.384.384h-3.456Zm11.456,2.192V-.384c0,.48-.112.544-.864.544a6.709,6.709,0,0,1-.8-.048A2,2,0,0,0,138.56.1a.543.543,0,0,0-.608.56c0,.592.288.7,1.9.7.912,0,1.184-.048,1.44-.256a1.255,1.255,0,0,0,.368-1.088V-11.76a1.066,1.066,0,0,0-1.216-1.2h-3.936a1,1,0,0,0-1.152,1.136v2.9a1.018,1.018,0,0,0,1.152,1.152ZM136.5-10.8v-.864c0-.256.128-.4.368-.4h3.2a.351.351,0,0,1,.384.4v.864Zm3.952.832v1.3h-3.584a.335.335,0,0,1-.368-.384v-.912ZM137.1-5.728h1.584a.441.441,0,0,0,.416-.48c0-.3-.176-.528-.416-.528h-8c-.256,0-.416.208-.416.528a.423.423,0,0,0,.416.48h1.68v2.1H130.3c-.256,0-.432.224-.432.528a.454.454,0,0,0,.432.512h2.032A3.383,3.383,0,0,1,130.608,0c-.352.24-.432.352-.432.592a.613.613,0,0,0,.576.608A3.06,3.06,0,0,0,132.368.1a4.256,4.256,0,0,0,1.1-2.688h2.512V.656c0,.272.208.448.56.448.336,0,.56-.176.56-.448V-2.592h1.984a.463.463,0,0,0,.432-.512.479.479,0,0,0-.432-.528H137.1Zm-1.12,0v2.1H133.5v-2.1Zm16.272.368a1,1,0,0,0-1.12,1.152v4.16c0,.8.368,1.184,1.12,1.184h4.864a1.039,1.039,0,0,0,1.168-1.184v-4.16A1.036,1.036,0,0,0,157.12-5.36Zm.064,1.488c0-.272.1-.384.352-.384h4.048c.256,0,.368.128.368.384v3.52c0,.256-.112.368-.368.368h-4.048c-.256,0-.352-.1-.352-.368Zm-5.248-6.656c.256-1.552.384-2.384.384-2.48a.543.543,0,0,0-.592-.544c-.352,0-.512.176-.56.624-.08.752-.144,1.184-.336,2.4H144.4c-.272,0-.464.24-.464.592,0,.336.192.576.464.576h1.36c-.256,1.344-.64,2.992-.976,4.112a2.333,2.333,0,0,0-.112.624c0,.4.16.656.656,1.008.832.624,1.088.816,1.68,1.312A9.316,9.316,0,0,1,144.7.24c-.48.352-.544.432-.544.672a.641.641,0,0,0,.576.624c.608,0,2.24-1.6,3.168-3.088.5.464.752.7,1.056,1.024.448.448.464.464.72.464A.639.639,0,0,0,150.3-.7c0-.336-.5-.864-1.824-1.92a12.084,12.084,0,0,0,.56-1.5,23.915,23.915,0,0,0,.848-5.264.991.991,0,0,0-1.12-1.136Zm-.208,1.168h1.456c.3,0,.448.112.448.368,0,.064,0,.064-.192,1.584a23.114,23.114,0,0,1-.608,2.96,8.214,8.214,0,0,1-.4,1.1c-.336-.24-.64-.48-1.072-.816-.56-.4-.592-.448-.592-.688a1.64,1.64,0,0,1,.08-.432c.448-1.84.64-2.72.8-3.648l.032-.16Zm10.112.912c-1.024.128-3.088.3-4.48.384a24.327,24.327,0,0,0,2.336-4.912.583.583,0,0,0-.624-.56c-.3,0-.464.128-.608.5A42.375,42.375,0,0,1,151.248-8a3.531,3.531,0,0,0-.592.032.56.56,0,0,0-.464.592.565.565,0,0,0,.64.576c.832,0,5.328-.448,6.736-.688.1.192.16.3.288.528.288.528.384.608.672.608a.578.578,0,0,0,.608-.56c0-.432-.8-1.792-2.3-3.872-.24-.352-.384-.448-.64-.448a.551.551,0,0,0-.56.528.767.767,0,0,0,.144.416c.592.88.608.912,1.008,1.536ZM175.44-9.632c.272,0,.464-.224.464-.576,0-.336-.192-.576-.464-.576h-4.416a18.867,18.867,0,0,0,.48-2.336.551.551,0,0,0-.576-.56c-.336,0-.5.176-.592.592A23.778,23.778,0,0,1,168.3-6.864c-.192.336-.208.4-.208.544a.593.593,0,0,0,.576.56c.368,0,.624-.352,1.2-1.7A17.751,17.751,0,0,0,171.536-3.1,12.35,12.35,0,0,1,168.3.24c-.464.32-.512.368-.512.624a.657.657,0,0,0,.576.64c.64,0,2.672-1.872,3.808-3.472a13.977,13.977,0,0,0,2.48,3.008c.3.256.48.352.688.352a.661.661,0,0,0,.592-.656.6.6,0,0,0-.272-.512,14.59,14.59,0,0,1-2.848-3.28A17.081,17.081,0,0,0,174.7-9.632Zm-1.84,0a17.288,17.288,0,0,1-1.456,5.408,15.287,15.287,0,0,1-1.632-4.928l.064-.176.048-.128.048-.176ZM167.872-11.6a.486.486,0,0,0,.448-.544.5.5,0,0,0-.448-.56h-6.608c-.288,0-.464.224-.464.56s.176.544.464.544h2.08l-.032.1a25.245,25.245,0,0,1-1.52,3.488c-.352.032-.432.032-.512.048a.526.526,0,0,0-.48.544.555.555,0,0,0,.576.608c.688,0,4.16-.464,5.552-.736a2.094,2.094,0,0,0,.16.336c.1.208.128.272.16.336a.508.508,0,0,0,.48.336.583.583,0,0,0,.592-.544,9.477,9.477,0,0,0-1.056-2.32c-.688-1.2-.752-1.28-1.088-1.28a.548.548,0,0,0-.56.512.636.636,0,0,0,.144.4c.3.528.56.992.7,1.3l-.144.032c-.96.112-2.736.3-3.28.336a29.12,29.12,0,0,0,1.52-3.488Zm-3.92,6.88h-2.384a.5.5,0,0,0-.5.56.485.485,0,0,0,.5.544h2.384V-.784c-.752.144-1.328.224-2.256.352a3.162,3.162,0,0,0-.72.128.556.556,0,0,0-.3.512.545.545,0,0,0,.576.624A66.044,66.044,0,0,0,168.1-.48a.481.481,0,0,0,.368-.48.56.56,0,0,0-.528-.624,3.243,3.243,0,0,0-.688.144c-.208.048-.448.1-.688.16l-.848.16-.576.128V-3.616h2.352c.272,0,.464-.208.464-.544s-.192-.56-.464-.56h-2.352v-1.6c0-.288-.24-.48-.592-.48s-.592.192-.592.48Zm17.712-7.456a.588.588,0,0,0-.64-.56.583.583,0,0,0-.624.56v8.608c0,2.816,1.6,4.352,4.544,4.352,2.624,0,4.48-1.312,5.68-4.016a8.539,8.539,0,0,0,.64-2.112A.648.648,0,0,0,190.576-6c-.336,0-.512.16-.64.608-.944,3.344-2.544,4.928-4.944,4.928-2.16,0-3.328-1.088-3.328-3.1Zm20.1,1.168h-5.584a.511.511,0,0,0-.5.544.511.511,0,0,0,.5.544h5.584v2.16h-5.3a.5.5,0,0,0-.48.544.5.5,0,0,0,.48.544h5.3V-4.4a10.576,10.576,0,0,0-1.776-.16c-2.544,0-4.112.992-4.112,2.592,0,1.5,1.552,2.56,3.712,2.56,2.336,0,3.408-1.056,3.408-3.36v-.16a24.109,24.109,0,0,1,4.5,2.56.727.727,0,0,0,.416.144.661.661,0,0,0,.624-.64c0-.288-.08-.4-.576-.752a18,18,0,0,0-4.96-2.48V-6.672h4.384a.5.5,0,0,0,.48-.544.5.5,0,0,0-.48-.544h-4.384V-9.92h4.592a.511.511,0,0,0,.5-.544.521.521,0,0,0-.5-.544h-4.592v-1.808a.566.566,0,0,0-.608-.544.562.562,0,0,0-.624.544Zm0,8.224a1.983,1.983,0,0,1-2.224,2.272c-1.44,0-2.368-.576-2.368-1.472,0-.96.976-1.536,2.608-1.536a11.01,11.01,0,0,1,1.984.208Zm13.5-9.392a.588.588,0,0,0-.64-.56.583.583,0,0,0-.624.56v8.608c0,2.816,1.6,4.352,4.544,4.352,2.624,0,4.48-1.312,5.68-4.016a8.539,8.539,0,0,0,.64-2.112A.648.648,0,0,0,224.176-6c-.336,0-.512.16-.64.608-.944,3.344-2.544,4.928-4.944,4.928-2.16,0-3.328-1.088-3.328-3.1Zm16.88,2.432a58.488,58.488,0,0,1-3.008,9.072c-.368.8-.368.8-.368.944a.651.651,0,0,0,.7.56c.288,0,.464-.128.608-.464a60.325,60.325,0,0,0,3.344-10.112h5.216a.511.511,0,0,0,.5-.544.525.525,0,0,0-.5-.56h-4.96c.208-.912.352-1.6.352-1.744a.609.609,0,0,0-.672-.56c-.352,0-.528.176-.608.592-.176.928-.224,1.168-.352,1.712h-3.344a.5.5,0,0,0-.48.56.49.49,0,0,0,.48.544Zm7.9,2.064a32.8,32.8,0,0,0-4.608.336.562.562,0,0,0-.416.544.555.555,0,0,0,.56.592,1.058,1.058,0,0,0,.176-.016c1.088-.144,3.52-.256,5.088-.256.4,0,.432,0,.528-.048a.586.586,0,0,0,.336-.576.488.488,0,0,0-.4-.512A5.413,5.413,0,0,0,240.048-7.68Zm-.72,6.96a10.983,10.983,0,0,1-3.04-.32.939.939,0,0,1-.656-.96,1.023,1.023,0,0,1,.1-.48.543.543,0,0,0,.112-.32.659.659,0,0,0-.64-.608c-.48,0-.848.7-.848,1.616,0,1.744,1.36,2.288,5.7,2.288,1.808,0,2.176-.112,2.176-.688a.6.6,0,0,0-.592-.672Z" transform="translate(767.86 1142.7)" fill="#3c4a6e"/>
    <g id="グループ_15816" data-name="グループ 15816" transform="translate(684.5 1083.08)">
      <path id="パス_32265" data-name="パス 32265" d="M104.314,158.662a1.4,1.4,0,0,1-.472.316,1.451,1.451,0,0,1-.819.078,1.406,1.406,0,0,1-.741-.394L91.66,148.041a1.412,1.412,0,0,1-.316-.475,1.451,1.451,0,0,1-.078-.819,1.414,1.414,0,0,1,.394-.739l21.952-21.952-3.283-3.28-21.95,21.949a6.073,6.073,0,0,0,0,8.6L99,161.943a6.019,6.019,0,0,0,2.011,1.335,6.073,6.073,0,0,0,6.585-1.335l21.952-21.949-3.283-3.28Z" transform="translate(-74.59 -105.944)" fill="#3c4a6e"/>
      <path id="パス_32266" data-name="パス 32266" d="M84.913,377.828a1.7,1.7,0,0,0-.321,2.334l1.894,1.894a1.7,1.7,0,0,0,2.334-.321l3.554-3.554-3.9-3.907Z" transform="translate(-72.571 -324.289)" fill="#3c4a6e"/>
      <path id="パス_32267" data-name="パス 32267" d="M3.519,437.555l9.061-9.062-2.108-2.108L0,436.853" transform="translate(-0.004 -369.173)" fill="#3c4a6e"/>
      <path id="パス_32268" data-name="パス 32268" d="M267.589,50.423a4.143,4.143,0,0,0-5.859,5.859L282.2,76.749a4.143,4.143,0,1,0,5.859-5.859Z" transform="translate(-224.39 -44.302)" fill="#3c4a6e"/>
      <path id="パス_32269" data-name="パス 32269" d="M369.447,13.822a4.142,4.142,0,0,0,0,5.859l1.12,1.12-3.283,3.283,3.283,3.28,3.28-3.28,2.032,2.03-3.283,3.28,3.283,3.28,3.278-3.28,1.122,1.122a4.144,4.144,0,0,0,5.859-5.861L375.3,13.822" transform="translate(-316.353 -13.822)" fill="#3c4a6e"/>
      <rect id="長方形_6060" data-name="長方形 6060" width="1.989" height="5.546" transform="translate(39 31.561) rotate(-45)" fill="#3c4a6e"/>
      <path id="パス_32270" data-name="パス 32270" d="M243.522,278.228l1.406-1.406L241,272.9l-1.406,1.406Z" transform="translate(-206.373 -236.973)" fill="#3c4a6e"/>
      <rect id="長方形_6061" data-name="長方形 6061" width="1.989" height="5.549" transform="translate(27.688 42.87) rotate(-45)" fill="#3c4a6e"/>
    </g>
  </g>
</svg>
