<svg xmlns="http://www.w3.org/2000/svg" xmlns:xlink="http://www.w3.org/1999/xlink" width="481" height="122" viewBox="0 0 481 122">
  <defs>
    <clipPath id="clip-path">
      <rect id="長方形_6058" data-name="長方形 6058" width="52.108" height="73.703" fill="#b90725"/>
    </clipPath>
  </defs>
  <g id="グループ_15811" data-name="グループ 15811" transform="translate(-140 -871)">
    <g id="長方形_6050" data-name="長方形 6050" transform="translate(140 871)" fill="#fff" stroke="#b90725" stroke-width="2">
      <rect width="481" height="122" stroke="none"/>
      <rect x="1" y="1" width="479" height="120" fill="none"/>
    </g>
    <path id="パス_32261" data-name="パス 32261" d="M5.746-19.268a.817.817,0,0,0-.8.907.817.817,0,0,0,.8.907h5.578A18.114,18.114,0,0,1,7.748-13.61l-.32-.32c-2.776-2.616-3.47-3.2-3.977-3.2a.98.98,0,0,0-.907.934c0,.32.107.507.48.827C4.6-14.064,5.239-13.5,6.333-12.542A27.486,27.486,0,0,1,1.582-9.82c-.614.267-.614.267-.721.32a.9.9,0,0,0-.454.774,1,1,0,0,0,.961,1.014c.747,0,2.989-1.174,5.071-2.669,0,.641.24.961.721.988H8.842v3.95H2.6c-.454,0-.774.374-.774.934s.32.934.774.934H8.762C8.362-.585,6.28,1.5,2.543,2.618c-.56.187-.56.187-.694.24a.94.94,0,0,0-.507.881A1.016,1.016,0,0,0,2.383,4.806c1.121,0,3.9-1.308,5.365-2.536a8.526,8.526,0,0,0,3.1-5.845h4.617V1.9c0,2.055.56,2.4,4.03,2.4,3.737,0,4.724-.32,5.2-1.655a11.112,11.112,0,0,0,.48-3.123.971.971,0,0,0-1.041-1.094.928.928,0,0,0-.988,1.041,9.284,9.284,0,0,1-.374,2.189c-.24.587-.854.747-2.589.747-2.4,0-2.669-.107-2.669-.907V-3.574H24c.454,0,.774-.374.774-.934A.838.838,0,0,0,24-5.443H17.516v-3.95H19.3a.785.785,0,0,0,.747-.881A2.8,2.8,0,0,0,20-10.621c1.975,1.361,4.217,2.482,4.884,2.482a1.068,1.068,0,0,0,.934-1.121c0-.427-.214-.667-.8-.881A23.245,23.245,0,0,1,21.2-12.062a30.62,30.62,0,0,0,3.123-2.7c.374-.374.48-.587.48-.907a.946.946,0,0,0-.934-.934.982.982,0,0,0-.8.4,39.069,39.069,0,0,1-3.31,3.149,22.854,22.854,0,0,1-1.815-1.521,39.975,39.975,0,0,0,3.123-2.856c.427-.427.56-.641.56-.961a.982.982,0,0,0-.961-.881c-.347,0-.56.133-.881.534a28.414,28.414,0,0,1-2.963,3.043A19.189,19.189,0,0,1,15.088-17.8c-.774-1.2-1.148-1.441-2.215-1.468Zm9.715,9.875v3.95H10.924v-3.95ZM7.508-11.154l.16-.107A21.709,21.709,0,0,0,13.3-17.24a24.557,24.557,0,0,0,5.925,6.085ZM42.739-4.215a.357.357,0,0,0,.027-.133.814.814,0,0,0-.827-.881c-.107,0-.267.027-.854.107-.961.107-1.254.16-2.242.267l-1.281.133V-6.8h4a.7.7,0,0,0,.667-.747.733.733,0,0,0-.667-.8h-4V-9.74c0-.427-.374-.721-.934-.721-.534,0-.907.294-.907.721v1.388h-4a.726.726,0,0,0-.694.774.711.711,0,0,0,.694.774h4v2.269c-2.322.214-2.963.267-4.164.32-.854.027-.961.027-1.148.107a.792.792,0,0,0-.507.827.794.794,0,0,0,.881.854c1.575,0,7.9-.641,10.836-1.094.641-.08.747-.133.934-.294a.793.793,0,0,0-.053.32,1.014,1.014,0,0,0,.934.988c.32,0,.56-.16.907-.534a13.619,13.619,0,0,0,2.8-5.231c.667.721.747.8.907.988.534.641.614.694.988.694a.976.976,0,0,0,.907-.907c0-.454-.48-1.014-2.322-2.776a34.367,34.367,0,0,0,.534-4.564h1.628c.427,0,.641.214.641.694l-.24,9.422c-.027,1.254.587,1.655,2.562,1.655,1.068,0,1.575-.08,1.9-.347.534-.374.774-1.681.774-3.923,0-.854-.214-1.148-.854-1.148a.7.7,0,0,0-.694.454c-.053.16-.053.16-.053.694,0,2.135-.16,2.509-1.041,2.509-.587,0-.747-.133-.747-.587l.267-9.262A1.643,1.643,0,0,0,50.452-16.6H48.344l.187-3.069c.027-.454-.374-.8-.934-.8a.812.812,0,0,0-.907.774L46.5-16.6H43.86c-.427,0-.721.374-.721.881,0,.534.294.881.721.881h2.509a21.712,21.712,0,0,1-.32,3.176l-.507-.454c-.827-.694-.907-.747-1.2-.747a.942.942,0,0,0-.827.881.755.755,0,0,0,.374.641c.534.427,1.361,1.174,1.762,1.548A16,16,0,0,1,42.872-4.4ZM35.693-18.387h-4.11a.733.733,0,0,0-.667.8.717.717,0,0,0,.667.8h4.11v1.868H30.755c-.4,0-.667.347-.667.827a.692.692,0,0,0,.667.774h2.963a3.934,3.934,0,0,1-2.642,2.589,2.528,2.528,0,0,0-.614.24.794.794,0,0,0-.374.667.824.824,0,0,0,.8.881,5.2,5.2,0,0,0,1.735-.641,5.48,5.48,0,0,0,2.883-3.737h2.109v2.028c0,1.335.454,1.628,2.456,1.628,1.468,0,2.349-.187,2.669-.534a2.834,2.834,0,0,0,.427-1.628.725.725,0,0,0-.747-.827c-.507,0-.8.24-.8.614-.027.827-.16.934-1.148.934-.961,0-1.148-.08-1.148-.56v-1.655h2.989a.688.688,0,0,0,.641-.774.759.759,0,0,0-.641-.827H37.561v-1.868h4.11a.692.692,0,0,0,.667-.774c0-.48-.267-.827-.667-.827h-4.11v-1.335c0-.427-.374-.721-.934-.721s-.934.294-.934.721Zm-1.308,16.6a1.012,1.012,0,0,0-.907.667A25.214,25.214,0,0,1,31,2.671c-.4.534-.48.667-.48.988A1.128,1.128,0,0,0,31.609,4.7c.507,0,1.068-.507,2-1.815a10.667,10.667,0,0,0,1.842-3.6A1.071,1.071,0,0,0,34.385-1.786Zm4.964.053A.991.991,0,0,0,38.255-.8a2.46,2.46,0,0,0,.08.48c.214.961.56,2.909.667,3.657.133.881.347,1.148.988,1.148.721,0,1.121-.347,1.121-1.014A27.838,27.838,0,0,0,40.337-.8C40.176-1.439,39.856-1.733,39.349-1.733Zm5.578-.133a1.015,1.015,0,0,0-1.068.934,1.687,1.687,0,0,0,.133.56,40.2,40.2,0,0,1,1.548,3.71c.267.747.48.934,1.014.934a1.064,1.064,0,0,0,1.094-.988,13.331,13.331,0,0,0-1.281-3.5C45.648-1.679,45.488-1.866,44.927-1.866Zm5.818-.16a1.066,1.066,0,0,0-1.014.988,1.352,1.352,0,0,0,.32.774C51.253,1.5,52,2.671,52.507,3.579c.374.641.534.774,1.014.774a1.075,1.075,0,0,0,1.121-1.014c0-.454-.507-1.388-1.815-3.2C51.36-1.946,51.28-2.026,50.746-2.026ZM62.169-18.494c-1.254,0-1.868.614-1.868,1.922V-1.119A1.644,1.644,0,0,0,62.169.749h4.244a1.653,1.653,0,0,0,1.9-1.868V-16.573a1.68,1.68,0,0,0-1.9-1.922Zm4.27,8.487h-4.27v-5.979a.566.566,0,0,1,.641-.641H65.8a.566.566,0,0,1,.641.641Zm0,1.815v6.406c0,.454-.187.641-.641.641H62.81c-.454,0-.641-.187-.641-.641V-8.192Zm8.968-8.568H70.657c-.48,0-.774.347-.774.907a.813.813,0,0,0,.774.907h4.751v3.363H69.669c-.454,0-.747.374-.747.934,0,.534.294.907.747.907h8.968V-6.59H69.776a.826.826,0,0,0-.747.907.836.836,0,0,0,.747.934h8.861V1.71c0,.747-.267.988-1.121.988-.561,0-1.335-.053-1.815-.107a1.717,1.717,0,0,0-.427-.053A.96.96,0,0,0,74.26,3.579c0,.854.747,1.068,3.63,1.068,2.082,0,2.669-.48,2.669-2.242V-4.749h2.989c.454,0,.747-.374.747-.907,0-.56-.32-.934-.747-.934H80.559V-9.74h3.363c.454,0,.747-.374.747-.907,0-.56-.294-.934-.747-.934H77.329v-3.363h5.178a.8.8,0,0,0,.774-.881.838.838,0,0,0-.774-.934H77.329v-2.883c0-.454-.4-.774-.961-.774s-.961.32-.961.774ZM72.071-3.815a.989.989,0,0,0-.988.881c0,.294.08.427.427.907.267.4.56.827.854,1.228.32.454.694.961,1.094,1.548.4.56.56.694.988.694A1.063,1.063,0,0,0,75.461.483c0-.347-.347-.907-1.335-2.242C72.659-3.735,72.578-3.815,72.071-3.815Zm31.254-12.571c4.484.56,7.26,3.817,7.26,8.514,0,4.484-2.215,7.34-6.753,8.728-.8.24-.988.427-.988.961a1.038,1.038,0,0,0,.988,1.121A13.6,13.6,0,0,0,108.9.669c2.616-1.922,3.923-4.8,3.923-8.541,0-6.139-4.484-10.356-11.05-10.356a11.938,11.938,0,0,0-6.326,1.708A12.036,12.036,0,0,0,89.74-6.243c0,4.457,2.189,7.927,4.991,7.927,1.948,0,3.523-1.548,5.151-5.071a40.558,40.558,0,0,0,3.256-13.025Zm-2.242.454A36.887,36.887,0,0,1,97.641-3.548C96.52-1.332,95.8-.532,94.865-.532c-1.655,0-3.016-2.536-3.016-5.6,0-5.658,3.843-9.929,9.288-10.329ZM121.021-4.3a1.715,1.715,0,0,0-1.948,1.948V2.564a1.718,1.718,0,0,0,1.948,1.922h4.617q2,0,2-1.922V-2.347a1.743,1.743,0,0,0-2-1.948Zm-.053,2.242a.527.527,0,0,1,.587-.56h3.6a.506.506,0,0,1,.56.56v4.27c0,.4-.187.614-.56.614h-3.6a.542.542,0,0,1-.587-.614Zm-.8-17.4a.733.733,0,0,0-.721.827c0,.534.294.854.721.854h6.512c.4,0,.667-.347.667-.827,0-.507-.267-.854-.667-.854Zm-1.441,3.79c-.427,0-.694.347-.694.881s.267.881.694.881h9.128a.791.791,0,0,0,.747-.854.826.826,0,0,0-.747-.907Zm1.281,3.9a.711.711,0,0,0-.694.774.72.72,0,0,0,.694.8h6.779a.72.72,0,0,0,.694-.8.711.711,0,0,0-.694-.774Zm0,3.71a.716.716,0,0,0-.721.774.755.755,0,0,0,.721.8h6.779a.755.755,0,0,0,.721-.8.716.716,0,0,0-.721-.774Zm16.575-5.311a1.091,1.091,0,0,0-.827.507,18.687,18.687,0,0,1-5.445,4.617c-.587.294-.774.507-.774.907a.893.893,0,0,0,.827.934c.587,0,2.7-1.254,4.057-2.4,1.922-1.655,3.123-3.043,3.123-3.63A.988.988,0,0,0,136.582-13.37Zm4.617,8.06c-.374,0-.614.16-.961.614a22.81,22.81,0,0,1-9.715,7.233c-.988.347-1.2.507-1.2,1.041a.954.954,0,0,0,.961,1.014c1.068,0,4.351-1.628,6.619-3.256,2.722-1.975,5.285-4.7,5.285-5.632A1.088,1.088,0,0,0,141.2-5.309Zm-5.845-13.025a22.287,22.287,0,0,0,6.192,7.527c.534.4.694.48,1.014.48a1.032,1.032,0,0,0,.988-1.041,1.159,1.159,0,0,0-.561-.934,20.694,20.694,0,0,1-6.032-6.886c-.534-1.014-.907-1.308-1.628-1.308a1.589,1.589,0,0,0-1.548,1.068,19.687,19.687,0,0,1-5.338,7.42c-.534.454-.667.641-.667.988a1.017,1.017,0,0,0,.961.988c.454,0,1.094-.454,2.109-1.468A21.756,21.756,0,0,0,135.354-18.334ZM139.037-9.5a1.049,1.049,0,0,0-.8.454,20.445,20.445,0,0,1-7.66,6.032c-.774.294-.934.48-.934.961a.95.95,0,0,0,.881.988,7.953,7.953,0,0,0,2.3-1.014,20.9,20.9,0,0,0,5.925-4.591C139.7-7.738,140-8.192,140-8.565A.988.988,0,0,0,139.037-9.5Zm21.672-8.594h-7.927c-1.308,0-1.922.641-1.922,1.975v8.861c-.854.56-1.948,1.174-2.909,1.681-.721.374-.881.56-.881,1.041a.958.958,0,0,0,.881,1.014c.4,0,.8-.24,2.776-1.6a18.621,18.621,0,0,1-2.242,7.5c-.587.961-.587.961-.587,1.281a1.039,1.039,0,0,0,1.068.988c.587,0,1.014-.534,1.922-2.456,1.281-2.669,1.868-6.032,1.868-10.489v-7.367c0-.507.24-.721.747-.721H171.92a.761.761,0,0,0,.747-.854.776.776,0,0,0-.747-.854h-9.128v-1.6c0-.454-.454-.8-1.068-.8-.587,0-1.014.347-1.014.8ZM169.2-7.071a8.728,8.728,0,0,0,3.016,1.628.94.94,0,0,0,.854-.961c0-.374-.187-.614-.721-.854a14.383,14.383,0,0,1-2.883-1.708c1.922-1.308,2.509-1.868,2.509-2.375a.931.931,0,0,0-.907-.881,1,1,0,0,0-.774.427,24.494,24.494,0,0,1-2.055,1.842,18.263,18.263,0,0,1-2.456-2.642h5.792a.716.716,0,0,0,.667-.8.742.742,0,0,0-.667-.827h-8.995c.4-.774.48-.961.48-1.2a.928.928,0,0,0-.988-.827c-.374,0-.614.214-.854.747-.107.24-.427.881-.641,1.281h-6.219a.735.735,0,0,0-.694.8.744.744,0,0,0,.694.827h5.285a14.6,14.6,0,0,1-1.975,2.536,26.071,26.071,0,0,0-2.028-1.788,1.327,1.327,0,0,0-.881-.427.817.817,0,0,0-.774.8c0,.32.16.56.561.854a25.387,25.387,0,0,1,2,1.655A22.766,22.766,0,0,1,153.824-6.8c-.667.427-.8.587-.8.961a.908.908,0,0,0,.854.907c.4,0,1.174-.48,2.455-1.575v3.149a1.611,1.611,0,0,0,1.815,1.815h3.737v3.71c0,.694-.16.827-1.148.827-.294,0-.8-.053-1.441-.107a.919.919,0,0,0-.24-.027.794.794,0,0,0-.8.881c0,.881.587,1.068,3.283,1.068,1.708,0,2.242-.427,2.242-1.868V-1.546h3.657c1.174,0,1.762-.587,1.762-1.815Zm-1.868,2.082v1.308c0,.427-.214.641-.667.641h-7.794c-.427,0-.641-.187-.641-.641V-4.989Zm-9.1-1.441V-7.578c.027-.427.214-.641.641-.641h7.794c.454,0,.667.214.667.641V-6.43Zm1.361-3.283a19.736,19.736,0,0,0,2.082-2.883h2.3a21.563,21.563,0,0,0,2.269,2.883ZM158.041-.879a1.153,1.153,0,0,0-.8.4,22.044,22.044,0,0,1-3.5,2.8c-.641.4-.747.534-.747.934a1.03,1.03,0,0,0,.961.934c.427,0,1.254-.48,2.7-1.6,1.495-1.148,2.322-2.028,2.322-2.536A1.051,1.051,0,0,0,158.041-.879Zm9.021,0a.918.918,0,0,0-.881.934.862.862,0,0,0,.454.747c1.441.934,3.016,2.082,3.763,2.7.534.427.721.507,1.014.507a1.063,1.063,0,0,0,.961-1.014.987.987,0,0,0-.48-.827C169.144,0,167.729-.879,167.062-.879Zm-18.87-14.947a.886.886,0,0,0-.907.827,1.2,1.2,0,0,0,.107.454,38.273,38.273,0,0,1,1.281,4.057c.214.774.374.934.827.934a.813.813,0,0,0,.907-.774,24.169,24.169,0,0,0-1.254-4.484C148.886-15.585,148.672-15.825,148.192-15.825Zm33.1-3.363a1,1,0,0,0-.988.907,74.824,74.824,0,0,0-.934,12.7c0,3.016.214,7.927.347,8.461a.843.843,0,0,0,.854.614c.747,0,1.281-.427,1.281-1.014a1.532,1.532,0,0,0-.027-.32c-.187-1.681-.347-5.1-.347-7.847a73.081,73.081,0,0,1,.881-12.358.919.919,0,0,0,.027-.24A.972.972,0,0,0,181.288-19.188Zm6.619,2.7a.922.922,0,0,0-.854,1.014.9.9,0,0,0,.854.961h10.97a.878.878,0,0,0,.881-.961.925.925,0,0,0-.881-1.014ZM199.544-.345a2.075,2.075,0,0,0-.347.027,33.289,33.289,0,0,1-4.831.294,14.915,14.915,0,0,1-5.151-.747,2.345,2.345,0,0,1-1.495-2.3,4.008,4.008,0,0,1,.24-1.361,1.1,1.1,0,0,0,.187-.587,1.041,1.041,0,0,0-1.094-.934c-.827,0-1.441,1.281-1.441,2.989A4.14,4.14,0,0,0,188.2,1.07c1.628.694,3.683.988,7.073.988a27.051,27.051,0,0,0,4.4-.267,1.021,1.021,0,0,0,.854-1.068A1.006,1.006,0,0,0,199.544-.345Zm21.779-16.014a54.852,54.852,0,0,0-5.578.374c-2.3.267-7.42,1.068-7.847,1.228a1.021,1.021,0,0,0-.614.934,1,1,0,0,0,.988,1.094,2.644,2.644,0,0,0,.507-.08,74.985,74.985,0,0,1,12.544-1.6c2.349,0,3.737.454,4.8,1.548a6.067,6.067,0,0,1,1.415,4.324,6.571,6.571,0,0,1-3.283,5.712,20.582,20.582,0,0,1-8.568,2.4,3.855,3.855,0,0,0-1.174.16,1.046,1.046,0,0,0-.507.934,1.026,1.026,0,0,0,1.148,1.094,36.661,36.661,0,0,0,5.178-.827,18.679,18.679,0,0,0,5.6-2.269,8.632,8.632,0,0,0,3.87-7.206,7.77,7.77,0,0,0-2.162-5.738C226.181-15.718,224.286-16.359,221.323-16.359Zm18.55-.107c0-.827-.32-1.2-1.041-1.2a1.017,1.017,0,0,0-.988.56,19.272,19.272,0,0,0-.133,3.79c0,7.18.641,11.05,2.3,14.012a3.837,3.837,0,0,0,2.963,2.269c1.014,0,1.948-.694,2.856-2.189a15.506,15.506,0,0,0,1.948-4.324,1.022,1.022,0,0,0-1.068-.988c-.48,0-.774.267-1.014.907-.907,2.375-2.055,4.19-2.7,4.19-.854,0-1.922-2.055-2.509-4.778a54.42,54.42,0,0,1-.747-8.941Zm14.039-.427a.989.989,0,0,0-.988.881,1.813,1.813,0,0,0,.187.667,46.692,46.692,0,0,1,3.443,12.838c.08.667.08.667.16.827a.933.933,0,0,0,.907.614A1.026,1.026,0,0,0,258.77-2.16,37.794,37.794,0,0,0,257.6-8.966a38.362,38.362,0,0,0-2.7-7.126C254.633-16.653,254.339-16.893,253.912-16.893Zm26.664,1.548c-.907.374-1.041.427-1.468.641a10.711,10.711,0,0,0-5.658,9.155c0,3.657,1.628,5.979,5.1,7.367a23.631,23.631,0,0,0,5.178,1.308,1,1,0,0,0,1.014-1.068c0-.641-.32-.934-1.094-1.068-3.1-.507-5.418-1.361-6.459-2.375a5.144,5.144,0,0,1-1.628-4.03,9.517,9.517,0,0,1,5.712-8.728,15.924,15.924,0,0,1,5.765-1.281c.641-.027.667-.053.827-.133a1,1,0,0,0,.507-.934c0-.641-.4-.934-1.254-.934-.454,0-1.815.053-3.016.133-2.215.107-2.829.133-12.277.4-1.468.053-2.776.053-3.977.053-.8,0-.907,0-1.094.08a1.1,1.1,0,0,0-.56,1.041c0,.694.454,1.014,1.388,1.014.24,0,1.148-.053,1.922-.107.427-.053,2.028-.133,4.484-.24,1.922-.08,3.843-.16,5.765-.267Z" transform="translate(282 926.45)" fill="#b90725"/>
    <g id="グループ_15810" data-name="グループ 15810" transform="translate(185 891.878)">
      <g id="グループ_15809" data-name="グループ 15809" clip-path="url(#clip-path)">
        <path id="パス_32260" data-name="パス 32260" d="M51.594,12.661a7.052,7.052,0,0,0-2.361-3.135,6.144,6.144,0,0,0-3.651-1.219H39.963V7.247H31.819a6.952,6.952,0,0,0,.058-.884A6.118,6.118,0,0,0,26.054,0a6.118,6.118,0,0,0-5.823,6.363,6.928,6.928,0,0,0,.058.884H12.145V8.306H6.526a6.024,6.024,0,0,0-2.54.562,6.717,6.717,0,0,0-2.871,2.58A7.614,7.614,0,0,0,0,15.439V66.573a7.7,7.7,0,0,0,.515,2.776,7.052,7.052,0,0,0,2.361,3.135A6.133,6.133,0,0,0,6.526,73.7H45.582a6,6,0,0,0,2.54-.562,6.69,6.69,0,0,0,2.871-2.58,7.606,7.606,0,0,0,1.116-3.988V15.439a7.649,7.649,0,0,0-.515-2.778M26.054,4a2.27,2.27,0,0,1,2.161,2.362,2.558,2.558,0,0,1-.158.884h-4a2.51,2.51,0,0,1-.161-.884A2.272,2.272,0,0,1,26.054,4M48.227,66.573a3.072,3.072,0,0,1-.208,1.122,2.874,2.874,0,0,1-.959,1.275,2.467,2.467,0,0,1-1.478.49H6.526A2.454,2.454,0,0,1,5.5,69.236a2.739,2.739,0,0,1-1.165-1.05,3.075,3.075,0,0,1-.451-1.613V15.439a3.085,3.085,0,0,1,.208-1.125,2.86,2.86,0,0,1,.959-1.273,2.485,2.485,0,0,1,1.478-.493h5.619v.884a2.886,2.886,0,0,0,2.752,3H37.213a2.885,2.885,0,0,0,2.75-3v-.884h5.619a2.422,2.422,0,0,1,1.029.227,2.717,2.717,0,0,1,1.165,1.048,3.038,3.038,0,0,1,.451,1.615Z" transform="translate(0)" fill="#b90725"/>
        <rect id="長方形_6052" data-name="長方形 6052" width="4.166" height="4.552" transform="translate(12.901 24.568)" fill="#b90725"/>
        <rect id="長方形_6053" data-name="長方形 6053" width="17.171" height="4.552" transform="translate(22.039 24.568)" fill="#b90725"/>
        <rect id="長方形_6054" data-name="長方形 6054" width="4.166" height="4.552" transform="translate(12.901 38.021)" fill="#b90725"/>
        <rect id="長方形_6055" data-name="長方形 6055" width="17.171" height="4.552" transform="translate(22.039 38.021)" fill="#b90725"/>
        <rect id="長方形_6056" data-name="長方形 6056" width="4.166" height="4.552" transform="translate(12.901 51.476)" fill="#b90725"/>
        <rect id="長方形_6057" data-name="長方形 6057" width="17.171" height="4.552" transform="translate(22.039 51.476)" fill="#b90725"/>
      </g>
    </g>
    <path id="パス_32262" data-name="パス 32262" d="M4.068-12.776a.581.581,0,0,0-.569.645.581.581,0,0,0,.569.645H8.034A12.88,12.88,0,0,1,5.491-8.753L5.263-8.98C3.29-10.84,2.8-11.258,2.436-11.258a.7.7,0,0,0-.645.664c0,.228.076.361.342.588,1.12.93,1.575,1.329,2.353,2.012A19.545,19.545,0,0,1,1.107-6.058c-.437.19-.437.19-.512.228a.637.637,0,0,0-.323.55.714.714,0,0,0,.683.721,10.538,10.538,0,0,0,3.606-1.9c0,.455.171.683.512.7h1.2v2.809H1.828c-.323,0-.55.266-.55.664s.228.664.55.664H6.212C5.928.509,4.447,1.989,1.79,2.786c-.4.133-.4.133-.493.171a.668.668,0,0,0-.361.626.723.723,0,0,0,.74.759,8.711,8.711,0,0,0,3.815-1.8,6.062,6.062,0,0,0,2.2-4.156h3.283V2.274c0,1.461.4,1.708,2.866,1.708,2.657,0,3.359-.228,3.7-1.177A7.9,7.9,0,0,0,17.884.585a.69.69,0,0,0-.74-.778.66.66,0,0,0-.7.74A6.6,6.6,0,0,1,16.176,2.1c-.171.418-.607.531-1.841.531-1.708,0-1.9-.076-1.9-.645V-1.617h4.612c.323,0,.55-.266.55-.664a.6.6,0,0,0-.55-.664H12.437V-5.754h1.272a.558.558,0,0,0,.531-.626,1.994,1.994,0,0,0-.038-.247,10.869,10.869,0,0,0,3.473,1.765.759.759,0,0,0,.664-.8c0-.3-.152-.474-.569-.626a16.529,16.529,0,0,1-2.714-1.366,21.773,21.773,0,0,0,2.221-1.917c.266-.266.342-.418.342-.645a.672.672,0,0,0-.664-.664.7.7,0,0,0-.569.285,27.781,27.781,0,0,1-2.353,2.239,16.251,16.251,0,0,1-1.291-1.082,28.426,28.426,0,0,0,2.221-2.031c.3-.3.4-.455.4-.683a.7.7,0,0,0-.683-.626c-.247,0-.4.095-.626.38a20.2,20.2,0,0,1-2.107,2.164,13.645,13.645,0,0,1-1.234-1.5c-.55-.854-.816-1.025-1.575-1.044Zm6.908,7.022v2.809H7.75V-5.754ZM5.32-7.007l.114-.076a15.436,15.436,0,0,0,4-4.251,17.462,17.462,0,0,0,4.213,4.327ZM30.372-2.072a.254.254,0,0,0,.019-.095.579.579,0,0,0-.588-.626c-.076,0-.19.019-.607.076-.683.076-.892.114-1.594.19l-.911.095v-1.48h2.847a.5.5,0,0,0,.474-.531.521.521,0,0,0-.474-.569H26.69V-6c0-.3-.266-.512-.664-.512-.38,0-.645.209-.645.512v.987H22.534a.517.517,0,0,0-.493.55.506.506,0,0,0,.493.55h2.847V-2.3c-1.651.152-2.107.19-2.961.228-.607.019-.683.019-.816.076a.563.563,0,0,0-.361.588A.564.564,0,0,0,21.87-.8c1.12,0,5.618-.455,7.705-.778.455-.057.531-.095.664-.209a.564.564,0,0,0-.038.228.721.721,0,0,0,.664.7c.228,0,.4-.114.645-.38A9.684,9.684,0,0,0,33.5-4.957c.474.512.531.569.645.7.38.455.437.493.7.493a.694.694,0,0,0,.645-.645c0-.323-.342-.721-1.651-1.974a24.436,24.436,0,0,0,.38-3.245h1.158c.3,0,.455.152.455.493l-.171,6.7c-.019.892.418,1.177,1.822,1.177.759,0,1.12-.057,1.347-.247.38-.266.55-1.2.55-2.79,0-.607-.152-.816-.607-.816a.5.5,0,0,0-.493.323c-.038.114-.038.114-.038.493,0,1.518-.114,1.784-.74,1.784-.418,0-.531-.095-.531-.418l.19-6.586a1.168,1.168,0,0,0-1.31-1.366h-1.5l.133-2.183c.019-.323-.266-.569-.664-.569a.577.577,0,0,0-.645.55l-.133,2.2H31.169c-.3,0-.512.266-.512.626,0,.38.209.626.512.626h1.784a15.438,15.438,0,0,1-.228,2.258l-.361-.323c-.588-.493-.645-.531-.854-.531a.67.67,0,0,0-.588.626.537.537,0,0,0,.266.455c.38.3.968.835,1.253,1.1A11.375,11.375,0,0,1,30.467-2.2ZM25.362-12.15H22.439a.521.521,0,0,0-.474.569.51.51,0,0,0,.474.569h2.923v1.329H21.851c-.285,0-.474.247-.474.588a.492.492,0,0,0,.474.55h2.107A2.8,2.8,0,0,1,22.079-6.7a1.8,1.8,0,0,0-.437.171.564.564,0,0,0-.266.474.586.586,0,0,0,.569.626,3.7,3.7,0,0,0,1.234-.455,3.9,3.9,0,0,0,2.05-2.657h1.5V-7.1c0,.949.323,1.158,1.746,1.158,1.044,0,1.67-.133,1.9-.38a2.015,2.015,0,0,0,.3-1.158.516.516,0,0,0-.531-.588c-.361,0-.569.171-.569.437-.019.588-.114.664-.816.664-.683,0-.816-.057-.816-.4V-8.544h2.126a.49.49,0,0,0,.455-.55.54.54,0,0,0-.455-.588H26.69v-1.329h2.923a.492.492,0,0,0,.474-.55c0-.342-.19-.588-.474-.588H26.69V-13.1c0-.3-.266-.512-.664-.512s-.664.209-.664.512Zm-.93,11.8a.719.719,0,0,0-.645.474,17.929,17.929,0,0,1-1.765,2.695c-.285.38-.342.474-.342.7a.8.8,0,0,0,.778.74c.361,0,.759-.361,1.423-1.291A7.585,7.585,0,0,0,25.191.414.761.761,0,0,0,24.432-.345Zm3.53.038a.7.7,0,0,0-.778.664A1.75,1.75,0,0,0,27.241.7c.152.683.4,2.069.474,2.6.095.626.247.816.7.816.512,0,.8-.247.8-.721a19.8,19.8,0,0,0-.55-3.037C28.55-.1,28.323-.307,27.962-.307ZM31.929-.4a.722.722,0,0,0-.759.664,1.2,1.2,0,0,0,.095.4,28.583,28.583,0,0,1,1.1,2.638c.19.531.342.664.721.664a.757.757,0,0,0,.778-.7A9.479,9.479,0,0,0,32.953.775C32.441-.269,32.327-.4,31.929-.4Zm4.137-.114a.758.758,0,0,0-.721.7.961.961,0,0,0,.228.55c.854,1.253,1.385,2.088,1.746,2.733.266.455.38.55.721.55a.764.764,0,0,0,.8-.721,6.009,6.009,0,0,0-1.291-2.277C36.5-.459,36.445-.516,36.066-.516ZM52.577-10.726A5.68,5.68,0,0,1,57.74-4.672c0,3.188-1.575,5.219-4.8,6.206-.569.171-.7.3-.7.683a.738.738,0,0,0,.7.8A9.674,9.674,0,0,0,56.544,1.4a7.086,7.086,0,0,0,2.79-6.073c0-4.365-3.188-7.364-7.857-7.364a8.489,8.489,0,0,0-4.5,1.215,8.558,8.558,0,0,0-4.061,7.307c0,3.169,1.556,5.637,3.549,5.637,1.385,0,2.505-1.1,3.663-3.606a28.84,28.84,0,0,0,2.315-9.262Zm-1.594.323A26.23,26.23,0,0,1,48.535-1.6c-.8,1.575-1.31,2.145-1.974,2.145-1.177,0-2.145-1.8-2.145-3.986a7.054,7.054,0,0,1,6.6-7.345ZM69.6-9.341c-.057.55-.19,1.974-.247,2.866-.228.076-.342.133-.493.19C66-4.995,64.23-2.755,64.23-.383c0,1.86.93,2.961,2.486,2.961,1.291,0,2.752-.721,4.745-2.334a19.714,19.714,0,0,0,4.745-5.637,3.3,3.3,0,0,1,2.2,3.34A3.474,3.474,0,0,1,76.965.889a7.16,7.16,0,0,1-3.188,1.234c-.645.095-.835.266-.835.683a.648.648,0,0,0,.7.7,10.262,10.262,0,0,0,4-1.366A4.6,4.6,0,0,0,79.945-2c0-3.075-2.6-5.067-6.586-5.067a13.78,13.78,0,0,0-2.543.228c.057-.759.171-1.955.228-2.505h7.4a.6.6,0,0,0,.607-.645.6.6,0,0,0-.607-.664H71.2l.019-.152c.095-.759.152-1.063.209-1.4a.958.958,0,0,0,.038-.285.707.707,0,0,0-.778-.683.671.671,0,0,0-.7.683c-.076.437-.209,1.537-.247,1.841h-4.27a.615.615,0,0,0-.607.664.621.621,0,0,0,.607.645Zm-.3,4.232c-.038.569-.038.835-.038,1.2a22.025,22.025,0,0,0,.342,4,4.749,4.749,0,0,1-2.695,1.2c-.835,0-1.291-.588-1.291-1.67C65.616-2.243,67.1-4.141,69.3-5.109Zm5.542-.645a17.862,17.862,0,0,1-3.986,4.84,21.73,21.73,0,0,1-.19-3c0-.342.019-.93.038-1.651a11.9,11.9,0,0,1,2.714-.3A8.321,8.321,0,0,1,74.839-5.754Zm20.516-5.162c-1.841,1.234-7.364,5.333-9.319,6.908a.817.817,0,0,0-.361.645.808.808,0,0,0,.759.8.97.97,0,0,0,.664-.323,7.81,7.81,0,0,1,2.012-1.4,15.06,15.06,0,0,1,4.972-.892c2.98,0,4.555,1.139,4.555,3.3,0,1.746-1.1,2.942-3.4,3.625C94.862-.706,93.4-2.072,91.2-2.072c-1.8,0-3.207,1.1-3.207,2.505a2.526,2.526,0,0,0,1.025,2.031,5.9,5.9,0,0,0,3.625.854c4.65,0,7.573-2.012,7.573-5.238A3.826,3.826,0,0,0,97.88-5.659a8.168,8.168,0,0,0-3.511-.721,12.881,12.881,0,0,0-4.327.74c3.075-2.277,5.124-3.72,6.586-4.688.645-.4.645-.4.8-.569a.993.993,0,0,0,.285-.607c0-.437-.474-.721-1.215-.721H87.669a.6.6,0,0,0-.607.645.615.615,0,0,0,.607.664ZM93.875,2.027a7.6,7.6,0,0,1-1.366.095c-1.9,0-3.075-.588-3.075-1.537A1.6,1.6,0,0,1,91.2-.857a2.724,2.724,0,0,1,1.689.626A3.638,3.638,0,0,1,93.875,2.027ZM111.355-9c-.038,6.073-1.272,8.939-4.821,11.33-.74.474-.816.55-.816.911a.808.808,0,0,0,.759.8c.664,0,2.429-1.347,3.568-2.714a11.228,11.228,0,0,0,2.486-5.732h5.751c.474,0,.607.171.607.721a22.063,22.063,0,0,1-.816,5.618c-.19.474-.418.588-1.158.588a15.694,15.694,0,0,1-2.164-.152,2.353,2.353,0,0,0-.4-.038.668.668,0,0,0-.683.721.7.7,0,0,0,.512.721A21.551,21.551,0,0,0,117.2,4c1.765,0,2.2-.342,2.6-2.088a36.359,36.359,0,0,0,.645-6.13c0-1.12-.437-1.556-1.575-1.556H112.7c.114-1.385.133-1.86.152-3.226h9.11a.621.621,0,0,0,.607-.683.656.656,0,0,0-.607-.721h-7.5v-2.657c0-.361-.323-.607-.759-.607-.455,0-.759.247-.759.607V-10.4h-7.288a.649.649,0,0,0-.607.7.627.627,0,0,0,.607.7Zm26.286-.342h-5.883a.609.609,0,0,0-.569.664.6.6,0,0,0,.569.664h5.883v5.618a8.318,8.318,0,0,0-2.2-.342c-2.372,0-4,1.215-4,3,0,1.841,1.651,3.075,4.1,3.075,2.41,0,3.568-1.2,3.568-3.644V-.4a18.8,18.8,0,0,1,3,2.2c.4.342.474.4.7.4a.809.809,0,0,0,.721-.816A.854.854,0,0,0,143.106.7a17.6,17.6,0,0,0-4-2.543V-8.012h3.4a.6.6,0,0,0,.588-.664.612.612,0,0,0-.588-.664h-3.4v-2.885a.65.65,0,0,0-.721-.645.667.667,0,0,0-.74.645Zm0,8.977c0,1.613-.645,2.353-2.069,2.353-1.708,0-2.714-.645-2.714-1.765,0-1.044.987-1.689,2.581-1.689a7.068,7.068,0,0,1,2.2.38Zm-9.11-12.469c-.4,0-.626.228-.7.664a68.529,68.529,0,0,0-.55,8.882,54.1,54.1,0,0,0,.323,6.168.582.582,0,0,0,.607.493.74.74,0,0,0,.835-.7,1.186,1.186,0,0,0-.019-.228,58.215,58.215,0,0,1-.323-6.168,59.3,59.3,0,0,1,.38-6.946c.228-1.4.228-1.4.228-1.461A.721.721,0,0,0,128.53-12.833Zm21.9,1.708a.621.621,0,0,0-.607.683.638.638,0,0,0,.607.7h8.6a.627.627,0,0,0,.607-.7.632.632,0,0,0-.607-.683Zm5.5,12.26a15.236,15.236,0,0,1-4.859-.607A1.644,1.644,0,0,1,149.9-1.066a2.335,2.335,0,0,1,.474-1.423c.209-.3.247-.4.247-.569a.723.723,0,0,0-.7-.683c-.74,0-1.632,1.575-1.632,2.847A2.869,2.869,0,0,0,150.166,1.8a17.46,17.46,0,0,0,6.149.854,42.529,42.529,0,0,0,5.428-.323.742.742,0,0,0,.683-.8.688.688,0,0,0-.7-.74Zm4.5-14.063a.562.562,0,0,0-.569.493c0,.114.038.19.171.4a14.62,14.62,0,0,1,1.139,2.126c.19.455.285.55.569.55a.54.54,0,0,0,.588-.493,6.816,6.816,0,0,0-.987-2.126C160.87-12.776,160.718-12.928,160.434-12.928Zm2.277-.816a.582.582,0,0,0-.588.493c0,.114.038.19.171.4a16.55,16.55,0,0,1,1.158,2.126c.19.455.285.55.55.55a.528.528,0,0,0,.588-.474,5.6,5.6,0,0,0-.873-1.955C163.128-13.611,163-13.744,162.711-13.744ZM181.443,2.862V.661h2.543a.5.5,0,0,0,.493-.569c0-.361-.209-.607-.493-.607h-2.543V-2.509h2.562c.285,0,.474-.228.474-.569,0-.361-.19-.607-.474-.607h-2.562V-5.659h2.98c.285,0,.474-.247.474-.607s-.19-.607-.474-.607h-2.79a6.1,6.1,0,0,0,.759-1.993.621.621,0,0,0-.683-.607c-.3,0-.493.171-.645.588-.228.645-.531,1.461-.778,2.012h-2.24a27.692,27.692,0,0,0,1.518-3.094h4.024c.285,0,.437.133.437.418v1.291a.578.578,0,0,0,.645.55.578.578,0,0,0,.645-.55V-9.948a1.121,1.121,0,0,0-1.253-1.272h-3.986a8.275,8.275,0,0,0,.569-1.86.624.624,0,0,0-.683-.626c-.342,0-.512.171-.645.645-.19.607-.437,1.329-.626,1.841H175.92a1.129,1.129,0,0,0-1.253,1.272v2.126a.592.592,0,0,0,.645.569.609.609,0,0,0,.664-.569V-9.55a.364.364,0,0,1,.418-.418h1.784A25.3,25.3,0,0,1,174.5-3.761c-.38.455-.418.512-.418.778a.632.632,0,0,0,.626.626c.38,0,.759-.361,1.575-1.556V2.673a1.241,1.241,0,0,0,1.385,1.4h7.155a.538.538,0,0,0,.512-.607.538.538,0,0,0-.512-.607Zm-1.272,0h-2.164a.4.4,0,0,1-.437-.455V.661h2.6Zm0-3.378h-2.6V-2.509h2.6Zm0-3.169h-2.6V-5.2a.4.4,0,0,1,.437-.455h2.164Zm-10.97.114v5.5a1.159,1.159,0,0,0,1.31,1.291h2.2a1.152,1.152,0,0,0,1.31-1.291V-5.052a1.157,1.157,0,0,0-1.31-1.31H170.4a25.563,25.563,0,0,0,1.385-4.783H174c.342,0,.569-.266.569-.683a.588.588,0,0,0-.569-.664h-5.789c-.323,0-.55.266-.55.664s.228.683.55.683h2.258a22.953,22.953,0,0,1-3.037,7.857.925.925,0,0,0-.152.455.7.7,0,0,0,.645.683c.38,0,.74-.38,1.2-1.291l.038-.057Zm3.15-1.5a.341.341,0,0,1,.38.38V1.553a.347.347,0,0,1-.38.4h-1.48c-.266,0-.38-.133-.38-.4V-4.691a.341.341,0,0,1,.38-.38Zm17.954,2.942A1.169,1.169,0,0,0,188.978-.8V2.805a1.171,1.171,0,0,0,1.329,1.31h3.207a1.177,1.177,0,0,0,1.347-1.31V-.8a1.183,1.183,0,0,0-1.347-1.329Zm0,1.594a.352.352,0,0,1,.4-.4h2.429a.375.375,0,0,1,.418.4V2.483a.38.38,0,0,1-.418.418H190.7a.366.366,0,0,1-.4-.418Zm13.228-10.742c.437,0,.626.228.626.778a25.836,25.836,0,0,1-.38,4.213c-.133.569-.342.778-.778.778-.323,0-1.12-.076-1.4-.114a.923.923,0,0,0-.266-.038.579.579,0,0,0-.607.645c0,.588.588.759,2.543.759,1.082,0,1.518-.266,1.765-1.063a27.1,27.1,0,0,0,.455-5.409c0-.949-.076-1.234-.4-1.5a1.761,1.761,0,0,0-1.158-.3H196.4a.551.551,0,0,0-.55.626.551.551,0,0,0,.55.626h3.264a10.872,10.872,0,0,1-.418,2.05,10.506,10.506,0,0,0-2.3-.911.612.612,0,0,0-.588.626c0,.285.152.437.531.588.474.19,1.2.512,1.879.854A8.028,8.028,0,0,1,196.493-5.3c-.816.607-.835.626-.835.93a.691.691,0,0,0,.645.7c.3,0,.493-.114,1.215-.74a9.533,9.533,0,0,0,2.467-3.056c.455.247.759.418,1.347.759.493.285.531.3.721.3a.682.682,0,0,0,.645-.664c0-.38-.418-.683-2.221-1.575a10.159,10.159,0,0,0,.531-2.638Zm-13.8-1.651a.538.538,0,0,0-.512.607.522.522,0,0,0,.512.588h4.479a.512.512,0,0,0,.493-.569c0-.361-.209-.626-.493-.626Zm-.968,2.695a.587.587,0,0,0-.512.645.549.549,0,0,0,.512.607h6.263a.552.552,0,0,0,.531-.607.587.587,0,0,0-.531-.645Zm.873,2.79a.523.523,0,0,0-.493.569.512.512,0,0,0,.493.569h4.65a.512.512,0,0,0,.493-.569.523.523,0,0,0-.493-.569Zm-.019,2.638c-.285,0-.474.209-.474.55,0,.361.19.588.474.588h4.688a.509.509,0,0,0,.474-.569c0-.342-.19-.569-.474-.569Zm7.307,3.226c-.361,0-.512.171-.607.664a20.257,20.257,0,0,1-.854,3.264,1.381,1.381,0,0,0-.133.55.656.656,0,0,0,.721.607c.361,0,.512-.171.759-.911a18.123,18.123,0,0,0,.74-3.53A.575.575,0,0,0,196.93-1.579Zm2.828.114c0-.342-.285-.569-.683-.569a.555.555,0,0,0-.626.569V2.559c0,1.291.361,1.518,2.334,1.518,1.5,0,2.183-.133,2.505-.493a4.5,4.5,0,0,0,.474-2.3A.6.6,0,0,0,203.1.623c-.342,0-.512.209-.531.588-.076,1.613-.076,1.613-1.765,1.613-.949,0-1.044-.038-1.044-.493Zm4.46-.38a.647.647,0,0,0-.664.569.723.723,0,0,0,.114.361,22.019,22.019,0,0,1,1.347,3.34,1.418,1.418,0,0,0,.171.4.629.629,0,0,0,.531.3.681.681,0,0,0,.7-.664A10.137,10.137,0,0,0,205.527,0C204.749-1.693,204.654-1.844,204.217-1.844Zm-4.251-2.467a.682.682,0,0,0-.645.664.773.773,0,0,0,.3.55c.266.266.854.892,1.177,1.291.911,1.063.911,1.063,1.2,1.063a.7.7,0,0,0,.664-.645c0-.437-.759-1.366-2.107-2.619C200.289-4.255,200.175-4.312,199.966-4.312Zm22.642-8.351c-.228,0-.3.038-.987.569a101.13,101.13,0,0,1-8.559,5.485,6.834,6.834,0,0,0-1.006.569,1.427,1.427,0,0,0-.721,1.177c0,.531.342.949,1.234,1.442a110.1,110.1,0,0,1,9.489,6.187c.854.626.854.626,1.12.626a.884.884,0,0,0,.816-.854.928.928,0,0,0-.493-.759c-.19-.114-.588-.4-1.177-.8a88.686,88.686,0,0,0-8.483-5.314c-.474-.247-.683-.437-.683-.588,0-.114.285-.361.626-.531.721-.342,1.784-.968,3.018-1.727,1.651-1.025,5.485-3.568,6.206-4.137a.75.75,0,0,0,.342-.588A.814.814,0,0,0,222.608-12.662ZM235-8.81a69.184,69.184,0,0,1-3.511,10.59c-.418.93-.418.93-.418,1.1a.773.773,0,0,0,.835.664.731.731,0,0,0,.721-.531A69.628,69.628,0,0,0,236.5-8.81h5.314a.606.606,0,0,0,.588-.645.623.623,0,0,0-.588-.664h-4.991c.095-.455.152-.683.19-.835l.247-1.2a1.227,1.227,0,0,0,.057-.361.773.773,0,0,0-.835-.664c-.4,0-.588.19-.683.7-.171.816-.266,1.329-.323,1.518-.057.323-.095.474-.171.835h-3.891a.588.588,0,0,0-.569.664.581.581,0,0,0,.569.645Zm10.666,3.872c.512,0,.759-.228.759-.721a.628.628,0,0,0-.474-.626,8.071,8.071,0,0,0-1.385-.057,36.989,36.989,0,0,0-5.58.437.624.624,0,0,0-.493.607.648.648,0,0,0,.664.7,1.127,1.127,0,0,0,.209-.019,47.338,47.338,0,0,1,5.067-.342ZM243.541,1.7c-3.245,0-4.327-.38-4.327-1.537a1.361,1.361,0,0,1,.114-.55.973.973,0,0,0,.095-.38.727.727,0,0,0-.721-.683c-.588,0-1.006.778-1.006,1.86,0,2.088,1.594,2.733,6.756,2.733,2.145,0,2.581-.133,2.581-.816a.716.716,0,0,0-.7-.8Zm.228-14.481a.581.581,0,0,0-.588.512c0,.133.019.171.152.4.607,1.063.835,1.5,1.139,2.126.209.437.323.55.588.55a.569.569,0,0,0,.588-.531,6.562,6.562,0,0,0-.949-2.107C244.225-12.605,244.054-12.776,243.769-12.776Zm2.239-.816a.547.547,0,0,0-.569.493.75.75,0,0,0,.152.4,14.972,14.972,0,0,1,1.158,2.126c.209.455.3.55.569.55a.561.561,0,0,0,.607-.512,6.343,6.343,0,0,0-.93-2.088C246.5-13.4,246.312-13.592,246.009-13.592ZM260-8.259a48.5,48.5,0,0,0,2.581,5.352.759.759,0,0,0,.683.4.756.756,0,0,0,.816-.7.955.955,0,0,0-.209-.55,39.565,39.565,0,0,1-2.3-4.5h5.675a.6.6,0,0,0,.569-.664.609.609,0,0,0-.569-.664H261c-.418-1.044-.816-2.164-.987-2.771s-.342-.8-.74-.8c-.456,0-.8.247-.8.588a16.5,16.5,0,0,0,.987,2.98H252.31a.609.609,0,0,0-.569.664.6.6,0,0,0,.569.664ZM261.78,1.932a17.309,17.309,0,0,1-5.276-.683,2.469,2.469,0,0,1-1.8-2.277,2.669,2.669,0,0,1,.3-1.31,1.112,1.112,0,0,0,.171-.512.732.732,0,0,0-.74-.683c-.664,0-1.253,1.2-1.253,2.524,0,3.018,2.695,4.384,8.654,4.384,2.6,0,3.075-.133,3.075-.835a.69.69,0,0,0-.683-.759Zm13.152-12.716c0-.588-.228-.854-.74-.854a.723.723,0,0,0-.7.4,13.7,13.7,0,0,0-.095,2.695c0,5.105.456,7.857,1.632,9.964a2.728,2.728,0,0,0,2.107,1.613c.721,0,1.385-.493,2.031-1.556A11.026,11.026,0,0,0,280.55-1.6a.726.726,0,0,0-.759-.7c-.342,0-.55.19-.721.645-.645,1.689-1.461,2.98-1.917,2.98-.607,0-1.366-1.461-1.784-3.4a38.7,38.7,0,0,1-.531-6.358Zm9.983-.3a.7.7,0,0,0-.7.626,1.289,1.289,0,0,0,.133.474,33.2,33.2,0,0,1,2.448,9.129c.057.474.057.474.114.588a.663.663,0,0,0,.645.437.729.729,0,0,0,.816-.778,26.874,26.874,0,0,0-.835-4.84,27.28,27.28,0,0,0-1.917-5.067C285.427-10.916,285.219-11.087,284.915-11.087Z" transform="translate(282 958.161)" fill="#363636"/>
  </g>
</svg>
