<svg xmlns="http://www.w3.org/2000/svg" xmlns:xlink="http://www.w3.org/1999/xlink" width="300.697" height="23.122" viewBox="0 0 300.697 23.122">
  <defs>
    <clipPath id="clip-path">
      <rect id="長方形_5976" data-name="長方形 5976" width="300.697" height="23.122" transform="translate(0 0)" fill="none"/>
    </clipPath>
  </defs>
  <g id="font-line" transform="translate(0 0)">
    <g id="グループ_15567" data-name="グループ 15567" clip-path="url(#clip-path)">
      <path id="パス_32083" data-name="パス 32083" d="M20.65,1.76H17.56a.858.858,0,0,0-.858.857V21.811a.858.858,0,0,0,.858.857h3.09a.858.858,0,0,0,.858-.857V2.617a.858.858,0,0,0-.858-.857" fill="#06c755"/>
      <path id="パス_32084" data-name="パス 32084" d="M41.919,1.76h-3.09a.858.858,0,0,0-.858.857v11.4l-8.8-11.879a.966.966,0,0,0-.068-.087L29.1,2.048c-.017-.018-.033-.036-.051-.052l-.016-.015c-.015-.013-.03-.026-.046-.038l-.022-.017c-.015-.011-.029-.021-.045-.031L28.9,1.879l-.046-.025-.027-.013a.425.425,0,0,0-.049-.021l-.027-.01L28.7,1.793l-.03-.007-.05-.011-.036-.006-.045,0c-.015,0-.03,0-.045,0H25.371a.858.858,0,0,0-.858.857V21.811a.858.858,0,0,0,.858.857h3.09a.858.858,0,0,0,.858-.857v-11.4l8.808,11.894a.824.824,0,0,0,.217.212l.009.007.053.032.025.014.04.019.042.018.026.01c.019.007.039.013.058.018l.012,0a.846.846,0,0,0,.22.03h3.09a.858.858,0,0,0,.858-.857V2.617a.858.858,0,0,0-.858-.857" fill="#06c755"/>
      <path id="パス_32085" data-name="パス 32085" d="M13.2,17.861H4.807V2.616a.858.858,0,0,0-.859-.856H.858A.857.857,0,0,0,0,2.616v19.2a.852.852,0,0,0,.24.592l.011.013.013.012a.853.853,0,0,0,.593.239H13.2a.858.858,0,0,0,.857-.858v-3.09a.858.858,0,0,0-.857-.858" fill="#06c755"/>
      <path id="パス_32086" data-name="パス 32086" d="M58.983,1.76H46.638a.848.848,0,0,0-.6.242l-.011.009-.013.015a.854.854,0,0,0-.238.591h0V21.81h0a.854.854,0,0,0,.24.593l.011.013.013.011a.854.854,0,0,0,.593.24H58.983a.858.858,0,0,0,.857-.858V18.72a.858.858,0,0,0-.857-.859h-8.4V14.617h8.4a.858.858,0,0,0,.857-.858v-3.09a.858.858,0,0,0-.857-.858h-8.4V6.566h8.4a.858.858,0,0,0,.857-.858V2.618a.858.858,0,0,0-.857-.858" fill="#06c755"/>
      <path id="パス_32087" data-name="パス 32087" d="M203.165,22.762H199.11a.7.7,0,0,1-.543-.2,1.032,1.032,0,0,1-.248-.461l-1.286-3.527h-8.307L187.473,22.1a1.564,1.564,0,0,1-.264.461.647.647,0,0,1-.527.2h-3.857q-.66,0-.429-.626l7.681-19.714a1.208,1.208,0,0,1,.379-.495,1.249,1.249,0,0,1,.808-.23h3.495a1.193,1.193,0,0,1,.775.23,1.542,1.542,0,0,1,.411.495l7.682,19.714c.153.418,0,.626-.462.626m-7.714-8.571L192.88,7.1l-2.572,7.088h5.143Z" fill="#06c755"/>
      <path id="パス_32088" data-name="パス 32088" d="M215.431,17.955a1.02,1.02,0,0,1,.6-.147.8.8,0,0,1,.605.376l1.341,2a.732.732,0,0,1,.13.654.99.99,0,0,1-.359.523,8.916,8.916,0,0,1-2.355,1.226,8.277,8.277,0,0,1-2.779.474,8,8,0,0,1-3.189-.638,8.306,8.306,0,0,1-4.365-4.283,7.529,7.529,0,0,1-.654-3.123,7.925,7.925,0,0,1,.638-3.155,8.088,8.088,0,0,1,4.3-4.317,7.81,7.81,0,0,1,3.139-.638,8.776,8.776,0,0,1,2.943.475A7.953,7.953,0,0,1,217.818,8.7a.994.994,0,0,1,.311.539.761.761,0,0,1-.18.671l-1.472,1.831a.686.686,0,0,1-.588.343,1.394,1.394,0,0,1-.621-.179,4.5,4.5,0,0,0-1.162-.54,4.746,4.746,0,0,0-1.356-.18,3.589,3.589,0,0,0-2.7,1.063,3.8,3.8,0,0,0-1.03,2.763,3.669,3.669,0,0,0,1.046,2.714,3.629,3.629,0,0,0,2.682,1.046,4.52,4.52,0,0,0,1.406-.212,5.654,5.654,0,0,0,1.275-.6" fill="#06c755"/>
      <path id="パス_32089" data-name="パス 32089" d="M230.46,17.955a1.02,1.02,0,0,1,.6-.147.793.793,0,0,1,.6.376l1.342,2a.732.732,0,0,1,.13.654.986.986,0,0,1-.36.523,8.91,8.91,0,0,1-2.354,1.226,8.277,8.277,0,0,1-2.779.474,7.986,7.986,0,0,1-3.188-.638,8.3,8.3,0,0,1-4.366-4.283,7.529,7.529,0,0,1-.654-3.123,7.925,7.925,0,0,1,.638-3.155,8.088,8.088,0,0,1,4.3-4.317,7.81,7.81,0,0,1,3.139-.638,8.776,8.776,0,0,1,2.943.475A7.953,7.953,0,0,1,232.847,8.7a.994.994,0,0,1,.311.539.759.759,0,0,1-.181.671l-1.471,1.831a.684.684,0,0,1-.588.343,1.4,1.4,0,0,1-.622-.179,4.491,4.491,0,0,0-1.161-.54,4.746,4.746,0,0,0-1.356-.18,3.59,3.59,0,0,0-2.7,1.063,3.806,3.806,0,0,0-1.03,2.763,3.669,3.669,0,0,0,1.046,2.714,3.631,3.631,0,0,0,2.682,1.046,4.509,4.509,0,0,0,1.4-.212,5.661,5.661,0,0,0,1.276-.6" fill="#06c755"/>
      <path id="パス_32090" data-name="パス 32090" d="M242.7,6.8a8.007,8.007,0,0,1,3.188.638,8.227,8.227,0,0,1,2.6,1.749,8.457,8.457,0,0,1,1.766,2.6,7.836,7.836,0,0,1,.654,3.188,7.757,7.757,0,0,1-.654,3.156,8.441,8.441,0,0,1-1.766,2.6,8.2,8.2,0,0,1-2.6,1.75,8.3,8.3,0,0,1-6.376,0,8.168,8.168,0,0,1-4.349-4.349,7.93,7.93,0,0,1-.638-3.156,8.011,8.011,0,0,1,.638-3.188,8.159,8.159,0,0,1,4.349-4.349A8,8,0,0,1,242.7,6.8m0,11.9a3.352,3.352,0,0,0,2.469-1.063,3.612,3.612,0,0,0,.736-1.193,4.111,4.111,0,0,0,.261-1.472,4.2,4.2,0,0,0-.261-1.5,3.612,3.612,0,0,0-.736-1.193,3.441,3.441,0,0,0-3.842-.785,3.185,3.185,0,0,0-1.079.785,3.747,3.747,0,0,0-.72,1.193,4.183,4.183,0,0,0-.261,1.5,4.089,4.089,0,0,0,.261,1.472,3.747,3.747,0,0,0,.72,1.193,3.185,3.185,0,0,0,1.079.785,3.329,3.329,0,0,0,1.373.278" fill="#06c755"/>
      <path id="パス_32091" data-name="パス 32091" d="M268.11,15.7a8.121,8.121,0,0,1-.523,2.976,6.288,6.288,0,0,1-1.488,2.272,6.6,6.6,0,0,1-2.338,1.439,8.724,8.724,0,0,1-3.041.507,8.825,8.825,0,0,1-3.074-.507,6.6,6.6,0,0,1-2.338-1.439,6.288,6.288,0,0,1-1.488-2.272A8.141,8.141,0,0,1,253.3,15.7V7.949a.838.838,0,0,1,.85-.85h2.943a.837.837,0,0,1,.851.85v7.358a3.329,3.329,0,0,0,.768,2.321,2.582,2.582,0,0,0,2.011.85,2.534,2.534,0,0,0,1.995-.85,3.381,3.381,0,0,0,.752-2.321V7.949a.837.837,0,0,1,.85-.85h2.943a.837.837,0,0,1,.85.85Z" fill="#06c755"/>
      <path id="パス_32092" data-name="パス 32092" d="M285.666,22.517a.823.823,0,0,1-.6.245H282.02a.837.837,0,0,1-.85-.85v-7.75a2.926,2.926,0,0,0-.7-2.027,2.364,2.364,0,0,0-1.848-.785,2.442,2.442,0,0,0-.735.131,2.7,2.7,0,0,0-.769.392,2.593,2.593,0,0,0-.638.687,2.074,2.074,0,0,0-.31,1.046v8.306a.837.837,0,0,1-.851.85h-3.171a.838.838,0,0,1-.851-.85V8.015a.84.84,0,0,1,.851-.851h3.171a.839.839,0,0,1,.851.851v1.7a3.943,3.943,0,0,1,1.7-2.076,4.723,4.723,0,0,1,2.485-.736,5.063,5.063,0,0,1,4.071,1.749,7.162,7.162,0,0,1,1.488,4.791v8.469a.823.823,0,0,1-.245.6" fill="#06c755"/>
      <path id="パス_32093" data-name="パス 32093" d="M300.678,21.16a.779.779,0,0,1-.262.392,7.072,7.072,0,0,1-1.912,1.014,6.589,6.589,0,0,1-2.24.392,5.063,5.063,0,0,1-4.039-1.635A6.856,6.856,0,0,1,290.8,16.68V11.154H288.71a.8.8,0,0,1-.6-.262.878.878,0,0,1-.245-.621V8.015a.882.882,0,0,1,.245-.622.8.8,0,0,1,.6-.261h2.126V4.058a.837.837,0,0,1,.85-.85h2.943a.837.837,0,0,1,.85.85V7.132h3.139a.8.8,0,0,1,.6.261.878.878,0,0,1,.245.622v2.256a.873.873,0,0,1-.245.621.794.794,0,0,1-.6.262h-3.074v5.395q0,2.094,1.635,2.093a2.039,2.039,0,0,0,.671-.1,2.652,2.652,0,0,0,.539-.262.685.685,0,0,1,.507-.114.627.627,0,0,1,.409.311l1.275,2.158a.684.684,0,0,1,.1.523" fill="#06c755"/>
      <path id="パス_32094" data-name="パス 32094" d="M89.792,12.231a10.105,10.105,0,0,1-.83,4.07,10.5,10.5,0,0,1-2.254,3.319,10.821,10.821,0,0,1-3.335,2.239,10.105,10.105,0,0,1-4.07.83,10.213,10.213,0,0,1-4.086-.83,10.555,10.555,0,0,1-5.605-5.589,10.089,10.089,0,0,1-.83-4.07,10.093,10.093,0,0,1,.83-4.071A10.555,10.555,0,0,1,75.217,2.54,10.213,10.213,0,0,1,79.3,1.71a10.105,10.105,0,0,1,4.07.83,10.556,10.556,0,0,1,5.589,5.605,10.217,10.217,0,0,1,.83,4.086m-5.041,0a6.136,6.136,0,0,0-.423-2.286,5.79,5.79,0,0,0-2.912-3.131,4.853,4.853,0,0,0-2.113-.47,5.1,5.1,0,0,0-2.129.454A5.492,5.492,0,0,0,75.42,8.051a5.832,5.832,0,0,0-1.174,1.863,6.386,6.386,0,0,0,0,4.571,5.821,5.821,0,0,0,1.174,1.863A5.492,5.492,0,0,0,77.174,17.6a5.088,5.088,0,0,0,2.129.454,4.986,4.986,0,0,0,2.113-.454,5.549,5.549,0,0,0,1.738-1.253A5.841,5.841,0,0,0,84.328,14.5a6.012,6.012,0,0,0,.423-2.27" fill="#06c755"/>
      <path id="パス_32095" data-name="パス 32095" d="M104.859,1.046a.78.78,0,0,1,.343.507.869.869,0,0,1-.114.67l-1.21,1.929a.743.743,0,0,1-.54.393,1.228,1.228,0,0,1-.572-.066,3.683,3.683,0,0,0-1.308-.261,2.13,2.13,0,0,0-1.7.719,3.005,3.005,0,0,0-.622,2.028v.1h3.14a.838.838,0,0,1,.85.85V10.3a.838.838,0,0,1-.85.85h-3.14V21.81a.838.838,0,0,1-.85.851H95.441a.838.838,0,0,1-.85-.851V11.15h-1.8a.837.837,0,0,1-.85-.85V7.913a.837.837,0,0,1,.85-.85h1.8v-.1a7.636,7.636,0,0,1,1.717-5.134A5.827,5.827,0,0,1,100.869,0a8.354,8.354,0,0,1,2.24.278,6.255,6.255,0,0,1,1.75.768" fill="#06c755"/>
      <path id="パス_32096" data-name="パス 32096" d="M118,1.046a.78.78,0,0,1,.343.507.869.869,0,0,1-.114.67l-1.21,1.929a.743.743,0,0,1-.54.393,1.228,1.228,0,0,1-.572-.066,3.683,3.683,0,0,0-1.308-.261,2.13,2.13,0,0,0-1.7.719,3.005,3.005,0,0,0-.622,2.028v.1h3.14a.838.838,0,0,1,.85.85V10.3a.838.838,0,0,1-.85.85h-3.14V21.81a.838.838,0,0,1-.85.851h-2.845a.838.838,0,0,1-.85-.851V11.15h-1.8a.837.837,0,0,1-.85-.85V7.913a.837.837,0,0,1,.85-.85h1.8v-.1a7.636,7.636,0,0,1,1.717-5.134A5.827,5.827,0,0,1,114.011,0a8.354,8.354,0,0,1,2.24.278,6.255,6.255,0,0,1,1.75.768" fill="#06c755"/>
      <path id="パス_32097" data-name="パス 32097" d="M122.193,0a2.676,2.676,0,0,1,1.945.785,2.6,2.6,0,0,1,.8,1.929,2.6,2.6,0,0,1-.8,1.93,2.676,2.676,0,0,1-1.945.784,2.567,2.567,0,0,1-1.913-.784,2.65,2.65,0,0,1-.769-1.93A2.65,2.65,0,0,1,120.28.785,2.568,2.568,0,0,1,122.193,0m2.354,21.811a.837.837,0,0,1-.85.85h-3.009a.838.838,0,0,1-.85-.85V7.914a.84.84,0,0,1,.85-.851H123.7a.838.838,0,0,1,.85.851Z" fill="#06c755"/>
      <path id="パス_32098" data-name="パス 32098" d="M138.137,17.955a1.021,1.021,0,0,1,.605-.147.8.8,0,0,1,.6.376l1.341,2a.735.735,0,0,1,.131.654,1,1,0,0,1-.36.523,8.916,8.916,0,0,1-2.355,1.226,8.277,8.277,0,0,1-2.779.474,7.99,7.99,0,0,1-3.188-.638,8.3,8.3,0,0,1-4.366-4.283,7.529,7.529,0,0,1-.654-3.123,7.925,7.925,0,0,1,.638-3.155,8.088,8.088,0,0,1,4.3-4.317,7.81,7.81,0,0,1,3.139-.638,8.776,8.776,0,0,1,2.943.475A7.953,7.953,0,0,1,140.524,8.7a.994.994,0,0,1,.311.539.761.761,0,0,1-.18.671l-1.472,1.831a.684.684,0,0,1-.588.343,1.394,1.394,0,0,1-.621-.179,4.491,4.491,0,0,0-1.161-.54,4.758,4.758,0,0,0-1.357-.18,3.59,3.59,0,0,0-2.7,1.063,3.8,3.8,0,0,0-1.03,2.763,3.669,3.669,0,0,0,1.046,2.714,3.629,3.629,0,0,0,2.682,1.046,4.52,4.52,0,0,0,1.406-.212,5.654,5.654,0,0,0,1.275-.6" fill="#06c755"/>
      <path id="パス_32099" data-name="パス 32099" d="M145.776,0a2.676,2.676,0,0,1,1.945.785,2.6,2.6,0,0,1,.8,1.929,2.6,2.6,0,0,1-.8,1.93,2.676,2.676,0,0,1-1.945.784,2.567,2.567,0,0,1-1.913-.784,2.65,2.65,0,0,1-.769-1.93,2.65,2.65,0,0,1,.769-1.929A2.568,2.568,0,0,1,145.776,0m2.354,21.811a.837.837,0,0,1-.85.85h-3.009a.838.838,0,0,1-.85-.85V7.914a.84.84,0,0,1,.85-.851h3.009a.839.839,0,0,1,.85.851Z" fill="#06c755"/>
      <path id="パス_32100" data-name="パス 32100" d="M167.151,21.781a.882.882,0,0,1-.245.622.8.8,0,0,1-.605.261H163.1a.8.8,0,0,1-.6-.261.882.882,0,0,1-.245-.622V20.637a7.284,7.284,0,0,1-1.7,1.569,3.965,3.965,0,0,1-2.256.654,6.586,6.586,0,0,1-2.583-.539,6.854,6.854,0,0,1-2.272-1.57,7.978,7.978,0,0,1-1.619-2.518,8.608,8.608,0,0,1-.622-3.351,9.082,9.082,0,0,1,.573-3.287A7.852,7.852,0,0,1,153.3,9.061a7.013,7.013,0,0,1,2.239-1.635,6.413,6.413,0,0,1,2.715-.589,4.041,4.041,0,0,1,2.306.671,7.611,7.611,0,0,1,1.683,1.52V7.884a.837.837,0,0,1,.85-.85H166.3a.837.837,0,0,1,.85.85Zm-7.978-3.564a2.834,2.834,0,0,0,2.206-.965,3.415,3.415,0,0,0,.867-2.37,3.507,3.507,0,0,0-.867-2.436,2.834,2.834,0,0,0-2.206-.965,2.788,2.788,0,0,0-2.192.965,3.547,3.547,0,0,0-.849,2.436,3.453,3.453,0,0,0,.849,2.37,2.788,2.788,0,0,0,2.192.965" fill="#06c755"/>
      <path id="パス_32101" data-name="パス 32101" d="M170.277.85a.837.837,0,0,1,.85-.85h3.205a.82.82,0,0,1,.6.245.821.821,0,0,1,.246.605V21.778a.874.874,0,0,1-.246.621.792.792,0,0,1-.6.262h-3.205a.794.794,0,0,1-.6-.262.873.873,0,0,1-.245-.621Z" fill="#06c755"/>
    </g>
  </g>
</svg>
