<svg xmlns="http://www.w3.org/2000/svg" width="481" height="122" viewBox="0 0 481 122">
  <g id="グループ_15813" data-name="グループ 15813" transform="translate(-659 -871)">
    <g id="グループ_15812" data-name="グループ 15812" transform="translate(519)">
      <g id="長方形_6050" data-name="長方形 6050" transform="translate(140 871)" fill="#fff" stroke="#b90725" stroke-width="2">
        <rect width="481" height="122" stroke="none"/>
        <rect x="1" y="1" width="479" height="120" fill="none"/>
      </g>
    </g>
    <path id="パス_32264" data-name="パス 32264" d="M5.208-19.392a.735.735,0,0,0-.72.816.735.735,0,0,0,.72.816h5.016A16.288,16.288,0,0,1,7.008-14.3l-.288-.288c-2.5-2.352-3.12-2.88-3.576-2.88a.881.881,0,0,0-.816.84c0,.288.1.456.432.744,1.416,1.176,1.992,1.68,2.976,2.544A24.716,24.716,0,0,1,1.464-10.9c-.552.24-.552.24-.648.288a.806.806,0,0,0-.408.7A.9.9,0,0,0,1.272-9c.672,0,2.688-1.056,4.56-2.4,0,.576.216.864.648.888H7.992V-6.96H2.376c-.408,0-.7.336-.7.84s.288.84.7.84H7.92C7.56-2.592,5.688-.72,2.328.288c-.5.168-.5.168-.624.216a.845.845,0,0,0-.456.792.914.914,0,0,0,.936.96A11.016,11.016,0,0,0,7.008-.024,7.666,7.666,0,0,0,9.792-5.28h4.152V-.36c0,1.848.5,2.16,3.624,2.16,3.36,0,4.248-.288,4.68-1.488A9.992,9.992,0,0,0,22.68-2.5a.873.873,0,0,0-.936-.984.834.834,0,0,0-.888.936A8.348,8.348,0,0,1,20.52-.576C20.3-.048,19.752.1,18.192.1c-2.16,0-2.4-.1-2.4-.816V-5.28h5.832c.408,0,.7-.336.7-.84a.753.753,0,0,0-.7-.84H15.792v-3.552H17.4a.706.706,0,0,0,.672-.792,2.521,2.521,0,0,0-.048-.312,13.744,13.744,0,0,0,4.392,2.232.96.96,0,0,0,.84-1.008c0-.384-.192-.6-.72-.792A20.9,20.9,0,0,1,19.1-12.912a27.534,27.534,0,0,0,2.808-2.424c.336-.336.432-.528.432-.816a.85.85,0,0,0-.84-.84.883.883,0,0,0-.72.36A35.131,35.131,0,0,1,17.808-13.8a20.55,20.55,0,0,1-1.632-1.368,35.946,35.946,0,0,0,2.808-2.568c.384-.384.5-.576.5-.864a.883.883,0,0,0-.864-.792c-.312,0-.5.12-.792.48a25.549,25.549,0,0,1-2.664,2.736,17.255,17.255,0,0,1-1.56-1.9c-.7-1.08-1.032-1.3-1.992-1.32Zm8.736,8.88V-6.96H9.864v-3.552ZM6.792-12.1l.144-.1A19.52,19.52,0,0,0,12-17.568,22.082,22.082,0,0,0,17.328-12.1Zm31.68,6.24a.321.321,0,0,0,.024-.12.732.732,0,0,0-.744-.792c-.1,0-.24.024-.768.1-.864.1-1.128.144-2.016.24l-1.152.12V-8.184h3.6a.628.628,0,0,0,.6-.672.659.659,0,0,0-.6-.72h-3.6v-1.248c0-.384-.336-.648-.84-.648-.48,0-.816.264-.816.648v1.248h-3.6a.653.653,0,0,0-.624.7.639.639,0,0,0,.624.7h3.6v2.04c-2.088.192-2.664.24-3.744.288-.768.024-.864.024-1.032.1a.712.712,0,0,0-.456.744.714.714,0,0,0,.792.768c1.416,0,7.1-.576,9.744-.984.576-.072.672-.12.84-.264a.713.713,0,0,0-.048.288.911.911,0,0,0,.84.888c.288,0,.5-.144.816-.48a12.247,12.247,0,0,0,2.52-4.7c.6.648.672.72.816.888.48.576.552.624.888.624a.878.878,0,0,0,.816-.816c0-.408-.432-.912-2.088-2.5a30.9,30.9,0,0,0,.48-4.1h1.464c.384,0,.576.192.576.624l-.216,8.472c-.024,1.128.528,1.488,2.3,1.488.96,0,1.416-.072,1.7-.312.48-.336.7-1.512.7-3.528,0-.768-.192-1.032-.768-1.032a.629.629,0,0,0-.624.408c-.048.144-.048.144-.048.624,0,1.92-.144,2.256-.936,2.256-.528,0-.672-.12-.672-.528l.24-8.328a1.478,1.478,0,0,0-1.656-1.728h-1.9l.168-2.76c.024-.408-.336-.72-.84-.72a.73.73,0,0,0-.816.7l-.168,2.784H39.48c-.384,0-.648.336-.648.792,0,.48.264.792.648.792h2.256a19.523,19.523,0,0,1-.288,2.856l-.456-.408c-.744-.624-.816-.672-1.08-.672a.847.847,0,0,0-.744.792.679.679,0,0,0,.336.576c.48.384,1.224,1.056,1.584,1.392a14.385,14.385,0,0,1-2.5,4.848ZM32.136-18.6h-3.7a.659.659,0,0,0-.6.72.645.645,0,0,0,.6.72h3.7v1.68H27.7c-.36,0-.6.312-.6.744a.622.622,0,0,0,.6.7H30.36a3.538,3.538,0,0,1-2.376,2.328,2.273,2.273,0,0,0-.552.216.714.714,0,0,0-.336.6.741.741,0,0,0,.72.792,4.675,4.675,0,0,0,1.56-.576,4.927,4.927,0,0,0,2.592-3.36h1.9v1.824c0,1.2.408,1.464,2.208,1.464,1.32,0,2.112-.168,2.4-.48a2.548,2.548,0,0,0,.384-1.464.652.652,0,0,0-.672-.744c-.456,0-.72.216-.72.552-.024.744-.144.84-1.032.84-.864,0-1.032-.072-1.032-.5V-14.04h2.688a.619.619,0,0,0,.576-.7.683.683,0,0,0-.576-.744H33.816v-1.68h3.7a.622.622,0,0,0,.6-.7c0-.432-.24-.744-.6-.744h-3.7v-1.2c0-.384-.336-.648-.84-.648s-.84.264-.84.648ZM30.96-3.672a.91.91,0,0,0-.816.6A22.673,22.673,0,0,1,27.912.336c-.36.48-.432.6-.432.888a1.014,1.014,0,0,0,.984.936c.456,0,.96-.456,1.8-1.632a9.592,9.592,0,0,0,1.656-3.24A.963.963,0,0,0,30.96-3.672Zm4.464.048a.891.891,0,0,0-.984.84,2.212,2.212,0,0,0,.072.432c.192.864.5,2.616.6,3.288.12.792.312,1.032.888,1.032.648,0,1.008-.312,1.008-.912a25.032,25.032,0,0,0-.7-3.84C36.168-3.36,35.88-3.624,35.424-3.624Zm5.016-.12a.913.913,0,0,0-.96.84,1.517,1.517,0,0,0,.12.5A36.145,36.145,0,0,1,40.992.936c.24.672.432.84.912.84a.957.957,0,0,0,.984-.888,11.987,11.987,0,0,0-1.152-3.144C41.088-3.576,40.944-3.744,40.44-3.744Zm5.232-.144A.958.958,0,0,0,44.76-3a1.216,1.216,0,0,0,.288.7C46.128-.72,46.8.336,47.256,1.152c.336.576.48.7.912.7A.966.966,0,0,0,49.176.936c0-.408-.456-1.248-1.632-2.88C46.224-3.816,46.152-3.888,45.672-3.888ZM55.944-18.7c-1.128,0-1.68.552-1.68,1.728v13.9a1.479,1.479,0,0,0,1.68,1.68H59.76a1.486,1.486,0,0,0,1.7-1.68v-13.9a1.511,1.511,0,0,0-1.7-1.728Zm3.84,7.632h-3.84V-16.44a.509.509,0,0,1,.576-.576h2.688a.509.509,0,0,1,.576.576Zm0,1.632v5.76c0,.408-.168.576-.576.576H56.52c-.408,0-.576-.168-.576-.576v-5.76Zm8.064-7.7H63.576c-.432,0-.7.312-.7.816a.731.731,0,0,0,.7.816h4.272v3.024h-5.16c-.408,0-.672.336-.672.84,0,.48.264.816.672.816h8.064v2.832H62.784a.743.743,0,0,0-.672.816.752.752,0,0,0,.672.84h7.968V-.528c0,.672-.24.888-1.008.888-.5,0-1.2-.048-1.632-.1a1.544,1.544,0,0,0-.384-.048.863.863,0,0,0-.912.936c0,.768.672.96,3.264.96,1.872,0,2.4-.432,2.4-2.016V-6.336h2.688c.408,0,.672-.336.672-.816,0-.5-.288-.84-.672-.84H72.48v-2.832H75.5c.408,0,.672-.336.672-.816,0-.5-.264-.84-.672-.84H69.576V-15.5h4.656a.723.723,0,0,0,.7-.792.753.753,0,0,0-.7-.84H69.576v-2.592c0-.408-.36-.7-.864-.7s-.864.288-.864.7Zm-3,11.64a.889.889,0,0,0-.888.792c0,.264.072.384.384.816.24.36.5.744.768,1.1.288.408.624.864.984,1.392.36.5.5.624.888.624a.956.956,0,0,0,.912-.864c0-.312-.312-.816-1.2-2.016C65.376-5.424,65.3-5.5,64.848-5.5Zm28.1-11.3c4.032.5,6.528,3.432,6.528,7.656,0,4.032-1.992,6.6-6.072,7.848-.72.216-.888.384-.888.864A.933.933,0,0,0,93.408.576a12.233,12.233,0,0,0,4.56-2.04,8.961,8.961,0,0,0,3.528-7.68c0-5.52-4.032-9.312-9.936-9.312a10.735,10.735,0,0,0-5.688,1.536,10.823,10.823,0,0,0-5.136,9.24c0,4.008,1.968,7.128,4.488,7.128,1.752,0,3.168-1.392,4.632-4.56a36.47,36.47,0,0,0,2.928-11.712Zm-2.016.408a33.169,33.169,0,0,1-3.1,11.136c-1.008,1.992-1.656,2.712-2.5,2.712-1.488,0-2.712-2.28-2.712-5.04a8.92,8.92,0,0,1,8.352-9.288ZM111.1-17.3a.785.785,0,0,0-.768.864.806.806,0,0,0,.768.888h10.872a.793.793,0,0,0,.768-.888.8.8,0,0,0-.768-.864Zm6.96,15.5a19.267,19.267,0,0,1-6.144-.768,2.079,2.079,0,0,1-1.488-2.016,2.952,2.952,0,0,1,.6-1.8c.264-.384.312-.5.312-.72a.914.914,0,0,0-.888-.864c-.936,0-2.064,1.992-2.064,3.6A3.628,3.628,0,0,0,110.76-.96c1.392.648,4.44,1.08,7.776,1.08A53.781,53.781,0,0,0,125.4-.288a.938.938,0,0,0,.864-1.008.87.87,0,0,0-.888-.936Zm5.688-17.784a.71.71,0,0,0-.72.624c0,.144.048.24.216.5a18.488,18.488,0,0,1,1.44,2.688c.24.576.36.7.72.7a.683.683,0,0,0,.744-.624,8.618,8.618,0,0,0-1.248-2.688C124.3-19.392,124.1-19.584,123.744-19.584Zm2.88-1.032a.736.736,0,0,0-.744.624c0,.144.048.24.216.5A20.927,20.927,0,0,1,127.56-16.8c.24.576.36.7.7.7a.668.668,0,0,0,.744-.6,7.086,7.086,0,0,0-1.1-2.472C127.152-20.448,126.984-20.616,126.624-20.616Zm16.944,6.384c-1.128-.768-3.1-2.04-3.84-2.448a1.3,1.3,0,0,0-.672-.216.94.94,0,0,0-.888.912c0,.312.168.528.576.792,1.248.792,3.744,2.52,5.424,3.744H133.632a.781.781,0,0,0-.744.864.79.79,0,0,0,.744.888h9.48v9.12c0,.528-.264.72-1.056.72a22.491,22.491,0,0,1-2.784-.168,3.43,3.43,0,0,0-.576-.048.865.865,0,0,0-.96.936.875.875,0,0,0,.744.936,31.017,31.017,0,0,0,3.912.24c2.064,0,2.616-.456,2.616-2.136V-9.7H151.8c.384,0,.552.072.552.216a17.624,17.624,0,0,1-3.072,3.912c-.48.456-.576.624-.576.984a1,1,0,0,0,.984.936,1.276,1.276,0,0,0,.936-.48,22.915,22.915,0,0,0,2.784-3.288,6.14,6.14,0,0,0,1.368-2.88c0-.744-.576-1.152-1.632-1.152h-6.936a.737.737,0,0,0,.1-.36c0-.336-.12-.5-.72-.96l-.384-.288a41.858,41.858,0,0,0,5.664-4.032c.72-.6,1.008-1.056,1.008-1.56,0-.6-.6-.984-1.536-.984H135.96a.781.781,0,0,0-.744.864.8.8,0,0,0,.744.888h12.36c.312,0,.5.072.5.168,0,.336-2.424,2.064-5.088,3.6Zm17.184,4.656a8.254,8.254,0,0,0-.984.048.736.736,0,0,0-.624.768.819.819,0,0,0,.864.864c.072,0,.072,0,1.872-.144l1.08-.1.792-.072V1.536c0,.456.336.744.864.744a.747.747,0,0,0,.84-.744V-8.4c1.176-.12,1.776-.192,2.616-.336l.048.12c.1.264.168.48.264.768.24.648.336.768.744.768.552,0,.912-.288.912-.7a10.5,10.5,0,0,0-1.128-2.88c-.912-1.872-.912-1.872-1.368-1.872a.759.759,0,0,0-.816.672.937.937,0,0,0,.168.528c.264.552.384.792.528,1.1l.072.144c-.624.1-3.6.336-4.416.384A73.3,73.3,0,0,0,168.1-15.48c.432-.552.5-.672.5-.936a.937.937,0,0,0-.864-.912c-.312,0-.528.168-.84.576-1.1,1.512-1.728,2.3-2.976,3.84l-.072-.1c-.528-.72-.864-1.128-1.272-1.632l-.12-.144a45.39,45.39,0,0,0,3.1-3.912c.36-.456.432-.624.432-.888a.9.9,0,0,0-.912-.816c-.336,0-.552.144-.816.576a35.733,35.733,0,0,1-2.784,3.936l-.048-.072c-.624-.648-.768-.744-1.128-.744a.911.911,0,0,0-.84.888.986.986,0,0,0,.36.72c1.056,1.128,2.208,2.424,3.024,3.456-.264.336-1.248,1.416-1.872,2.064ZM173.16-16.44a13.886,13.886,0,0,0,.672-2.976.832.832,0,0,0-.912-.864c-.5,0-.744.24-.888.912a23.907,23.907,0,0,1-2.664,7.1c-.288.5-.312.576-.312.84a.9.9,0,0,0,.888.888.93.93,0,0,0,.768-.5,19.879,19.879,0,0,0,1.848-3.72h5.976c.6,0,.7.192.7,1.224a113.468,113.468,0,0,1-.7,12.528c-.144.888-.48,1.176-1.3,1.176a22.915,22.915,0,0,1-2.352-.144,2.515,2.515,0,0,0-.5-.048.865.865,0,0,0-.936.96.781.781,0,0,0,.624.816,19.316,19.316,0,0,0,3.552.24c1.32,0,1.9-.24,2.3-1.008.36-.672.5-1.608.72-4.728.12-1.632.336-7.848.336-9.336,0-2.136-.024-2.352-.36-2.784a1.848,1.848,0,0,0-1.56-.576ZM161.4-6.528c-.5,0-.7.216-.792.84a33.085,33.085,0,0,1-1.032,4.56,2.041,2.041,0,0,0-.168.672.889.889,0,0,0,.888.792c.408,0,.648-.216.792-.672a25.66,25.66,0,0,0,1.128-5.376A.734.734,0,0,0,161.4-6.528Zm6.144-.264a.742.742,0,0,0-.816.648,1.185,1.185,0,0,0,.072.36,33.779,33.779,0,0,1,1.224,4.272c.12.5.12.5.192.624a.8.8,0,0,0,.672.36.762.762,0,0,0,.816-.792,25.326,25.326,0,0,0-1.32-4.608C168.12-6.6,167.952-6.792,167.544-6.792Zm5.472-4.272a.872.872,0,0,0-.888.792.97.97,0,0,0,.216.6c1.2,1.776,2.112,3.216,2.592,4.08.36.7.528.84.96.84a.963.963,0,0,0,.936-.888,13.185,13.185,0,0,0-2.256-3.888C173.592-10.9,173.424-11.064,173.016-11.064Zm27.5-3.984h-7.44a.77.77,0,0,0-.72.84.757.757,0,0,0,.72.84h7.44v7.1a10.519,10.519,0,0,0-2.784-.432c-3,0-5.064,1.536-5.064,3.792,0,2.328,2.088,3.888,5.184,3.888,3.048,0,4.512-1.512,4.512-4.608v-.12A23.771,23.771,0,0,1,206.16-.96c.5.432.6.5.888.5a1.023,1.023,0,0,0,.912-1.032,1.08,1.08,0,0,0-.528-.864,22.262,22.262,0,0,0-5.064-3.216v-7.8h4.3a.76.76,0,0,0,.744-.84.773.773,0,0,0-.744-.84h-4.3V-18.7a.822.822,0,0,0-.912-.816.843.843,0,0,0-.936.816Zm0,11.352c0,2.04-.816,2.976-2.616,2.976-2.16,0-3.432-.816-3.432-2.232,0-1.32,1.248-2.136,3.264-2.136a8.938,8.938,0,0,1,2.784.48ZM189-19.464c-.5,0-.792.288-.888.84a86.664,86.664,0,0,0-.7,11.232,68.409,68.409,0,0,0,.408,7.8.736.736,0,0,0,.768.624.936.936,0,0,0,1.056-.888,1.5,1.5,0,0,0-.024-.288,73.622,73.622,0,0,1-.408-7.8,74.993,74.993,0,0,1,.48-8.784c.288-1.776.288-1.776.288-1.848A.912.912,0,0,0,189-19.464Zm27.984,1.872a.785.785,0,0,0-.768.864.806.806,0,0,0,.768.888H229.8a.793.793,0,0,0,.768-.888.8.8,0,0,0-.768-.864ZM224.232-1.8a19.6,19.6,0,0,1-6.432-.768,2.081,2.081,0,0,1-1.488-1.992,3.125,3.125,0,0,1,.6-1.824c.24-.384.312-.528.312-.744a.907.907,0,0,0-.864-.84c-.96,0-2.088,1.944-2.088,3.576a3.713,3.713,0,0,0,2.544,3.5A22.859,22.859,0,0,0,224.4.12a59.476,59.476,0,0,0,6.888-.408.919.919,0,0,0,.84-1.008.863.863,0,0,0-.912-.936Zm20.424-12.624a54.8,54.8,0,0,1-2.16,6.288c-.336.72-.336.744-.336,1.008A1.1,1.1,0,0,0,243.24-6.1a2.039,2.039,0,0,0,1.032-.384,16.407,16.407,0,0,1,7.8-2.232c2.832,0,4.536,1.32,4.536,3.528,0,2.832-3.144,4.176-10.152,4.32-.552.024-.648.024-.792.1a.833.833,0,0,0-.5.816c0,.6.384.936,1.08.936a41.685,41.685,0,0,0,6.1-.624,14.666,14.666,0,0,0,2.856-.84c2.3-1.008,3.456-2.544,3.456-4.656,0-3.072-2.64-5.136-6.6-5.136a14.583,14.583,0,0,0-7.68,2.064,59.392,59.392,0,0,0,2.16-6.216h11.9a.748.748,0,0,0,.72-.816.77.77,0,0,0-.72-.84H247.008a26.8,26.8,0,0,0,.7-2.952c0-.48-.432-.84-1.056-.84a.823.823,0,0,0-.864.768c-.12.672-.384,1.848-.672,3.024h-4.968a.781.781,0,0,0-.744.816.773.773,0,0,0,.744.84Zm27.528-5.256a.842.842,0,0,0-.816.888c0,.408.216.624.744.72a40.223,40.223,0,0,1,7.2,2.136c.72.336.744.336.96.336a.917.917,0,0,0,.84-.912.863.863,0,0,0-.5-.768c-.048-.048-.048-.048-1.008-.432A35.47,35.47,0,0,0,272.184-19.68ZM273.12-.768A.815.815,0,0,0,272.3.12c0,.624.36.888,1.224.888a19.5,19.5,0,0,0,7.9-1.68,5.514,5.514,0,0,0,3.1-5.184c0-3.24-2.5-5.184-6.672-5.184A12.071,12.071,0,0,0,270.1-8.16a57.036,57.036,0,0,1,.864-5.856,2.824,2.824,0,0,0,.12-.648c0-.456-.408-.792-1.008-.792-.5,0-.7.216-.888,1.008a53.948,53.948,0,0,0-1.032,7.7.971.971,0,0,0,.984,1.032,1.385,1.385,0,0,0,.984-.456,11.836,11.836,0,0,1,7.656-3.264c3.048,0,4.656,1.224,4.656,3.552a3.743,3.743,0,0,1-2.04,3.624,15.25,15.25,0,0,1-6.84,1.488Z" transform="translate(799 941)" fill="#b90725"/>
    <g id="_i_icon_00163_icon_001630" transform="translate(591.278 895.142)">
      <path id="パス_32263" data-name="パス 32263" d="M149.574,0H124.925a7.657,7.657,0,0,0-7.648,7.648V66.067a7.657,7.657,0,0,0,7.648,7.648h24.649a7.657,7.657,0,0,0,7.648-7.648V7.648A7.656,7.656,0,0,0,149.574,0ZM137.25,69.2a3.1,3.1,0,1,1,3.1-3.1A3.1,3.1,0,0,1,137.25,69.2ZM152.694,9.685V58.659H121.8V9.685Z" fill="#b90725"/>
    </g>
  </g>
</svg>
