<svg xmlns="http://www.w3.org/2000/svg" width="375" height="70" viewBox="0 0 375 70">
  <g id="mv-box-sp" transform="translate(0 -366)">
    <path id="長方形_5783" data-name="長方形 5783" d="M16,0H359a16,16,0,0,1,16,16V70a0,0,0,0,1,0,0H0a0,0,0,0,1,0,0V16A16,16,0,0,1,16,0Z" transform="translate(0 366)" fill="#fff"/>
    <path id="パス_31992" data-name="パス 31992" d="M7.332-4.478H17.722V0H1.418V-1.846a8.591,8.591,0,0,1,.632-3.375A11.2,11.2,0,0,1,3.64-7.9a13.786,13.786,0,0,1,2.094-2.1Q6.87-10.92,7.9-11.655q1.077-.769,1.888-1.47a10.761,10.761,0,0,0,1.367-1.393,5.3,5.3,0,0,0,.829-1.4,4.168,4.168,0,0,0,.273-1.512,3.04,3.04,0,0,0-.889-2.375,3.951,3.951,0,0,0-2.717-.8A9.127,9.127,0,0,0,2.6-18.1v-4.751A12.987,12.987,0,0,1,9.81-24.917a10.651,10.651,0,0,1,3.341.487,7.068,7.068,0,0,1,2.5,1.393,5.94,5.94,0,0,1,1.564,2.2,7.411,7.411,0,0,1,.538,2.88,8.119,8.119,0,0,1-.521,3.008,9.242,9.242,0,0,1-1.384,2.393,12.557,12.557,0,0,1-1.991,1.974q-1.128.9-2.341,1.735Q10.7-8.271,9.938-7.7A14.987,14.987,0,0,0,8.6-6.571a6.123,6.123,0,0,0-.923,1.085A1.873,1.873,0,0,0,7.332-4.478Z" transform="translate(56 402)" fill="#3c4a6e"/>
    <path id="パス_31994" data-name="パス 31994" d="M2-.8V-5.5A9.486,9.486,0,0,0,7.742-3.708,5.17,5.17,0,0,0,10.963-4.6a2.951,2.951,0,0,0,1.154-2.478A2.817,2.817,0,0,0,10.69-9.6a7.393,7.393,0,0,0-3.922-.889H4.495v-4.136H6.6q4.785,0,4.785-3.179,0-2.991-3.674-2.991a8.377,8.377,0,0,0-4.785,1.589v-4.409a13.216,13.216,0,0,1,6.016-1.3,9.078,9.078,0,0,1,5.853,1.692,5.384,5.384,0,0,1,2.094,4.392q0,4.8-4.871,6.016v.085a6.622,6.622,0,0,1,4.1,1.888,5.325,5.325,0,0,1,1.5,3.837,6.575,6.575,0,0,1-2.512,5.435,10.862,10.862,0,0,1-6.938,2A13.41,13.41,0,0,1,2-.8Z" transform="translate(101 402)" fill="#3c4a6e"/>
    <ellipse id="楕円形_289" data-name="楕円形 289" cx="8.5" cy="9.5" rx="8.5" ry="9.5" transform="translate(80 384)" fill="#3c4a6e"/>
    <ellipse id="楕円形_290" data-name="楕円形 290" cx="9" cy="9.5" rx="9" ry="9.5" transform="translate(123 385)" fill="#b90725"/>
    <path id="パス_31993" data-name="パス 31993" d="M2.268.346.768.369Q.65.369.65.24v-1q0-.129.117-.129l1.5.023H5.232v-4.09H3.322l-1.641.023a.185.185,0,0,1-.117-.023.2.2,0,0,1-.018-.105v-1q0-.094.029-.111a.183.183,0,0,1,.105-.018l1.641.023h1.91V-8.027a13.735,13.735,0,0,0-.094-1.887q.873.023,1.4.082.193.023.193.146a.755.755,0,0,1-.07.264,6.163,6.163,0,0,0-.076,1.371V-6.17H8.7l1.635-.023q.105,0,.123.023a.2.2,0,0,1,.018.105v1q0,.094-.023.111a.236.236,0,0,1-.117.018L8.7-4.957H6.586v4.09H9.744l1.5-.023q.117,0,.117.129v1q0,.129-.117.129L9.744.346Z" transform="translate(83 397)" fill="#fff"/>
    <path id="パス_31995" data-name="パス 31995" d="M3.363.756H2.291A.176.176,0,0,1,2.183.735.176.176,0,0,1,2.162.627l.023-4.271v-2.32L2.162-9.1a.2.2,0,0,1,.023-.123A.219.219,0,0,1,2.3-9.24l1.652.023H8.068L9.727-9.24q.094,0,.111.029a.219.219,0,0,1,.018.111L9.832-6.322v2.666L9.855.563q0,.1-.023.117A.2.2,0,0,1,9.727.7H8.66q-.1,0-.117-.023A.219.219,0,0,1,8.525.563V-.023H3.492v.65q0,.094-.023.111A.2.2,0,0,1,3.363.756Zm.129-1.969H8.525v-2.9H3.492Zm0-6.814v2.736H8.525V-8.027Z" transform="translate(126 399)" fill="#fff"/>
    <rect id="長方形_5784" data-name="長方形 5784" width="111" height="18" rx="9" transform="translate(30 409)" fill="#3c4a6e"/>
    <path id="パス_31996" data-name="パス 31996" d="M5.308-3.838A6.211,6.211,0,0,1,5.1-2.17,3.577,3.577,0,0,1,4.5-.928a2.642,2.642,0,0,1-.959.779A2.939,2.939,0,0,1,2.261.122,3.649,3.649,0,0,1,.781-.151v-1.27a2.37,2.37,0,0,0,1.328.361A1.529,1.529,0,0,0,3.354-1.6a2.418,2.418,0,0,0,.454-1.567l-.029-.01a1.585,1.585,0,0,1-1.411.688,1.937,1.937,0,0,1-.793-.161A1.906,1.906,0,0,1,.945-3.1,2.042,2.042,0,0,1,.53-3.779a2.448,2.448,0,0,1-.149-.869A2.7,2.7,0,0,1,.562-5.654a2.3,2.3,0,0,1,.505-.781,2.23,2.23,0,0,1,.779-.505,2.731,2.731,0,0,1,1.006-.178A2.3,2.3,0,0,1,3.877-6.9a2.155,2.155,0,0,1,.774.642,3,3,0,0,1,.488,1.03A5.22,5.22,0,0,1,5.308-3.838ZM3.75-4.658a1.814,1.814,0,0,0-.068-.505,1.33,1.33,0,0,0-.19-.408.927.927,0,0,0-.3-.271.766.766,0,0,0-.386-.1.785.785,0,0,0-.369.088.9.9,0,0,0-.291.242,1.145,1.145,0,0,0-.19.369,1.522,1.522,0,0,0-.068.464,1.585,1.585,0,0,0,.068.486,1.037,1.037,0,0,0,.193.359.809.809,0,0,0,.3.222.978.978,0,0,0,.391.076.839.839,0,0,0,.371-.081A.894.894,0,0,0,3.5-3.936a.983.983,0,0,0,.186-.322A1.188,1.188,0,0,0,3.75-4.658ZM7.09-3.452a.906.906,0,0,1-.635-.232A.746.746,0,0,1,6.2-4.258a.725.725,0,0,1,.261-.576.965.965,0,0,1,.652-.225.928.928,0,0,1,.647.227.74.74,0,0,1,.251.574.737.737,0,0,1-.256.581A.974.974,0,0,1,7.09-3.452Zm0,3.574a.9.9,0,0,1-.635-.234A.754.754,0,0,1,6.2-.688a.725.725,0,0,1,.261-.576.965.965,0,0,1,.652-.225.928.928,0,0,1,.647.227.74.74,0,0,1,.251.574A.744.744,0,0,1,7.756-.1.968.968,0,0,1,7.09.122Zm4.209,0q-2.5,0-2.5-3.511a4.777,4.777,0,0,1,.676-2.776,2.253,2.253,0,0,1,1.96-.955q2.441,0,2.441,3.569A4.7,4.7,0,0,1,13.21-.825,2.2,2.2,0,0,1,11.3.122Zm.068-6.064q-1,0-1,2.515,0,2.368.981,2.368.957,0,.957-2.441T11.367-5.942ZM17.051.122q-2.5,0-2.5-3.511a4.777,4.777,0,0,1,.676-2.776,2.253,2.253,0,0,1,1.96-.955q2.441,0,2.441,3.569a4.7,4.7,0,0,1-.667,2.725A2.2,2.2,0,0,1,17.051.122Zm.068-6.064q-1,0-1,2.515,0,2.368.981,2.368.957,0,.957-2.441T17.119-5.942ZM36.787-7.158V0H35.249V-5.42a1.842,1.842,0,0,1-.3.212,3.1,3.1,0,0,1-.369.181,3.292,3.292,0,0,1-.405.137,2.96,2.96,0,0,1-.415.081v-1.3a6.416,6.416,0,0,0,1.133-.449,6.447,6.447,0,0,0,.962-.6ZM39.048-.229V-1.572a2.71,2.71,0,0,0,1.641.513,1.477,1.477,0,0,0,.92-.254.843.843,0,0,0,.33-.708.8.8,0,0,0-.408-.723A2.112,2.112,0,0,0,40.41-3h-.649V-4.18h.6q1.367,0,1.367-.908,0-.854-1.05-.854a2.393,2.393,0,0,0-1.367.454v-1.26a3.776,3.776,0,0,1,1.719-.371,2.594,2.594,0,0,1,1.672.483,1.538,1.538,0,0,1,.6,1.255,1.632,1.632,0,0,1-1.392,1.719v.024a1.892,1.892,0,0,1,1.172.54,1.521,1.521,0,0,1,.43,1.1,1.879,1.879,0,0,1-.718,1.553,3.1,3.1,0,0,1-1.982.571A3.831,3.831,0,0,1,39.048-.229Zm6.519-3.223a.906.906,0,0,1-.635-.232.746.746,0,0,1-.254-.574.725.725,0,0,1,.261-.576.965.965,0,0,1,.652-.225.929.929,0,0,1,.647.227.74.74,0,0,1,.251.574.737.737,0,0,1-.256.581A.974.974,0,0,1,45.566-3.452Zm0,3.574a.9.9,0,0,1-.635-.234.754.754,0,0,1-.254-.576.725.725,0,0,1,.261-.576.965.965,0,0,1,.652-.225.929.929,0,0,1,.647.227.74.74,0,0,1,.251.574.744.744,0,0,1-.256.583A.968.968,0,0,1,45.566.122Zm4.209,0q-2.5,0-2.5-3.511a4.777,4.777,0,0,1,.676-2.776,2.253,2.253,0,0,1,1.96-.955q2.441,0,2.441,3.569a4.7,4.7,0,0,1-.667,2.725A2.2,2.2,0,0,1,49.775.122Zm.068-6.064q-1,0-1,2.515,0,2.368.981,2.368.957,0,.957-2.441T49.844-5.942ZM55.527.122q-2.5,0-2.5-3.511A4.777,4.777,0,0,1,53.7-6.165a2.253,2.253,0,0,1,1.96-.955q2.441,0,2.441,3.569a4.7,4.7,0,0,1-.667,2.725A2.2,2.2,0,0,1,55.527.122ZM55.6-5.942q-1,0-1,2.515,0,2.368.981,2.368.957,0,.957-2.441T55.6-5.942Z" transform="translate(54 422)" fill="#fff"/>
    <path id="パス_31997" data-name="パス 31997" d="M10.664-4.523a2.467,2.467,0,0,1-.524,1.559,1.633,1.633,0,0,1-1.31.574,3.177,3.177,0,0,1-1.512-.516A2.248,2.248,0,0,0,6.4-3.275q-.721,0-.756.938h-1.2A2.476,2.476,0,0,1,4.978-3.9a1.66,1.66,0,0,1,1.333-.574,2.72,2.72,0,0,1,1.395.445,2.668,2.668,0,0,0,1.055.457.6.6,0,0,0,.5-.261,1.172,1.172,0,0,0,.208-.688Z" transform="translate(74 422)" fill="#fff"/>
    <path id="パス_31989" data-name="パス 31989" d="M27.439-2.256q2.5.164,3.9.164a4.925,4.925,0,0,0,.513-.021,2.04,2.04,0,0,0,1.374-.369,1.449,1.449,0,0,0,.308-1.046v-7.137a11.9,11.9,0,0,0-2.092,2.646q-.574.882-.841.882a2.269,2.269,0,0,1-.943-.513,26.111,26.111,0,0,1-8.511-10.356L21-17.678a24.437,24.437,0,0,1-3.466,5.947A24.847,24.847,0,0,1,12.387-7.1a1.977,1.977,0,0,1-.923.554q-.246,0-.8-.841a11.2,11.2,0,0,0-2.01-2.44v5.845l.082,6.091q0,.287-.1.349a.765.765,0,0,1-.39.062H4.573q-.451,0-.451-.41l.082-6.6V-20.754l-.082-6.624q0-.349.082-.41a.765.765,0,0,1,.39-.062l5.66.082h8.224q.1-1.928.1-3.015a32.809,32.809,0,0,0-.267-4.512q1.661.062,4.614.308.636.062.636.492a3.235,3.235,0,0,1-.246.882,19.088,19.088,0,0,0-.205,3.076q0,.923-.082,2.769h8.941l5.64-.082q.328,0,.39.082a.765.765,0,0,1,.062.39l-.082,6.891V-9.536l.1,6.645q0,.369,0,.677a4.138,4.138,0,0,1-1.354,3.486q-1.415,1.087-6.521,1.087a1.93,1.93,0,0,1-1.189-.226A2.386,2.386,0,0,1,28.608,1,9.939,9.939,0,0,0,27.439-2.256ZM33.53-10.91V-23.728H22.764a23.062,23.062,0,0,0,4.614,8.1A26.292,26.292,0,0,0,33.53-10.91ZM16.857-18.949a21.561,21.561,0,0,0,1.292-4.778h-9.5v13.474A18.193,18.193,0,0,0,16.857-18.949ZM77.5-4.655A8.357,8.357,0,0,0,80.348-3.4q1,.267,1,.779a6.34,6.34,0,0,1-.082.738A7.422,7.422,0,0,1,80.533.636,4.2,4.2,0,0,1,79.426,1.8q-1.559,1.128-7.055,1.128-5.7,0-7.2-.636A2.547,2.547,0,0,1,63.635-.41V-3.445H60.025a10.773,10.773,0,0,1-5.619,5.229,24.666,24.666,0,0,1-7.465,1.579q-.492.041-.7.041a.837.837,0,0,1-.677-.267,5.665,5.665,0,0,1-.472-.923A9.689,9.689,0,0,0,43.557-.164a32.509,32.509,0,0,0,7.321-.82,7.792,7.792,0,0,0,4.184-2.461l-5.5.082q-.349,0-.41-.1a.827.827,0,0,1-.062-.41l.082-3.732v-6.05l-.082-3.773q0-.328.082-.39a.765.765,0,0,1,.39-.062l5.783.082H68.967l5.742-.082a.748.748,0,0,1,.451.082.706.706,0,0,1,.062.369l-.082,3.773v6.05l.082,3.732a.78.78,0,0,1-.072.431q-.072.082-.441.082l-5.742-.082h-.882v1.477q0,.984.8,1.128a30.582,30.582,0,0,0,3.445.123q3.261,0,4.143-.554a1.571,1.571,0,0,0,.779-1A11.762,11.762,0,0,0,77.5-4.655ZM71.058-5.968V-7.608H53.217v1.641Zm0-9.229H53.217v1.579H71.058ZM53.217-9.782H71.058v-1.6H53.217Zm4.532-12.182,4.04-.082a.649.649,0,0,1,.41.082.706.706,0,0,1,.062.369v1.948q0,.328-.1.39a.641.641,0,0,1-.369.062l-4.04-.082h-6.87l-5.455.082q-.349,0-.41-.082a.706.706,0,0,1-.062-.369l.082-4.122V-29.2l-.082-4.163q0-.328.082-.39a.765.765,0,0,1,.39-.062l5.455.082h6.05l4.737-.082q.328,0,.39.082a.706.706,0,0,1,.062.369v1.989q0,.328-.082.39a.641.641,0,0,1-.369.062l-4.737-.082h-.513v1.641l3.938-.041q.431,0,.431.451L60.7-27.07V-25.9l.082,1.887q0,.451-.431.451L56.416-23.6v1.641Zm-.82-3.691v-1.661h-8.08v1.661Zm-8.08-5.353v1.641h4.04v-1.641Zm0,9.044h4.04V-23.6h-4.04Zm12.141-4.512a22.845,22.845,0,0,0,5.086-6.419,8.79,8.79,0,0,0,.882-2.358q.8.185,3.384.841.759.205.759.595a1.01,1.01,0,0,1-.369.636,4.925,4.925,0,0,0-.964,1.456l-.246.513h5.291l5.332-.082q.369,0,.431.082a.706.706,0,0,1,.062.369v2.728a.748.748,0,0,1-.082.451.827.827,0,0,1-.41.062l-5.332-.082H67.326a25.907,25.907,0,0,1-2.687,3.015q-.738.677-.923.677-.328,0-.923-.841A6.4,6.4,0,0,0,60.989-26.476ZM74.5-20.59H69.93l-4.081.082q-.328,0-.39-.082a.706.706,0,0,1-.062-.369v-2.789q0-.328.082-.39a.706.706,0,0,1,.369-.062l4.081.082H74.5l4.081-.082a.649.649,0,0,1,.41.082.706.706,0,0,1,.062.369v2.789q0,.328-.1.39a.641.641,0,0,1-.369.062ZM92.119-10.459l-5.558.082a.7.7,0,0,1-.431-.082.706.706,0,0,1-.062-.369v-3.158q0-.328.082-.39a.827.827,0,0,1,.41-.062l5.558.082h22.374l5.558-.082a.7.7,0,0,1,.431.082.706.706,0,0,1,.062.369v3.158a.617.617,0,0,1-.072.379.72.72,0,0,1-.42.072l-5.558-.082H101.532a80.052,80.052,0,0,1-3.753,7.9q6.563-.369,12.94-1.046-1.928-2.358-3.056-3.568a.579.579,0,0,1-.185-.349q0-.205.431-.41L110.6-9.331a1.01,1.01,0,0,1,.451-.164.675.675,0,0,1,.431.246A77.459,77.459,0,0,1,119.292.513a.65.65,0,0,1,.144.349q0,.205-.349.431L116.174,3.2a1.268,1.268,0,0,1-.492.246q-.164,0-.349-.287-.841-1.415-2.092-3.281Q105.1.9,90.56,2.01a3.415,3.415,0,0,0-1.518.39,1.115,1.115,0,0,1-.718.246q-.451,0-.574-.595a43.983,43.983,0,0,1-.882-4.327q.964.082,2.03.082,1.025,0,2.543-.082L92.8-2.317a70.6,70.6,0,0,0,3.691-8.142Zm31.069-10.705a13.175,13.175,0,0,0-1.8,3.138q-.41,1.046-.718,1.046a3.286,3.286,0,0,1-.964-.328,47.374,47.374,0,0,1-8.019-4.45v3.117q0,.328-.082.39a.706.706,0,0,1-.369.062l-4.758-.082h-6.46l-4.758.082q-.328,0-.39-.082a.706.706,0,0,1-.062-.369v-3.2A48.626,48.626,0,0,1,87.2-17.309a3.021,3.021,0,0,1-1,.39q-.287,0-.759-1.046a9.779,9.779,0,0,0-1.887-2.789q10.6-4.184,16.119-12.2a13.11,13.11,0,0,0,1.477-2.728,31.751,31.751,0,0,1,4.532.882q.759.185.759.574a.7.7,0,0,1-.41.677,3.383,3.383,0,0,0-.595.369A38.941,38.941,0,0,0,123.188-21.164ZM95.4-22.251q.738.082,4.614.082h6.46q3.609,0,4.532-.082a38.486,38.486,0,0,1-7.937-7.69A38.931,38.931,0,0,1,95.4-22.251ZM152.718-1.579a21.907,21.907,0,0,0,3.056.205,1.938,1.938,0,0,0,1.436-.39,1.981,1.981,0,0,0,.287-1.23V-20.3h-6.87l-4.614.082a.748.748,0,0,1-.451-.082.706.706,0,0,1-.062-.369l.082-3.65v-5.619l-.082-3.691q0-.349.1-.41a.827.827,0,0,1,.41-.062l4.614.082h6.152l4.676-.082q.328,0,.39.082a.766.766,0,0,1,.062.39l-.082,5.742V-9.885l.164,7.67a8.22,8.22,0,0,1-.287,2.5,3.105,3.105,0,0,1-.923,1.374,4.284,4.284,0,0,1-2.051.9,20.057,20.057,0,0,1-3.507.226q-1.025,0-1.21-.205a2.418,2.418,0,0,1-.328-1.087A10.822,10.822,0,0,0,152.718-1.579Zm4.778-21.7v-2.44h-7.813v2.44Zm0-7.629h-7.813v2.379H157.5Zm-19.564-3.117,4.225-.082q.431,0,.431.472l-.082,4.02v4.942l.082,4q0,.451-.431.451l-4.225-.082h-6.891V-6.275l.082,9.064q0,.349-.082.41a.706.706,0,0,1-.369.062h-3.589a.616.616,0,0,1-.379-.072.667.667,0,0,1-.072-.4l.082-9.064V-24.507l-.082-9.126q0-.349.082-.41a.765.765,0,0,1,.39-.062l4.983.082Zm.451,10.746v-2.44h-7.342v2.44Zm0-7.629h-7.342v2.379h7.342ZM133.359-.041a9.861,9.861,0,0,0,4.491-6.173l.082-.759q-2.03.021-3.548.062-.1,0-.779.021h-.246q-.328,0-.41-.1a.765.765,0,0,1-.062-.39V-9.926q0-.328.082-.39a.765.765,0,0,1,.39-.062l4.778.082q.082-2.092.082-3.814-1.559.021-2.83.062l-.861.021q-.369,0-.431-.082a.558.558,0,0,1-.082-.369v-2.563q0-.349.1-.41a.827.827,0,0,1,.41-.062l5.25.082h8.982l5.25-.082a.649.649,0,0,1,.41.082.765.765,0,0,1,.062.39v2.563q0,.328-.082.39a.765.765,0,0,1-.39.062q-.062,0-.513-.021-1.559-.041-3.343-.062v3.814l4.778-.082a.649.649,0,0,1,.41.082.706.706,0,0,1,.062.369v2.543a.724.724,0,0,1-.072.41q-.072.082-.4.082l-4.778-.082v3.9l.082,4.553a.7.7,0,0,1-.082.431.765.765,0,0,1-.39.062h-3.1q-.349,0-.41-.082a.827.827,0,0,1-.062-.41l.082-4.553v-3.9H141.87q-.144,1.169-.287,1.8A13.57,13.57,0,0,1,137.6,1.887q-.656.595-.8.595-.226,0-.964-.759A10.782,10.782,0,0,0,133.359-.041Zm8.777-10.254h4.143v-3.814h-4.061Q142.218-12.469,142.136-10.295Zm32.217-3.65a32.037,32.037,0,0,0,6.132-7.567,10.419,10.419,0,0,0,1.333-3.1,26.933,26.933,0,0,1,3.589,1.087q.677.246.677.595a.768.768,0,0,1-.472.656,9.851,9.851,0,0,0-1.6,2.276H190.1q.349-.636,1.046-2.235a11.116,11.116,0,0,0,.636-2.215,37.066,37.066,0,0,1,3.691.841q.677.185.677.492a.937.937,0,0,1-.431.677,2.546,2.546,0,0,0-.677,1A10.38,10.38,0,0,1,194.389-20h3.322l5.188-.082q.431,0,.431.451v2.666q0,.451-.431.451l-5.188-.082H194v2.646h2.4l5.086-.041q.451,0,.451.41v2.42a.724.724,0,0,1-.072.41q-.072.082-.379.082l-5.086-.082H194v2.707h2.4l5.086-.082q.328,0,.39.082a.706.706,0,0,1,.062.369v2.358a.78.78,0,0,1-.072.431q-.072.082-.379.082L196.4-4.881H194v2.789h4.122l5.332-.082q.328,0,.41.1a.765.765,0,0,1,.062.39v2.6q0,.369-.1.451a.641.641,0,0,1-.369.062l-5.332-.082H183.294V2.83q0,.328-.082.39a.706.706,0,0,1-.369.062h-3.117q-.328,0-.39-.082a.706.706,0,0,1-.062-.369l.082-4.245V-13.31l-1.641,1.8q-.615.677-.882.677t-.759-.923A8.544,8.544,0,0,0,174.353-13.945Zm8.941,11.854h6.768V-4.881h-6.768Zm0-5.947h6.768v-2.707h-6.768Zm0-5.906h6.768v-2.646h-6.768ZM173.061-35.314q2.584.7,3.958,1.21.636.246.636.636a1.1,1.1,0,0,1-.472.759,4.606,4.606,0,0,0-.8,1.682q-.943,2.563-2.133,5.25v22.21l.082,6.378q0,.472-.431.472h-3.486q-.328,0-.369-.082a1.107,1.107,0,0,1-.041-.39l.041-6.378v-9.7q0-3.4.041-5.25-1.271,1.825-2.44,3.261-.451.636-.759.636-.246,0-.431-.677a13.643,13.643,0,0,0-1.292-3.609,40.442,40.442,0,0,0,7.26-13.515A17.151,17.151,0,0,0,173.061-35.314Zm25.1,2.133q2.174.062,4.2.267.595.062.595.41a.728.728,0,0,1-.082.328q-.123.246-.144.308a5.167,5.167,0,0,0-.205,1.764v1.846l.1,2.933q0,.349-.1.41a.827.827,0,0,1-.41.062l-5.722-.082H184.5l-5.7.082q-.328,0-.39-.082a.765.765,0,0,1-.062-.39l.062-2.933v-1.8q0-1.395-.164-3.035,1.928.062,4.163.267.513.062.513.41a1.682,1.682,0,0,1-.226.759,4.266,4.266,0,0,0-.205,1.641v1.8h5.66v-2.687a25.884,25.884,0,0,0-.205-3.958q1.436.041,4.163.226.595.062.595.369a2.709,2.709,0,0,1-.267.759,9.8,9.8,0,0,0-.205,2.6v2.687h6.173v-1.846A18.247,18.247,0,0,0,198.162-33.182Z" transform="translate(144 420)" fill="#3c4a6e"/>
    <path id="パス_31990" data-name="パス 31990" d="M11.156-16.8V-6.211h2.016v2.766H11.156V0H7.781V-3.445H.457V-6.34Q1.43-7.43,2.473-8.725t2.016-2.666q.973-1.371,1.811-2.76A27.665,27.665,0,0,0,7.723-16.8ZM3.773-6.211H7.781v-5.871q-.41.762-.891,1.541T5.883-9.006q-.527.756-1.066,1.465T3.773-6.211Z" transform="translate(30 403)" fill="#3c4a6e"/>
    <path id="パス_31991" data-name="パス 31991" d="M8.646-13.3,2.162,2.208H-.455L6-13.3Z" transform="translate(48 403)" fill="#3c4a6e"/>
  </g>
</svg>
