<svg xmlns="http://www.w3.org/2000/svg" width="573" height="137" viewBox="0 0 573 137">
  <g id="mv-box" transform="translate(-122 -441)">
    <rect id="長方形_5743" data-name="長方形 5743" width="504" height="88" rx="10" transform="translate(191 468)" fill="#fff"/>
    <path id="パス_32001" data-name="パス 32001" d="M12.086-18.205V-6.729H14.27v3H12.086V0H8.43V-3.732H.5V-6.868Q1.549-8.049,2.679-9.452T4.862-12.34q1.054-1.485,1.961-2.99a29.971,29.971,0,0,0,1.542-2.875Zm-8,11.477H8.43v-6.36q-.444.825-.965,1.669T6.373-9.756Q5.8-8.937,5.218-8.169T4.088-6.729Z" transform="translate(274 518)" fill="#3c4a6e"/>
    <path id="パス_32002" data-name="パス 32002" d="M9.217-5.629H22.279V0H1.783V-2.32a10.8,10.8,0,0,1,.795-4.243,14.081,14.081,0,0,1,2-3.373,17.331,17.331,0,0,1,2.632-2.643q1.429-1.149,2.718-2.073,1.354-.967,2.374-1.848a13.528,13.528,0,0,0,1.719-1.751,6.657,6.657,0,0,0,1.042-1.762,5.239,5.239,0,0,0,.344-1.9A3.821,3.821,0,0,0,14.287-24.9a4.967,4.967,0,0,0-3.416-1.01,11.473,11.473,0,0,0-7.605,3.158v-5.973a16.326,16.326,0,0,1,9.066-2.6,13.39,13.39,0,0,1,4.2.612,8.886,8.886,0,0,1,3.147,1.751A7.468,7.468,0,0,1,21.646-26.2a9.317,9.317,0,0,1,.677,3.62,10.207,10.207,0,0,1-.655,3.781,11.619,11.619,0,0,1-1.74,3.008,15.786,15.786,0,0,1-2.5,2.481q-1.418,1.128-2.943,2.181-1.031.73-1.987,1.45a18.84,18.84,0,0,0-1.687,1.418A7.7,7.7,0,0,0,9.646-6.9,2.355,2.355,0,0,0,9.217-5.629Z" transform="translate(301 518)" fill="#3c4a6e"/>
    <path id="パス_32004" data-name="パス 32004" d="M2.514-1.01V-6.918A11.925,11.925,0,0,0,9.732-4.662a6.5,6.5,0,0,0,4.05-1.117,3.709,3.709,0,0,0,1.45-3.115,3.541,3.541,0,0,0-1.794-3.18,9.294,9.294,0,0,0-4.931-1.117H5.65v-5.2H8.293q6.016,0,6.016-4,0-3.76-4.619-3.76a10.531,10.531,0,0,0-6.016,2v-5.543a16.614,16.614,0,0,1,7.563-1.633q4.727,0,7.358,2.127a6.769,6.769,0,0,1,2.632,5.521q0,6.037-6.123,7.563v.107a8.324,8.324,0,0,1,5.156,2.374A6.694,6.694,0,0,1,22.15-8.809a8.266,8.266,0,0,1-3.158,6.832Q15.834.537,10.27.537A16.858,16.858,0,0,1,2.514-1.01Z" transform="translate(350 518)" fill="#3c4a6e"/>
    <text id="_" data-name="/" transform="translate(291 517)" fill="#3c4a6e" font-size="19" font-family="SegoeUI-Bold, Segoe UI" font-weight="700"><tspan x="0" y="0">/</tspan></text>
    <circle id="楕円形_280" data-name="楕円形 280" cx="10.5" cy="10.5" r="10.5" transform="translate(328 498)" fill="#3c4a6e"/>
    <circle id="楕円形_288" data-name="楕円形 288" cx="10.5" cy="10.5" r="10.5" transform="translate(376 498)" fill="#b90725"/>
    <path id="パス_32003" data-name="パス 32003" d="M2.646.4.9.431Q.759.431.759.28V-.889q0-.15.137-.15l1.75.027H6.1V-5.783H3.876l-1.914.027a.216.216,0,0,1-.137-.027A.235.235,0,0,1,1.8-5.906V-7.075q0-.109.034-.13a.214.214,0,0,1,.123-.021L3.876-7.2H6.1V-9.365A16.024,16.024,0,0,0,6-11.566q1.019.027,1.634.1.226.027.226.171a.881.881,0,0,1-.082.308,7.19,7.19,0,0,0-.089,1.6V-7.2h2.461l1.907-.027q.123,0,.144.027a.235.235,0,0,1,.021.123v1.169q0,.109-.027.13a.276.276,0,0,1-.137.021l-1.907-.027H7.684v4.771h3.685l1.75-.027q.137,0,.137.15V.28q0,.15-.137.15L11.368.4Z" transform="translate(332 514)" fill="#fff"/>
    <path id="パス_32005" data-name="パス 32005" d="M3.924.882H2.673A.205.205,0,0,1,2.546.858.205.205,0,0,1,2.522.731L2.55-4.252V-6.959l-.027-3.657a.232.232,0,0,1,.027-.144.255.255,0,0,1,.13-.021l1.928.027H9.413l1.935-.027q.109,0,.13.034a.255.255,0,0,1,.021.13l-.027,3.24v3.11L11.5.656q0,.116-.027.137a.235.235,0,0,1-.123.021H10.1q-.116,0-.137-.027a.255.255,0,0,1-.021-.13V-.027H4.074V.731q0,.109-.027.13A.235.235,0,0,1,3.924.882Zm.15-2.3H9.946V-4.8H4.074Zm0-7.95v3.192H9.946V-9.365Z" transform="translate(380 514)" fill="#fff"/>
    <rect id="長方形_5740" data-name="長方形 5740" width="123" height="17" rx="8.5" transform="translate(274 524)" fill="#3c4a6e"/>
    <path id="パス_32006" data-name="パス 32006" d="M6.369-4.605a7.453,7.453,0,0,1-.246,2,4.292,4.292,0,0,1-.718,1.491,3.17,3.17,0,0,1-1.151.935A3.527,3.527,0,0,1,2.713.146,4.379,4.379,0,0,1,.938-.182V-1.705a2.845,2.845,0,0,0,1.594.434,1.835,1.835,0,0,0,1.494-.65A2.9,2.9,0,0,0,4.57-3.8l-.035-.012a1.9,1.9,0,0,1-1.693.826,2.324,2.324,0,0,1-.952-.193,2.288,2.288,0,0,1-.756-.536,2.45,2.45,0,0,1-.5-.817A2.938,2.938,0,0,1,.457-5.578,3.238,3.238,0,0,1,.674-6.785a2.763,2.763,0,0,1,.606-.937,2.676,2.676,0,0,1,.935-.606,3.278,3.278,0,0,1,1.207-.214,2.763,2.763,0,0,1,1.23.267,2.585,2.585,0,0,1,.929.771A3.6,3.6,0,0,1,6.167-6.27,6.264,6.264,0,0,1,6.369-4.605ZM4.5-5.59A2.177,2.177,0,0,0,4.418-6.2a1.6,1.6,0,0,0-.229-.489,1.112,1.112,0,0,0-.357-.325.919.919,0,0,0-.463-.12.942.942,0,0,0-.442.105,1.079,1.079,0,0,0-.349.29,1.374,1.374,0,0,0-.229.442,1.826,1.826,0,0,0-.082.557,1.9,1.9,0,0,0,.082.583,1.245,1.245,0,0,0,.231.431.971.971,0,0,0,.36.267,1.173,1.173,0,0,0,.469.091,1.007,1.007,0,0,0,.445-.1A1.073,1.073,0,0,0,4.2-4.723a1.18,1.18,0,0,0,.223-.387A1.425,1.425,0,0,0,4.5-5.59ZM8.508-4.143a1.087,1.087,0,0,1-.762-.278.9.9,0,0,1-.3-.688A.871.871,0,0,1,7.755-5.8a1.158,1.158,0,0,1,.782-.27,1.114,1.114,0,0,1,.776.272.888.888,0,0,1,.3.688.884.884,0,0,1-.308.7A1.169,1.169,0,0,1,8.508-4.143Zm0,4.289a1.08,1.08,0,0,1-.762-.281.9.9,0,0,1-.3-.691.871.871,0,0,1,.313-.691,1.158,1.158,0,0,1,.782-.27,1.114,1.114,0,0,1,.776.272.888.888,0,0,1,.3.688.893.893,0,0,1-.308.7A1.161,1.161,0,0,1,8.508.146Zm5.051,0q-3,0-3-4.213A5.733,5.733,0,0,1,11.37-7.4a2.7,2.7,0,0,1,2.353-1.146q2.93,0,2.93,4.283a5.644,5.644,0,0,1-.8,3.27A2.635,2.635,0,0,1,13.559.146Zm.082-7.277q-1.2,0-1.2,3.018,0,2.842,1.178,2.842,1.148,0,1.148-2.93T13.641-7.131ZM20.461.146q-3,0-3-4.213A5.733,5.733,0,0,1,18.272-7.4a2.7,2.7,0,0,1,2.353-1.146q2.93,0,2.93,4.283a5.644,5.644,0,0,1-.8,3.27A2.635,2.635,0,0,1,20.461.146Zm.082-7.277q-1.2,0-1.2,3.018,0,2.842,1.178,2.842,1.148,0,1.148-2.93T20.543-7.131Zm23.6-1.459V0H42.3V-6.5a2.21,2.21,0,0,1-.36.255,3.72,3.72,0,0,1-.442.217,3.95,3.95,0,0,1-.486.164,3.552,3.552,0,0,1-.5.1V-7.33a7.7,7.7,0,0,0,1.359-.539,7.736,7.736,0,0,0,1.154-.721ZM46.857-.275V-1.887a3.252,3.252,0,0,0,1.969.615,1.772,1.772,0,0,0,1.1-.3,1.012,1.012,0,0,0,.4-.85.966.966,0,0,0-.489-.867,2.535,2.535,0,0,0-1.345-.3h-.779V-5.016h.721q1.641,0,1.641-1.09,0-1.025-1.26-1.025a2.872,2.872,0,0,0-1.641.545V-8.1a4.531,4.531,0,0,1,2.063-.445,3.113,3.113,0,0,1,2.007.58,1.846,1.846,0,0,1,.718,1.506,1.958,1.958,0,0,1-1.67,2.063v.029a2.27,2.27,0,0,1,1.406.647A1.826,1.826,0,0,1,52.213-2.4a2.254,2.254,0,0,1-.861,1.863,3.724,3.724,0,0,1-2.379.686A4.6,4.6,0,0,1,46.857-.275ZM54.68-4.143a1.087,1.087,0,0,1-.762-.278.9.9,0,0,1-.3-.688.871.871,0,0,1,.313-.691,1.158,1.158,0,0,1,.782-.27,1.114,1.114,0,0,1,.776.272.888.888,0,0,1,.3.688.884.884,0,0,1-.308.7A1.169,1.169,0,0,1,54.68-4.143Zm0,4.289a1.08,1.08,0,0,1-.762-.281.9.9,0,0,1-.3-.691.871.871,0,0,1,.313-.691,1.158,1.158,0,0,1,.782-.27,1.114,1.114,0,0,1,.776.272.888.888,0,0,1,.3.688.893.893,0,0,1-.308.7A1.161,1.161,0,0,1,54.68.146Zm5.051,0q-3,0-3-4.213A5.733,5.733,0,0,1,57.542-7.4a2.7,2.7,0,0,1,2.353-1.146q2.93,0,2.93,4.283a5.644,5.644,0,0,1-.8,3.27A2.635,2.635,0,0,1,59.73.146Zm.082-7.277q-1.2,0-1.2,3.018,0,2.842,1.178,2.842,1.148,0,1.148-2.93T59.813-7.131ZM66.633.146q-3,0-3-4.213A5.733,5.733,0,0,1,64.444-7.4,2.7,2.7,0,0,1,66.8-8.543q2.93,0,2.93,4.283a5.644,5.644,0,0,1-.8,3.27A2.635,2.635,0,0,1,66.633.146Zm.082-7.277q-1.2,0-1.2,3.018,0,2.842,1.178,2.842,1.148,0,1.148-2.93T66.715-7.131Z" transform="translate(302 537)" fill="#fff"/>
    <path id="パス_32008" data-name="パス 32008" d="M12.441-5.277a2.878,2.878,0,0,1-.612,1.818,1.905,1.905,0,0,1-1.528.67,3.707,3.707,0,0,1-1.764-.6,2.623,2.623,0,0,0-1.066-.431q-.841,0-.882,1.094H5.2a2.889,2.889,0,0,1,.612-1.825,1.936,1.936,0,0,1,1.555-.67,3.173,3.173,0,0,1,1.627.52,3.113,3.113,0,0,0,1.23.533.7.7,0,0,0,.584-.3,1.367,1.367,0,0,0,.243-.8Z" transform="translate(327 536)" fill="#fff"/>
    <circle id="楕円形_284" data-name="楕円形 284" cx="68.5" cy="68.5" r="68.5" transform="translate(122 441)" fill="#802"/>
    <path id="パス_32000" data-name="パス 32000" d="M-14.372,0h-4.935l-8.946-13.638a19.722,19.722,0,0,1-1.09-1.8H-29.4q.121,1.15.121,3.512V0H-33.9V-21.706h5.268l8.613,13.214q.59.893,1.09,1.771h.061A23.208,23.208,0,0,1-18.989-9.7v-12h4.617ZM3.61,0H-9.407V-21.706H3.111v3.981H-4.518V-12.9h7.1v3.966h-7.1v4.965H3.61Zm32.5-21.706L30.372,0H24.953l-3.6-13.926A11.611,11.611,0,0,1,21-16.363h-.061a14.806,14.806,0,0,1-.394,2.437L16.855,0H11.209L5.5-21.706h5.343L13.9-7.25a17.256,17.256,0,0,1,.288,2.482h.091a12.016,12.016,0,0,1,.439-2.543l3.936-14.4h5.237L27.45-7.129A17.849,17.849,0,0,1,27.8-4.8h.061a15.628,15.628,0,0,1,.318-2.422l3-14.486ZM-30.115,28.378a10.1,10.1,0,0,1-7.6-3.035,10.9,10.9,0,0,1-2.937-7.909,11.675,11.675,0,0,1,2.982-8.325,10.324,10.324,0,0,1,7.9-3.179,9.852,9.852,0,0,1,7.515,3.042A11.217,11.217,0,0,1-19.383,17a11.488,11.488,0,0,1-2.974,8.25A10.209,10.209,0,0,1-30.115,28.378Zm.212-18.24a4.922,4.922,0,0,0-4.087,1.93A8.047,8.047,0,0,0-35.5,17.177a7.9,7.9,0,0,0,1.514,5.1,4.85,4.85,0,0,0,3.966,1.877,4.9,4.9,0,0,0,4.011-1.824,7.812,7.812,0,0,0,1.483-5.063,8.465,8.465,0,0,0-1.438-5.252A4.688,4.688,0,0,0-29.9,10.139Zm19.012,10.384V28H-15.78V6.294h7.659q8.2,0,8.2,6.917A6.637,6.637,0,0,1-2.271,18.5,9.325,9.325,0,0,1-8.56,20.522Zm0-10.475v6.766h1.922q3.905,0,3.905-3.421,0-3.345-3.905-3.345ZM16.28,28H3.262V6.294H15.78v3.981H8.151V15.1h7.1v3.966h-7.1v4.965H16.28Zm23.008,0H34.353L25.407,14.362a19.722,19.722,0,0,1-1.09-1.8h-.061q.121,1.15.121,3.512V28H19.761V6.294h5.268l8.613,13.214q.59.893,1.09,1.771h.061a23.208,23.208,0,0,1-.121-2.982v-12h4.617Z" transform="translate(191 528)" fill="#fff"/>
    <path id="パス_32007" data-name="パス 32007" d="M37.893-3.115q3.455.227,5.381.227a6.8,6.8,0,0,0,.708-.028,2.817,2.817,0,0,0,1.9-.51A2,2,0,0,0,46.3-4.871v-9.855a16.432,16.432,0,0,0-2.889,3.653q-.793,1.218-1.161,1.218a3.133,3.133,0,0,1-1.3-.708A36.058,36.058,0,0,1,29.2-24.865l-.2.453A33.746,33.746,0,0,1,24.214-16.2a34.313,34.313,0,0,1-7.108,6.4,2.73,2.73,0,0,1-1.274.765q-.34,0-1.1-1.161a15.47,15.47,0,0,0-2.775-3.37v8.071l.113,8.411q0,.4-.142.481a1.057,1.057,0,0,1-.538.085H6.315q-.623,0-.623-.566L5.806-6.2V-28.66l-.113-9.147q0-.481.113-.566a1.057,1.057,0,0,1,.538-.085l7.816.113H25.517q.142-2.662.142-4.163a45.308,45.308,0,0,0-.368-6.23q2.294.085,6.372.425.878.085.878.68a4.467,4.467,0,0,1-.34,1.218,26.36,26.36,0,0,0-.283,4.248q0,1.274-.113,3.823H44.151l7.788-.113q.453,0,.538.113a1.057,1.057,0,0,1,.085.538l-.113,9.516v15.123l.142,9.176q0,.51,0,.935,0,3.37-1.869,4.814-1.954,1.5-9.006,1.5a2.665,2.665,0,0,1-1.643-.312,3.3,3.3,0,0,1-.566-1.558A13.726,13.726,0,0,0,37.893-3.115ZM46.3-15.066v-17.7H31.436A31.848,31.848,0,0,0,37.808-21.58,36.307,36.307,0,0,0,46.3-15.066Zm-23.024-11.1a29.775,29.775,0,0,0,1.784-6.6H11.951V-14.16Q20.107-18.748,23.279-26.168ZM105.4-6.429A11.541,11.541,0,0,0,109.333-4.7q1.388.368,1.388,1.076a8.755,8.755,0,0,1-.113,1.02,10.249,10.249,0,0,1-1.02,3.483,5.8,5.8,0,0,1-1.529,1.614Q105.907,4.05,98.317,4.05q-7.873,0-9.94-.878-2.124-.793-2.124-3.738V-4.758H81.268a14.877,14.877,0,0,1-7.76,7.222A34.062,34.062,0,0,1,63.2,4.645q-.68.057-.963.057a1.156,1.156,0,0,1-.935-.368,7.823,7.823,0,0,1-.651-1.274A13.38,13.38,0,0,0,58.527-.227a44.894,44.894,0,0,0,10.11-1.133,10.761,10.761,0,0,0,5.777-3.4l-7.59.113q-.481,0-.566-.142a1.142,1.142,0,0,1-.085-.566l.113-5.154v-8.354l-.113-5.211q0-.453.113-.538a1.057,1.057,0,0,1,.538-.085l7.986.113h18.8l7.93-.113a1.033,1.033,0,0,1,.623.113.976.976,0,0,1,.085.51l-.113,5.211v8.354l.113,5.154a1.077,1.077,0,0,1-.1.595q-.1.113-.609.113l-7.93-.113H92.4v2.039q0,1.359,1.1,1.558a42.232,42.232,0,0,0,4.758.17q4.5,0,5.721-.765a2.169,2.169,0,0,0,1.076-1.388A16.242,16.242,0,0,0,105.4-6.429ZM96.5-8.241v-2.266H71.866v2.266Zm0-12.744H71.866V-18.8H96.5ZM71.866-13.509H96.5v-2.209H71.866Zm6.259-16.822,5.579-.113a.9.9,0,0,1,.566.113.975.975,0,0,1,.085.51v2.69q0,.453-.142.538a.885.885,0,0,1-.51.085l-5.579-.113H68.637l-7.533.113q-.481,0-.566-.113a.975.975,0,0,1-.085-.51l.113-5.692v-7.5l-.113-5.749q0-.453.113-.538A1.057,1.057,0,0,1,61.1-46.7l7.533.113h8.354l6.542-.113q.453,0,.538.113a.975.975,0,0,1,.085.51v2.747q0,.453-.113.538a.885.885,0,0,1-.51.085l-6.542-.113h-.708v2.266l5.438-.057q.595,0,.595.623L82.2-37.383v1.614l.113,2.605q0,.623-.595.623L76.284-32.6v2.266Zm-1.133-5.1v-2.294H65.833v2.294ZM65.833-42.82v2.266h5.579V-42.82Zm0,12.489h5.579V-32.6H65.833ZM82.6-36.562a31.547,31.547,0,0,0,7.023-8.864,12.139,12.139,0,0,0,1.218-3.257q1.1.255,4.673,1.161,1.048.283,1.048.821a1.4,1.4,0,0,1-.51.878,6.8,6.8,0,0,0-1.331,2.011l-.34.708h7.307l7.363-.113q.51,0,.595.113a.976.976,0,0,1,.085.51v3.767a1.033,1.033,0,0,1-.113.623,1.142,1.142,0,0,1-.566.085l-7.363-.113H91.35a35.774,35.774,0,0,1-3.71,4.163q-1.02.935-1.274.935-.453,0-1.274-1.161A8.835,8.835,0,0,0,82.6-36.562Zm18.663,8.128H94.947l-5.636.113q-.453,0-.538-.113a.975.975,0,0,1-.085-.51v-3.852q0-.453.113-.538a.975.975,0,0,1,.51-.085l5.636.113h6.315l5.636-.113a.9.9,0,0,1,.566.113.975.975,0,0,1,.085.51v3.852q0,.453-.142.538a.885.885,0,0,1-.51.085Zm22.7,13.99-7.675.113a.963.963,0,0,1-.595-.113.975.975,0,0,1-.085-.51v-4.361q0-.453.113-.538a1.142,1.142,0,0,1,.566-.085l7.675.113h30.9l7.675-.113a.963.963,0,0,1,.595.113.976.976,0,0,1,.085.51v4.361a.851.851,0,0,1-.1.524,1,1,0,0,1-.581.1l-7.675-.113h-17.9a110.546,110.546,0,0,1-5.183,10.9q9.063-.51,17.87-1.444-2.662-3.257-4.22-4.928a.8.8,0,0,1-.255-.481q0-.283.595-.566l3.71-1.926a1.394,1.394,0,0,1,.623-.227.932.932,0,0,1,.595.34A106.964,106.964,0,0,1,161.488.708a.9.9,0,0,1,.2.481q0,.283-.481.595l-4.021,2.634a1.752,1.752,0,0,1-.68.34q-.227,0-.481-.4-1.161-1.954-2.889-4.531Q141.89,1.246,121.811,2.775a4.717,4.717,0,0,0-2.1.538,1.54,1.54,0,0,1-.991.34q-.623,0-.793-.821a60.738,60.738,0,0,1-1.218-5.976q1.331.113,2.8.113,1.416,0,3.512-.113L124.9-3.2A97.5,97.5,0,0,0,130-14.443Zm42.905-14.783a18.2,18.2,0,0,0-2.492,4.333q-.566,1.444-.991,1.444a4.538,4.538,0,0,1-1.331-.453,65.422,65.422,0,0,1-11.073-6.146v4.3q0,.453-.113.538a.975.975,0,0,1-.51.085l-6.57-.113h-8.921l-6.57.113q-.453,0-.538-.113a.975.975,0,0,1-.085-.51v-4.418A67.15,67.15,0,0,1,117.167-23.9a4.172,4.172,0,0,1-1.388.538q-.4,0-1.048-1.444a13.5,13.5,0,0,0-2.605-3.852q14.642-5.777,22.26-16.851a18.1,18.1,0,0,0,2.039-3.767,43.846,43.846,0,0,1,6.259,1.218q1.048.255,1.048.793a.969.969,0,0,1-.566.935,4.672,4.672,0,0,0-.821.51Q151.548-34.579,166.869-29.227Zm-38.374-1.5q1.02.113,6.372.113h8.921q4.984,0,6.259-.113a53.148,53.148,0,0,1-10.96-10.62A53.762,53.762,0,0,1,128.495-30.728Zm77.53,28.547a30.253,30.253,0,0,0,4.22.283,2.677,2.677,0,0,0,1.982-.538,2.735,2.735,0,0,0,.4-1.7v-23.9h-9.487l-6.372.113a1.033,1.033,0,0,1-.623-.113.975.975,0,0,1-.085-.51l.113-5.041v-7.76l-.113-5.1q0-.481.142-.566a1.142,1.142,0,0,1,.566-.085l6.372.113h8.5l6.457-.113q.453,0,.538.113a1.057,1.057,0,0,1,.085.538l-.113,7.93V-13.65l.227,10.592a11.351,11.351,0,0,1-.4,3.455,4.288,4.288,0,0,1-1.274,1.9,5.916,5.916,0,0,1-2.832,1.246,27.7,27.7,0,0,1-4.843.312q-1.416,0-1.671-.283a3.339,3.339,0,0,1-.453-1.5A14.944,14.944,0,0,0,206.025-2.181Zm6.6-29.963v-3.37h-10.79v3.37Zm0-10.535h-10.79v3.285h10.79Zm-27.018-4.3,5.834-.113q.595,0,.595.651l-.113,5.551v6.825l.113,5.522q0,.623-.595.623l-5.834-.113H176.09V-8.666L176.2,3.852q0,.481-.113.566a.975.975,0,0,1-.51.085h-4.956a.851.851,0,0,1-.524-.1.921.921,0,0,1-.1-.552l.113-12.518V-33.843L170-46.445q0-.481.113-.566a1.057,1.057,0,0,1,.538-.085l6.882.113Zm.623,14.84v-3.37H176.09v3.37Zm0-10.535H176.09v3.285h10.139ZM179.29-.057a13.618,13.618,0,0,0,6.2-8.524l.113-1.048q-2.8.028-4.9.085-.142,0-1.076.028h-.34q-.453,0-.566-.142a1.057,1.057,0,0,1-.085-.538v-3.512q0-.453.113-.538a1.057,1.057,0,0,1,.538-.085l6.6.113q.113-2.889.113-5.268-2.152.028-3.908.085l-1.189.028q-.51,0-.595-.113a.771.771,0,0,1-.113-.51v-3.54q0-.481.142-.566a1.142,1.142,0,0,1,.566-.085l7.25.113h12.4l7.25-.113a.9.9,0,0,1,.566.113,1.057,1.057,0,0,1,.085.538v3.54q0,.453-.113.538a1.057,1.057,0,0,1-.538.085q-.085,0-.708-.028-2.152-.057-4.616-.085v5.268l6.6-.113a.9.9,0,0,1,.566.113.975.975,0,0,1,.085.51V-10.2a1,1,0,0,1-.1.566q-.1.113-.552.113l-6.6-.113v5.381l.113,6.287a.963.963,0,0,1-.113.595,1.057,1.057,0,0,1-.538.085H197.67q-.481,0-.566-.113a1.142,1.142,0,0,1-.085-.566l.113-6.287V-9.629h-6.089q-.2,1.614-.4,2.492a18.74,18.74,0,0,1-5.494,9.742q-.906.821-1.1.821-.312,0-1.331-1.048A14.89,14.89,0,0,0,179.29-.057Zm12.121-14.16h5.721v-5.268h-5.607Q191.525-17.219,191.411-14.217Zm42.866-5.041a44.241,44.241,0,0,0,8.468-10.45,14.388,14.388,0,0,0,1.841-4.276,37.193,37.193,0,0,1,4.956,1.5q.935.34.935.821a1.06,1.06,0,0,1-.651.906,13.6,13.6,0,0,0-2.209,3.144h8.411q.481-.878,1.444-3.087a15.352,15.352,0,0,0,.878-3.059,51.185,51.185,0,0,1,5.1,1.161q.935.255.935.68a1.294,1.294,0,0,1-.595.935,3.517,3.517,0,0,0-.935,1.388,14.334,14.334,0,0,1-.906,1.982h4.588l7.165-.113q.595,0,.595.623v3.682q0,.623-.595.623l-7.165-.113h-5.126v3.653h3.313l7.023-.057q.623,0,.623.566v3.342a1,1,0,0,1-.1.566q-.1.113-.524.113l-7.023-.113h-3.313V-11.1h3.313l7.023-.113q.453,0,.538.113a.975.975,0,0,1,.085.51v3.257a1.077,1.077,0,0,1-.1.595q-.1.113-.524.113l-7.023-.113h-3.313v3.852H267.1L274.463-3q.453,0,.566.142a1.057,1.057,0,0,1,.085.538v3.6q0,.51-.142.623a.885.885,0,0,1-.51.085L267.1,1.869H246.625V3.908q0,.453-.113.538a.975.975,0,0,1-.51.085h-4.3q-.453,0-.538-.113a.975.975,0,0,1-.085-.51l.113-5.862V-18.38l-2.266,2.492q-.85.935-1.218.935t-1.048-1.274A11.8,11.8,0,0,0,234.277-19.258ZM246.625-2.889h9.346V-6.74h-9.346Zm0-8.213h9.346V-14.84h-9.346Zm0-8.156h9.346v-3.653h-9.346Zm-14.132-29.51q3.568.963,5.466,1.671.878.34.878.878a1.522,1.522,0,0,1-.651,1.048,6.361,6.361,0,0,0-1.1,2.322q-1.3,3.54-2.945,7.25V-4.928l.113,8.808q0,.651-.595.651h-4.814q-.453,0-.51-.113a1.529,1.529,0,0,1-.057-.538l.057-8.808v-13.4q0-4.7.057-7.25-1.756,2.521-3.37,4.5-.623.878-1.048.878-.34,0-.595-.935a18.841,18.841,0,0,0-1.784-4.984,55.849,55.849,0,0,0,10.025-18.663A23.685,23.685,0,0,0,232.493-48.768Zm34.664,2.945q3,.085,5.806.368.821.085.821.566a1,1,0,0,1-.113.453q-.17.34-.2.425a7.135,7.135,0,0,0-.283,2.436v2.549l.142,4.05q0,.481-.142.566a1.142,1.142,0,0,1-.566.085l-7.9-.113H248.3l-7.873.113q-.453,0-.538-.113a1.057,1.057,0,0,1-.085-.538l.085-4.05v-2.492q0-1.926-.227-4.191,2.662.085,5.749.368.708.085.708.566a2.322,2.322,0,0,1-.312,1.048,5.891,5.891,0,0,0-.283,2.266v2.492h7.816v-3.71a35.745,35.745,0,0,0-.283-5.466q1.982.057,5.749.312.821.085.821.51a3.74,3.74,0,0,1-.368,1.048,13.534,13.534,0,0,0-.283,3.6v3.71H267.5v-2.549A25.2,25.2,0,0,0,267.157-45.822Z" transform="translate(402 534)" fill="#3c4a6e"/>
    <path id="パス_31997" data-name="パス 31997" d="M11.621-17.5V-6.47h2.1v2.881h-2.1V0H8.105V-3.589H.476V-6.6q1.013-1.135,2.1-2.484t2.1-2.777q1.013-1.428,1.886-2.875A28.818,28.818,0,0,0,8.044-17.5ZM3.931-6.47H8.105v-6.116q-.427.793-.928,1.605t-1.05,1.6q-.549.787-1.111,1.526T3.931-6.47Z" transform="translate(149 492)" fill="#fff"/>
    <path id="パス_31996" data-name="パス 31996" d="M21.848-32.909v20.746h3.947v5.416H21.848V0H15.238V-6.747H.9v-5.668q1.9-2.134,3.947-4.67T8.79-22.307q1.9-2.685,3.546-5.4a54.177,54.177,0,0,0,2.788-5.2ZM7.39-12.163h7.849v-11.5q-.8,1.492-1.744,3.018t-1.974,3.006q-1.033,1.48-2.088,2.869T7.39-12.163Z" transform="translate(181 492)" fill="#fff"/>
    <path id="パス_31998" data-name="パス 31998" d="M8.646-13.3,2.162,2.208H-.455L6-13.3Z" transform="translate(169 492)" fill="#fff"/>
    <ellipse id="楕円形_281" data-name="楕円形 281" cx="11.5" cy="11" rx="11.5" ry="11" transform="translate(213 472)" fill="#fff"/>
    <path id="パス_31999" data-name="パス 31999" d="M7.465-.629q.738.068,1.593.068a.435.435,0,0,0,.492-.492V-3.5h-5A7.891,7.891,0,0,1,3.808-.95,9.143,9.143,0,0,1,2.536.841q-.219.239-.294.239-.1,0-.328-.226A2.958,2.958,0,0,0,.909.2,7.822,7.822,0,0,0,2.331-1.483a5.98,5.98,0,0,0,.7-2.119A22.608,22.608,0,0,0,3.22-6.966V-9.03l-.027-1.9a.249.249,0,0,1,.027-.15.235.235,0,0,1,.123-.021l1.866.027H9.1l1.846-.027q.116,0,.137.034a.276.276,0,0,1,.021.137l-.027,1.9v5.5l.041,2.8A1.742,1.742,0,0,1,10.671.574a1.5,1.5,0,0,1-.813.335A11.473,11.473,0,0,1,8.347.978.777.777,0,0,1,7.93.916a.792.792,0,0,1-.1-.369A3.4,3.4,0,0,0,7.465-.629ZM4.689-4.86H9.55V-6.631H4.744Q4.717-5.435,4.689-4.86ZM9.55-9.687H4.744v1.7H9.55Z" transform="translate(218 488)" fill="#802"/>
  </g>
</svg>
