<svg xmlns="http://www.w3.org/2000/svg" width="132" height="358" viewBox="0 0 132 358">
  <g id="mv-ttl" transform="translate(-980 -155)">
    <rect id="長方形_5755" data-name="長方形 5755" width="40" height="326" transform="translate(1072 155)" fill="#fff" opacity="0.76"/>
    <rect id="長方形_5756" data-name="長方形 5756" width="40" height="326" transform="translate(1026 155)" fill="#fff" opacity="0.76"/>
    <rect id="長方形_5757" data-name="長方形 5757" width="40" height="358" transform="translate(980 155)" fill="#fff" opacity="0.76"/>
    <path id="パス_31996" data-name="パス 31996" d="M9.807,21.144c0,1.428-.735,2.142-2.268,2.142-2,0-3.15-.63-3.15-1.785,0-1.134,1.218-1.869,3.36-1.869a9.448,9.448,0,0,1,2.037.21C9.786,20.367,9.807,20.808,9.807,21.144Zm1.407-7.854c1.7-.042,4.368-.168,6.216-.336l-.063-1.6c-1.869.252-4.494.357-6.153.4,0-.819-.021-1.554,0-2.121a18.115,18.115,0,0,1,.168-2.058H9.366a15.242,15.242,0,0,1,.168,2.058c.021.882.021,2.6.021,3.8,0,1.239.084,3.15.168,4.83a12.458,12.458,0,0,0-1.764-.126c-3.591,0-5.229,1.554-5.229,3.423,0,2.373,2.121,3.3,4.977,3.3,2.772,0,3.822-1.47,3.822-3.171,0-.378-.021-.84-.042-1.386a14.533,14.533,0,0,1,5.4,3.423l1.008-1.554a16.5,16.5,0,0,0-6.468-3.549c-.105-1.806-.21-3.822-.21-5.187Zm1.974,27.889a9.655,9.655,0,0,1-1.2,1.386c-1.407,1.428-4.557,3.906-6.111,5.229-1.89,1.575-2.1,2.52-.147,4.158,1.953,1.6,5.418,4.557,6.552,5.775.441.483,1.008,1.008,1.428,1.512l1.512-1.365c-2.037-2.016-5.88-5.208-7.77-6.72-1.344-1.113-1.344-1.428-.084-2.52,1.533-1.26,4.515-3.654,5.964-4.893.336-.294.966-.84,1.428-1.176ZM8.064,76.5V78.14h-4.6V76.5ZM3.465,81V79.232h4.6V81Zm6.069,1.155V75.326h-7.6V93.617H3.465V82.151ZM12.7,85.742H8.19v-1.26H12.7Zm-4.515,3.3H12.7v1.3c-1.554.1-3.108.189-4.515.273Zm4.515-.987H8.19V86.729H12.7Zm2.982-3.57V83.327H5.25v1.155H6.8v6.195c-.672.042-1.281.063-1.827.084l.105,1.26c2.037-.126,4.809-.315,7.623-.525v1.617h1.407V84.482Zm-2.814-3.465V79.232H17.64v1.785ZM17.64,76.5V78.14H12.873V76.5Zm1.533-1.176H11.382v6.846H17.64V91.58c0,.336-.105.441-.42.441-.315.021-1.386.021-2.541-.021a5.092,5.092,0,0,1,.483,1.554,9.262,9.262,0,0,0,3.192-.273c.63-.273.819-.777.819-1.7ZM4.431,120.372a9.39,9.39,0,0,0-.483,2.6c0,2.6,2.184,3.885,5.9,3.885a32.21,32.21,0,0,0,5.019-.4l.042-1.7a24.976,24.976,0,0,1-5.124.483c-2.961,0-4.221-1.008-4.221-2.6a7.113,7.113,0,0,1,.483-2.121Zm13.251-5.691a21.686,21.686,0,0,1-3.843,1.029c-.357-.777-.651-1.428-.819-1.869l-.378-.861a28.725,28.725,0,0,0,3.864-.882l-.294-1.491a23.409,23.409,0,0,1-4.137.987,21.36,21.36,0,0,1-.777-2.31l-1.89.4a14.989,14.989,0,0,1,.777,1.47c.084.189.168.4.273.63a37.815,37.815,0,0,1-6.8-.168l.1,1.533a42.643,42.643,0,0,0,7.308.042c.147.336.294.714.462,1.071l.735,1.7A41.516,41.516,0,0,1,3.528,116l.063,1.533a49.994,49.994,0,0,0,9.3-.189c.483,1.092.966,2.184,1.365,3-.651-.063-1.638-.168-2.646-.294l-.147,1.281c1.323.168,3,.4,4.053.588l.819-1.029c-.588-1.092-1.26-2.5-1.869-3.822A27.7,27.7,0,0,0,18,116.193ZM7.161,159.958a39.417,39.417,0,0,0-4.7-4.662l-1.365,1.2a33.786,33.786,0,0,1,4.641,4.683Zm2.646,31.186c0,1.428-.735,2.142-2.268,2.142-2,0-3.15-.63-3.15-1.785,0-1.134,1.218-1.869,3.36-1.869a9.449,9.449,0,0,1,2.037.21C9.786,190.367,9.807,190.808,9.807,191.144Zm1.407-7.854c1.7-.042,4.368-.168,6.216-.336l-.063-1.6c-1.869.252-4.494.357-6.153.4,0-.819-.021-1.554,0-2.121a18.115,18.115,0,0,1,.168-2.058H9.366a15.242,15.242,0,0,1,.168,2.058c.021.882.021,2.6.021,3.8,0,1.239.084,3.15.168,4.83a12.458,12.458,0,0,0-1.764-.126c-3.591,0-5.229,1.554-5.229,3.423,0,2.373,2.121,3.3,4.977,3.3,2.772,0,3.822-1.47,3.822-3.171,0-.378-.021-.84-.042-1.386a14.532,14.532,0,0,1,5.4,3.423l1.008-1.554a16.5,16.5,0,0,0-6.468-3.549c-.105-1.806-.21-3.822-.21-5.187Zm1.974,27.889a9.654,9.654,0,0,1-1.2,1.386c-1.407,1.428-4.557,3.906-6.111,5.229-1.89,1.575-2.1,2.52-.147,4.158,1.953,1.6,5.418,4.557,6.552,5.775.441.483,1.008,1.008,1.428,1.512l1.512-1.365c-2.037-2.016-5.88-5.208-7.77-6.72-1.344-1.113-1.344-1.428-.084-2.52,1.533-1.26,4.515-3.654,5.964-4.893.336-.294.966-.84,1.428-1.176ZM7.9,245.158H1.932v1.26H7.9Zm.714,2.751H.882v1.281H8.61Zm-.672,2.835H1.848v1.239h6.09Zm-6.09,4.032h6.09v-1.26H1.848Zm4.767,2.835v3.528H3.192v-3.528Zm1.344-1.281H1.827v7.035H3.192V262.4H7.959Zm10.206-.336c-1.785,3-5.271,5.229-9.471,6.342a7.721,7.721,0,0,1,.966,1.3c4.368-1.3,7.938-3.7,9.891-7.035ZM14.49,249.82a14.985,14.985,0,0,1-4.977,3.843,6.57,6.57,0,0,1,1.05.945,16.585,16.585,0,0,0,5.292-4.263Zm1.743,3.045a15.627,15.627,0,0,1-6.573,4.7,9.7,9.7,0,0,1,1.008,1.092,17.924,17.924,0,0,0,6.951-5.208Zm-2.982-8.4a15.331,15.331,0,0,1-5.418,6.027,8.138,8.138,0,0,1,.8,1.281,17.424,17.424,0,0,0,5.439-5.838,19.181,19.181,0,0,0,5.5,5.691,10.243,10.243,0,0,1,.861-1.386,16.309,16.309,0,0,1-5.691-5.775Zm-2.772,50.842c-1.554,0-2.751-.588-2.751-1.617,0-.714.714-1.281,1.659-1.281a2.777,2.777,0,0,1,2.751,2.772A10.242,10.242,0,0,1,10.479,295.307Zm4.284-15.1a7.45,7.45,0,0,1-1.134.168c-1.092.1-6.027.252-7.1.252a11.81,11.81,0,0,1-1.47-.063l.042,1.743a10.009,10.009,0,0,1,1.407-.126c1.071-.063,5.166-.252,6.258-.294C11.739,282.812,9.156,285,8,285.962c-1.218,1.008-3.885,3.234-5.607,4.662l1.218,1.239c2.646-2.688,4.536-4.137,7.959-4.137,2.625,0,4.683,1.491,4.683,3.528a3.627,3.627,0,0,1-2.583,3.528,4.106,4.106,0,0,0-4.284-3.675,2.955,2.955,0,0,0-3.213,2.73c0,1.722,1.743,2.982,4.578,2.982,4.389,0,7.182-2.184,7.182-5.544,0-2.814-2.5-4.914-5.964-4.914a8.837,8.837,0,0,0-2.814.441c1.6-1.344,4.389-3.8,5.418-4.578.315-.231.777-.546,1.155-.8Z" transform="translate(1080 166)" fill="#802"/>
    <path id="パス_31997" data-name="パス 31997" d="M5.1,12.933H7.56V11.442H5.1V6.675H3.633v4.767H.945v1.491H3.633V19.59c-1.092.462-2.1.861-2.877,1.134l.609,1.554c1.848-.819,4.221-1.848,6.447-2.9L7.5,17.994C6.678,18.309,5.88,18.666,5.1,19Zm7.035,10.794c-1.365,0-1.638-.273-1.638-1.386V15.075l2.814-1.2v7.077h1.491V13.248l2.919-1.239c0,3.339-.042,5.67-.147,6.174-.1.462-.315.546-.63.546-.231,0-.9,0-1.407-.021a4.535,4.535,0,0,1,.378,1.344,8.937,8.937,0,0,0,1.974-.147,1.422,1.422,0,0,0,1.113-1.386,74.577,74.577,0,0,0,.21-7.854l.084-.294-1.092-.42-.294.231-.336.294-2.772,1.176V6.423H13.314v5.838l-2.814,1.2V8.376H9.009v5.712l-2.268.966L7.35,16.4,9.009,15.7V22.32c0,2.247.714,2.814,3.087,2.814h5.145c2.2,0,2.688-.924,2.94-3.78a3.985,3.985,0,0,1-1.407-.609c-.147,2.415-.357,2.982-1.575,2.982ZM6.594,52.582c-.651.315-1.323.651-1.953.945V47H6.552v-1.47H4.641V40.675H3.171v4.851H.966V47H3.171V54.22c-.882.4-1.68.756-2.352,1.029l.609,1.533c1.617-.8,3.675-1.827,5.586-2.814ZM13.587,53.9c-2.709.714-5.5,1.491-7.392,1.911l.42,1.47c1.995-.567,4.62-1.323,7.119-2.058Zm-2.142-2.184H8.736V48.193h2.709ZM7.518,46.933v6.048h5.208V46.933Zm10.521,0a24.548,24.548,0,0,1-2.016,5.4,67.754,67.754,0,0,1-.588-7.371h4.41V43.51H18.732l.924-.861a12.95,12.95,0,0,0-2.562-2.163l-.9.777a16.957,16.957,0,0,1,2.5,2.247h-3.3c-.021-.987-.021-2.016-.021-3.066H13.86c0,1.029.021,2.058.063,3.066H6.909v1.449h7.056a63.685,63.685,0,0,0,.882,9.282A14.886,14.886,0,0,1,10.584,58.4a9.333,9.333,0,0,1,1.155,1.029,16.586,16.586,0,0,0,3.549-3.423c.651,2.247,1.554,3.591,2.835,3.591,1.323,0,1.743-.882,1.974-3.675a3.886,3.886,0,0,1-1.113-.819c-.084,2.184-.273,3-.672,3-.777,0-1.407-1.365-1.911-3.654a27.081,27.081,0,0,0,3.066-7.245Zm1.869,44.185H3.612V77.069H19.446V75.578H2.058v18H3.612v-.987h16.3Zm-.861-6.489V83.243h-6.51v-2.52h5.544V79.379H8.673a12.665,12.665,0,0,0,.777-1.617L7.98,77.4a10.514,10.514,0,0,1-3.192,4.326,10.92,10.92,0,0,1,1.281.777,10.576,10.576,0,0,0,1.68-1.785H11v2.52H4.83v1.386h6.006c-.4,1.617-1.764,3.339-6.048,4.515A6.149,6.149,0,0,1,5.733,90.3c3.717-1.134,5.46-2.667,6.216-4.284a9.49,9.49,0,0,0,6.279,4.242,5.5,5.5,0,0,1,.966-1.323c-3.108-.588-5.334-2.037-6.426-4.305ZM3.57,116.172a16.034,16.034,0,0,0-1.386-4.011l-1.176.462a16.156,16.156,0,0,1,1.3,4.116Zm16.506-4.452v-1.365H12.348v-1.911H10.731v1.911H3.885V117.1c0,.5,0,1.029-.021,1.575-1.218.651-2.331,1.239-3.15,1.617l.5,1.386c.819-.462,1.68-.966,2.541-1.491a11.04,11.04,0,0,1-2.478,6.384,5.738,5.738,0,0,1,1.092,1.05c2.562-2.877,2.982-7.329,2.982-10.521V111.72ZM8.568,123.375A10.243,10.243,0,0,1,5.4,126.336a5.078,5.078,0,0,1,1.155.924,13.191,13.191,0,0,0,3.423-3.486Zm6.7.63a18.6,18.6,0,0,1,3.192,3.318l1.218-.714a19.692,19.692,0,0,0-3.255-3.213ZM10,117.243a11.811,11.811,0,0,0,1.911-2.394h1.974a12.631,12.631,0,0,0,1.89,2.394Zm6.174,2.331H9.492v-1.3H16.17Zm0,2.31H9.492v-1.323H16.17Zm2.289-6.867a19.067,19.067,0,0,1-1.6,1.512,11.44,11.44,0,0,1-1.533-1.68h4.494V113.61H12.6a11.7,11.7,0,0,0,.63-1.617l-1.449-.189a9.9,9.9,0,0,1-.735,1.806H6.3v1.239h3.969A10.467,10.467,0,0,1,8.9,116.424a16.143,16.143,0,0,0-1.68-1.281l-.84.735a13.924,13.924,0,0,1,1.638,1.3A12.9,12.9,0,0,1,5.4,118.8a3.486,3.486,0,0,1,.966,1.029,13.308,13.308,0,0,0,1.785-1.05v4.137h3.906v3.15c0,.231-.042.273-.336.273-.273.021-1.155.042-2.184,0a4.4,4.4,0,0,1,.5,1.281,9.582,9.582,0,0,0,2.814-.21c.567-.21.714-.567.714-1.3v-3.192h4.011v-4.179a11.5,11.5,0,0,0,1.764,1.008,5.919,5.919,0,0,1,.924-1.113,10.825,10.825,0,0,1-2.583-1.428,16.393,16.393,0,0,0,1.743-1.491ZM5.691,157.06c-.9,0-2.121-1.155-2.121-3.78A7.251,7.251,0,0,1,10,146.56a33.553,33.553,0,0,1-1.155,5.607C7.77,155.674,6.615,157.06,5.691,157.06Zm5.481,3.486c4.956-.651,7.833-3.57,7.833-7.938,0-4.2-3.108-7.644-7.98-7.644-5.082,0-9.114,3.948-9.114,8.463,0,3.423,1.869,5.565,3.717,5.565,1.932,0,3.591-2.205,4.872-6.468a43.95,43.95,0,0,0,1.239-5.985,5.764,5.764,0,0,1,5.523,6.027c0,3.591-2.6,5.565-5.271,6.153a13.033,13.033,0,0,1-1.785.252ZM4.83,177.7v1.554H10c.042.8.126,1.722.273,2.688l-.924-.147c-1.281,5.88-3.864,10.1-8.505,12.516a10.22,10.22,0,0,1,1.407,1.239c4.179-2.457,6.825-6.279,8.379-11.718a18.122,18.122,0,0,0,8.337,11.7,7.421,7.421,0,0,1,1.26-1.3c-8.232-4.893-8.715-12.81-8.715-16.527Zm.483,33.727c-.021.5-.084,1.134-.168,1.785a54.559,54.559,0,0,0-.63,6.72,25.445,25.445,0,0,0,.21,3.3l1.638-.126a8.681,8.681,0,0,1-.042-2.541c.252-2.73,2.646-6.489,5.229-6.489,2.205,0,3.3,2.352,3.3,5.628,0,5.229-3.528,7.035-8.043,7.728l.987,1.512c5.166-.945,8.8-3.486,8.8-9.261,0-4.368-1.995-7.14-4.767-7.14-2.625,0-4.809,2.583-5.628,4.725a38.544,38.544,0,0,1,.966-5.775Zm-.987,48.3V248.161H16.674v11.571ZM2.751,246.607v16.485H4.326v-1.785H16.674v1.68h1.659v-16.38Zm1.008,33.5a12.438,12.438,0,0,1-.147,1.47,57.762,57.762,0,0,0-.924,8.337,26.046,26.046,0,0,0,.756,6.678l1.512-.105-.063-.735A5.19,5.19,0,0,1,5,294.824a45.159,45.159,0,0,1,1.47-4.662l-.9-.672c-.336.819-.8,2.037-1.155,2.982a21.714,21.714,0,0,1-.168-2.856,47.851,47.851,0,0,1,1.008-7.959c.084-.378.273-1.05.4-1.407Zm5.124,10.08a12.052,12.052,0,0,0-.336,2.457c0,1.953,1.554,3.108,5.04,3.108a27.638,27.638,0,0,0,5.187-.42l-.021-1.764a22.607,22.607,0,0,1-5.145.546c-2.856,0-3.486-.924-3.486-1.869a7.723,7.723,0,0,1,.273-1.911Zm.714-6.615a52.53,52.53,0,0,0,8.526,0v-1.722a36.352,36.352,0,0,1-8.547,0Z" transform="translate(1034 166)"/>
    <path id="パス_31998" data-name="パス 31998" d="M19.257,10.539h-8V6.444H9.66v4.095H1.869v1.512H19.257ZM8.19,21.732a31.418,31.418,0,0,0-2.058-8.568l-1.449.378A31.678,31.678,0,0,1,6.615,22.11ZM13.4,23.16a96.854,96.854,0,0,0,2.982-9.786l-1.764-.336A69.271,69.271,0,0,1,11.781,23.16H1.176v1.533h18.69V23.16ZM1.617,47.038l.777,1.848c1.638-.651,6.93-2.94,10.353-2.94,2.814,0,4.389,1.7,4.389,3.885,0,4.263-4.83,5.9-10.269,6.048L7.6,57.622c6.426-.357,11.382-2.772,11.382-7.77,0-3.486-2.751-5.481-6.2-5.481-3.045,0-7.119,1.512-8.883,2.058C3.129,46.66,2.373,46.891,1.617,47.038Zm8.19,42.106c0,1.428-.735,2.142-2.268,2.142-2,0-3.15-.63-3.15-1.785,0-1.134,1.218-1.869,3.36-1.869a9.448,9.448,0,0,1,2.037.21C9.786,88.367,9.807,88.808,9.807,89.144Zm1.407-7.854c1.7-.042,4.368-.168,6.216-.336l-.063-1.6c-1.869.252-4.494.357-6.153.4,0-.819-.021-1.554,0-2.121a18.115,18.115,0,0,1,.168-2.058H9.366a15.242,15.242,0,0,1,.168,2.058c.021.882.021,2.6.021,3.8,0,1.239.084,3.15.168,4.83a12.458,12.458,0,0,0-1.764-.126c-3.591,0-5.229,1.554-5.229,3.423,0,2.373,2.121,3.3,4.977,3.3,2.772,0,3.822-1.47,3.822-3.171,0-.378-.021-.84-.042-1.386a14.533,14.533,0,0,1,5.4,3.423l1.008-1.554a16.5,16.5,0,0,0-6.468-3.549c-.105-1.806-.21-3.822-.21-5.187Zm3.843,37.675c0,3.738-3.57,5.712-8.61,6.342l.987,1.6c5.4-.8,9.408-3.36,9.408-7.875,0-2.961-2.2-4.62-5.166-4.62a27.572,27.572,0,0,0-6.216,1.008c-.609.126-1.323.252-1.89.315l.525,1.932c.5-.189,1.113-.441,1.743-.609a19.369,19.369,0,0,1,5.67-1.071C13.65,115.983,15.057,117.222,15.057,118.965ZM6.342,109.6l-.273,1.6c2.352.42,6.552.84,8.862.987l.252-1.617A55.717,55.717,0,0,1,6.342,109.6ZM19.488,149a31.452,31.452,0,0,0-4.872-2.772l-.819,1.3a24.979,24.979,0,0,1,4.746,2.856Zm-7.56-3.15a21.265,21.265,0,0,1-3.234.756c.336-1.2.609-2.457.819-3.213l-1.869-.168a17.045,17.045,0,0,1-.651,3.591c-.8.063-1.575.1-2.31.1a19.59,19.59,0,0,1-2.562-.147l.126,1.575c.777.042,1.638.063,2.415.063q.913,0,1.827-.063a29.83,29.83,0,0,1-4.452,7.77l1.638.84a37.368,37.368,0,0,0,4.536-8.8,24.74,24.74,0,0,0,3.759-.756Zm1.092,11.613c0,1.029-.567,1.974-2.268,1.974-1.617,0-2.394-.651-2.394-1.617,0-.945,1.008-1.638,2.541-1.638a7.573,7.573,0,0,1,2.1.294C13.02,156.85,13.02,157.186,13.02,157.459Zm-.294-7.644c.042,1.449.147,3.486.21,5.187a9.842,9.842,0,0,0-1.974-.189c-2.352,0-4.158,1.239-4.158,3.15,0,2.058,1.869,3,4.158,3,2.562,0,3.654-1.365,3.654-3.024,0-.231,0-.525-.021-.84a14.468,14.468,0,0,1,3.339,2.373l.9-1.428a14.036,14.036,0,0,0-4.3-2.6c-.042-1.26-.126-2.625-.147-3.381a20.226,20.226,0,0,1,.021-2.247Zm6.909,30.85v-1.512H8.946c.294-.756.567-1.533.8-2.31l-1.638-.42a27.664,27.664,0,0,1-.9,2.73H1.386v1.512H6.552a18.632,18.632,0,0,1-5.817,7.371,7.5,7.5,0,0,1,.84,1.428,15.755,15.755,0,0,0,2.436-2.142v8.232H5.565v-10.08a24.782,24.782,0,0,0,2.751-4.809Zm.4,7.728H14.469v-1.071a20.937,20.937,0,0,0,4.242-3.654l-1.008-.756-.315.1H8.841v1.407h7.182a15.366,15.366,0,0,1-2.5,2.037h-.609v1.932H7.056v1.47h5.859v3.885c0,.294-.084.378-.462.4-.378,0-1.6.021-3-.021a6.412,6.412,0,0,1,.5,1.47,15.119,15.119,0,0,0,3.633-.231c.693-.252.882-.693.882-1.6v-3.906h5.565Zm-5.943,33.349h4.725v-1.47H14.091v-4.011H12.537v4.011h-4.7v1.47h4.7v5.9H7.014v1.47H19.635v-1.47H14.091ZM8.82,213.678c.378-.945.735-1.911,1.008-2.856l-1.6-.4a28.382,28.382,0,0,1-1.113,3.255H1.386v1.491h5.04a18.032,18.032,0,0,1-5.544,6.846,6.593,6.593,0,0,1,.8,1.407A15.62,15.62,0,0,0,4.116,221.3v8.232H5.649v-10.08a27.4,27.4,0,0,0,2.541-4.284H19.635v-1.491Zm6.888,34.294a8.346,8.346,0,0,1-1.491.987c-1.134.651-3.381,1.743-5.334,2.919a47.781,47.781,0,0,1-2.793-6.153l-1.659.672a68.925,68.925,0,0,0,3.024,6.4c-2.226,1.554-3.591,3.255-3.591,5.4,0,3.108,2.835,4.284,6.741,4.284a40.813,40.813,0,0,0,6.573-.5v-1.89a30.631,30.631,0,0,1-6.657.714c-3.276,0-4.914-1.071-4.914-2.793,0-1.575,1.155-2.94,3.087-4.2a70.058,70.058,0,0,1,6.321-3.423c.609-.315,1.134-.588,1.6-.882ZM5.061,279.683a10.688,10.688,0,0,1,.189,2.1c0,2.205-.21,7.455-.21,10.542,0,3.381,2.058,4.641,5.04,4.641a10.361,10.361,0,0,0,8.673-4.578L17.6,290.939c-1.491,2.163-3.654,4.3-7.476,4.3-1.932,0-3.4-.8-3.4-3.087,0-3.108.168-8.022.252-10.374.042-.672.105-1.407.21-2.079ZM1.869,316.056l.189,1.848c2.247-.462,7.917-1.008,9.744-1.218A8.377,8.377,0,0,0,7.938,323.7c0,4.641,4.389,6.7,8.232,6.846l.609-1.743c-3.381-.126-7.161-1.407-7.161-5.481a7.245,7.245,0,0,1,4.746-6.552,17.325,17.325,0,0,1,4.074-.336v-1.68c-1.386.063-3.339.168-5.607.357-3.822.315-7.749.714-9.114.84C3.318,315.993,2.667,316.035,1.869,316.056Z" transform="translate(988 166)"/>
  </g>
</svg>
