<svg xmlns="http://www.w3.org/2000/svg" width="85" height="85" viewBox="0 0 85 85">
  <g id="open-sp" transform="translate(-14 -122)">
    <circle id="楕円形_284" data-name="楕円形 284" cx="42.5" cy="42.5" r="42.5" transform="translate(14 122)" fill="#802"/>
    <path id="パス_31998" data-name="パス 31998" d="M-8.345,0H-11.21L-16.4-7.919a11.451,11.451,0,0,1-.633-1.046h-.035Q-17-8.3-17-6.926V0h-2.681V-12.6h3.059l5,7.673q.343.519.633,1.028h.035a13.476,13.476,0,0,1-.07-1.731V-12.6h2.681ZM2.1,0H-5.462V-12.6H1.806v2.312h-4.43v2.8H1.5v2.3H-2.624V-2.3H2.1Zm18.87-12.6L17.635,0H14.489L12.4-8.086a6.742,6.742,0,0,1-.2-1.415H12.16a8.6,8.6,0,0,1-.229,1.415L9.787,0H6.508L3.195-12.6H6.3L8.073-4.21A10.02,10.02,0,0,1,8.24-2.769h.053a6.977,6.977,0,0,1,.255-1.477L10.833-12.6h3.041L15.939-4.14a10.364,10.364,0,0,1,.2,1.354h.035a9.074,9.074,0,0,1,.185-1.406L18.1-12.6ZM-17.486,16.22A5.867,5.867,0,0,1-21.9,14.458,6.327,6.327,0,0,1-23.6,9.865a6.779,6.779,0,0,1,1.731-4.834,6,6,0,0,1,4.588-1.846A5.721,5.721,0,0,1-12.92,4.952,6.513,6.513,0,0,1-11.254,9.61a6.671,6.671,0,0,1-1.727,4.79A5.928,5.928,0,0,1-17.486,16.22Zm.123-10.591A2.858,2.858,0,0,0-19.736,6.75a4.672,4.672,0,0,0-.879,2.966,4.586,4.586,0,0,0,.879,2.962,2.816,2.816,0,0,0,2.3,1.09A2.844,2.844,0,0,0-15.1,12.708a4.536,4.536,0,0,0,.861-2.94,4.915,4.915,0,0,0-.835-3.05A2.722,2.722,0,0,0-17.363,5.629Zm11.039,6.029V16H-9.163V3.4h4.447Q.048,3.4.048,7.413a3.854,3.854,0,0,1-1.367,3.072A5.414,5.414,0,0,1-4.97,11.658Zm0-6.082V9.5h1.116q2.268,0,2.268-1.986,0-1.942-2.268-1.942ZM9.453,16H1.894V3.4H9.163V5.708H4.733v2.8H8.855v2.3H4.733V13.7h4.72Zm13.359,0H19.947L14.752,8.081a11.451,11.451,0,0,1-.633-1.046h-.035q.07.668.07,2.039V16H11.474V3.4h3.059l5,7.673q.343.519.633,1.028H20.2a13.476,13.476,0,0,1-.07-1.731V3.4h2.681Z" transform="translate(55 175)" fill="#fff"/>
    <path id="パス_31999" data-name="パス 31999" d="M7.438-11.2v7.063H8.781V-2.3H7.438V0H5.188V-2.3H.3v-1.93q.648-.727,1.344-1.59T2.992-7.594q.648-.914,1.207-1.84a18.443,18.443,0,0,0,.949-1.77ZM2.516-4.141H5.188V-8.055q-.273.508-.594,1.027T3.922-6q-.352.5-.711.977T2.516-4.141Z" transform="translate(30 153)" fill="#fff"/>
    <path id="パス_32001" data-name="パス 32001" d="M13.48-20.306V-7.5h2.436v3.342H13.48V0H9.4V-4.163H.552v-3.5q1.175-1.317,2.436-2.882t2.436-3.221Q6.6-15.42,7.611-17.1a33.429,33.429,0,0,0,1.72-3.207ZM4.56-7.5H9.4V-14.6q-.5.92-1.076,1.862T7.108-10.882q-.637.913-1.289,1.77T4.56-7.5Z" transform="translate(50 154)" fill="#fff"/>
    <path id="パス_32000" data-name="パス 32000" d="M4.551-7,1.138,1.162H-.239L3.159-7Z" transform="translate(43 153)" fill="#fff"/>
    <ellipse id="楕円形_281" data-name="楕円形 281" cx="7" cy="6.5" rx="7" ry="6.5" transform="translate(70 141)" fill="#fff"/>
    <path id="パス_32002" data-name="パス 32002" d="M4.8-.4q.475.044,1.024.044a.28.28,0,0,0,.316-.316V-2.25H2.922A5.073,5.073,0,0,1,2.448-.611,5.878,5.878,0,0,1,1.63.541Q1.49.694,1.441.694q-.066,0-.211-.145A1.9,1.9,0,0,0,.584.127,5.029,5.029,0,0,0,1.5-.954a3.844,3.844,0,0,0,.448-1.362A14.534,14.534,0,0,0,2.07-4.478V-5.805L2.052-7.027a.16.16,0,0,1,.018-.1.151.151,0,0,1,.079-.013l1.2.018h2.5l1.187-.018q.075,0,.088.022a.177.177,0,0,1,.013.088L7.119-5.805v3.538l.026,1.8A1.12,1.12,0,0,1,6.86.369a.965.965,0,0,1-.523.215,7.376,7.376,0,0,1-.971.044A.5.5,0,0,1,5.1.589.509.509,0,0,1,5.032.352,2.185,2.185,0,0,0,4.8-.4ZM3.015-3.125H6.139V-4.263H3.05Q3.032-3.494,3.015-3.125Zm3.125-3.1H3.05v1.09H6.139Z" transform="translate(73 152)" fill="#802"/>
  </g>
</svg>
