<svg xmlns="http://www.w3.org/2000/svg" xmlns:xlink="http://www.w3.org/1999/xlink" width="65" height="65" viewBox="0 0 65 65">
  <defs>
    <clipPath id="clip-path">
      <rect id="長方形_5724" data-name="長方形 5724" width="39.629" height="29.36" fill="none" stroke="#fff" stroke-width="2"/>
    </clipPath>
  </defs>
  <g id="treatment3" transform="translate(-946 -1005.273)">
    <circle id="楕円形_278" data-name="楕円形 278" cx="32.5" cy="32.5" r="32.5" transform="translate(946 1005.273)" fill="#3c4a6e"/>
    <g id="グループ_15474" data-name="グループ 15474" transform="translate(960.186 1026.119)">
      <g id="グループ_15473" data-name="グループ 15473" clip-path="url(#clip-path)">
        <path id="パス_31863" data-name="パス 31863" d="M14.572,33.128a3.685,3.685,0,0,1-2.416,1.764,3.074,3.074,0,0,1-3.315-2.809c-.483-4.767-1.381-8.53-1.779-12.459A11.969,11.969,0,0,1,7,18.356v0H7a11.051,11.051,0,0,1,9.891-11.24C22.753,6.518,28.7,8.19,29.339,14.485s.931,11.181-2.394,11.9C20.089,27.873,16.928,30.062,14.572,33.128Z" transform="translate(-6.273 -6.273)" fill="none" stroke="#fff" stroke-linecap="round" stroke-linejoin="round" stroke-width="2"/>
        <path id="パス_31864" data-name="パス 31864" d="M220.165,28.99c-.022-.182-.044-.364-.068-.546a3.13,3.13,0,0,1,.645-2.368,2.715,2.715,0,0,1,1.783-1.023c7.742-.953,8.2-.324,10.848.072,3.666.549,3.164,3.569,1.373,4.312-3.868,1.6-4.052,9.517-11.854,10.575a2.083,2.083,0,0,1-2.287-1.866" transform="translate(-197.217 -22.002)" fill="none" stroke="#fff" stroke-linecap="round" stroke-linejoin="round" stroke-width="2"/>
      </g>
    </g>
  </g>
</svg>
