<svg xmlns="http://www.w3.org/2000/svg" xmlns:xlink="http://www.w3.org/1999/xlink" width="65" height="65" viewBox="0 0 65 65">
  <defs>
    <clipPath id="clip-path">
      <rect id="長方形_5723" data-name="長方形 5723" width="43.635" height="45.827" fill="none" stroke="#fff" stroke-width="2"/>
    </clipPath>
  </defs>
  <g id="treatment1-red" transform="translate(-273 -2048.221)">
    <circle id="楕円形_25" data-name="楕円形 25" cx="32.5" cy="32.5" r="32.5" transform="translate(273 2048.221)" fill="#b90725"/>
    <g id="グループ_15472" data-name="グループ 15472" transform="translate(285.805 2061.573)">
      <g id="グループ_15471" data-name="グループ 15471" transform="translate(-2.805 -2.729)" clip-path="url(#clip-path)">
        <path id="パス_31855" data-name="パス 31855" d="M33.374,7a1.13,1.13,0,1,1-1.131,1.131A1.13,1.13,0,0,1,33.374,7" transform="translate(-24.064 -1.602)" fill="none" stroke="#fff" stroke-width="2" fill-rule="evenodd"/>
        <path id="パス_31856" data-name="パス 31856" d="M33.374,7a1.13,1.13,0,1,1-1.131,1.131A1.13,1.13,0,0,1,33.374,7Z" transform="translate(-24.064 -1.602)" fill="none" stroke="#fff" stroke-linecap="round" stroke-linejoin="round" stroke-width="2"/>
        <path id="パス_31857" data-name="パス 31857" d="M146.587,7a1.13,1.13,0,1,1-1.13,1.131A1.131,1.131,0,0,1,146.587,7" transform="translate(-124.807 -1.602)" fill="none" stroke="#fff" stroke-width="2" fill-rule="evenodd"/>
        <path id="パス_31858" data-name="パス 31858" d="M146.587,7a1.13,1.13,0,1,1-1.13,1.131A1.131,1.131,0,0,1,146.587,7Z" transform="translate(-124.807 -1.602)" fill="none" stroke="#fff" stroke-linecap="round" stroke-linejoin="round" stroke-width="2"/>
        <path id="パス_31859" data-name="パス 31859" d="M259.665,197.459a1.075,1.075,0,1,1-1.075,1.075,1.075,1.075,0,0,1,1.075-1.075" transform="translate(-225.784 -171.679)" fill="#fff" fill-rule="evenodd"/>
        <path id="パス_31861" data-name="パス 31861" d="M24.322,26.256a11.651,11.651,0,0,1,0,15.546,9.6,9.6,0,0,1-14.35,0,11.651,11.651,0,0,1,0-15.546" transform="translate(-1.602 -18.737)" fill="none" stroke="#fff" stroke-linecap="round" stroke-linejoin="round" stroke-width="2"/>
        <path id="パス_31862" data-name="パス 31862" d="M116.4,202.4c0,4.648-4.125,8.456-9.168,8.456s-9.206-3.974-9.206-8.625v-5.506" transform="translate(-82.596 -170.424)" fill="none" stroke="#fff" stroke-linecap="round" stroke-linejoin="round" stroke-width="2"/>
        <circle id="楕円形_279" data-name="楕円形 279" cx="4.355" cy="4.355" r="4.355" transform="translate(29.527 22.501)" fill="none" stroke="#fff" stroke-linecap="round" stroke-linejoin="round" stroke-width="2"/>
      </g>
    </g>
  </g>
</svg>
