<svg id="logo" xmlns="http://www.w3.org/2000/svg" xmlns:xlink="http://www.w3.org/1999/xlink" width="77" height="73.881" viewBox="0 0 77 73.881">
  <defs>
    <clipPath id="clip-path">
      <rect id="長方形_5785" data-name="長方形 5785" width="77" height="73.881" fill="none"/>
    </clipPath>
  </defs>
  <g id="グループ_15494" data-name="グループ 15494" clip-path="url(#clip-path)">
    <path id="パス_31942" data-name="パス 31942" d="M120.261,1.881l1.215.4a.328.328,0,0,0,.107.013.347.347,0,0,0,.331-.236.328.328,0,0,0,.013-.107.34.34,0,0,0-.236-.321l-1.215-.4a.329.329,0,0,0-.107-.013.335.335,0,0,0-.335.335.343.343,0,0,0,.228.331" transform="translate(-50.796 -0.515)" fill="#002441"/>
    <path id="パス_31943" data-name="パス 31943" d="M124.417,2.251l.75.427a.335.335,0,0,0,.178.048.326.326,0,0,0,.288-.167.327.327,0,0,0-.121-.473l-.742-.427a.345.345,0,0,0-.354.592" transform="translate(-52.58 -0.681)" fill="#002441"/>
    <path id="パス_31944" data-name="パス 31944" d="M130.294,2.717a.383.383,0,0,0,.19-.059l.717-.481a.338.338,0,0,0,.153-.285.386.386,0,0,0-.062-.2.352.352,0,0,0-.481-.082l-.708.48a.339.339,0,0,0-.154.285.348.348,0,0,0,.344.344" transform="translate(-54.993 -0.655)" fill="#002441"/>
    <path id="パス_31945" data-name="パス 31945" d="M3.9,37.112a1.64,1.64,0,0,0,.476-.1L30.432,25.823l.02-.01a1.412,1.412,0,0,0,.775-1.126V24.57a1.327,1.327,0,0,0-.518-1.072l-5.84-4.341v-.905A1.4,1.4,0,0,0,23.521,16.9a1.384,1.384,0,0,0-1.349,1.349v.63L5.856,25.146A1.36,1.36,0,0,0,5.011,26.4a1.316,1.316,0,0,0,1.309,1.349,1.633,1.633,0,0,0,.507-.093l6.686-2.58a1.51,1.51,0,0,0-.04.35,1.328,1.328,0,0,0,.468,1.025l2.77,2.308L3.305,34.552a1.371,1.371,0,0,0-.79,1.251A1.355,1.355,0,0,0,3.9,37.112M15.539,24.3l7.753-2.957,3.929,2.9-7.759,3.347-3.783-3.178a.98.98,0,0,0-.14-.115" transform="translate(-1.064 -7.153)" fill="#002441"/>
    <path id="パス_31946" data-name="パス 31946" d="M5.39,15.49a1.351,1.351,0,0,0,.424-.09L27.033,7.872a1.3,1.3,0,0,0,.883-1.08V6.575A1.261,1.261,0,0,0,27.312,5.5L22.184,2.128V1.349a1.349,1.349,0,1,0-2.7,0v.5L6.067,5.7a1.335,1.335,0,0,0-.973,1.261A1.389,1.389,0,0,0,6.482,8.314a.879.879,0,0,0,.349-.052l5.048-1.447a1.271,1.271,0,0,0-.076.423,1.343,1.343,0,0,0,.416.975l1.545,1.512L4.891,12.882A1.3,1.3,0,0,0,4,14.142,1.326,1.326,0,0,0,5.39,15.49m8.639-9.277,6.614-1.859,2.9,1.891L16.637,8.7,14.084,6.264c-.017-.017-.036-.034-.055-.051" transform="translate(-1.694)" fill="#002441"/>
    <path id="パス_31947" data-name="パス 31947" d="M54.7,29.473a1.328,1.328,0,0,0,1.117-.565l3.461-5.21a1.063,1.063,0,0,0,.242-.76V13.015h8.87a1.347,1.347,0,0,0,1.348-1.309V3.241a1.349,1.349,0,0,0-1.348-1.348H58.215a1.35,1.35,0,0,0-1.349,1.348V22.52l-3.284,4.868a1.492,1.492,0,0,0-.226.737A1.319,1.319,0,0,0,54.7,29.473M66.272,7.531a1.209,1.209,0,0,0-1.193-1.192H59.524V4.59h7.522V10.4H59.524V8.686h5.555a1.2,1.2,0,0,0,1.193-1.154" transform="translate(-22.58 -0.801)" fill="#002441"/>
    <path id="パス_31948" data-name="パス 31948" d="M81.42,38.164a1.277,1.277,0,0,0,2.541,0V25.549h2.863a1.212,1.212,0,1,0,0-2.424H70.4a1.212,1.212,0,0,0,0,2.424h1.967v8.458h-2.4a1.27,1.27,0,0,0,0,2.541H81.42Zm-.774-6.709a1.11,1.11,0,0,0-1.114-1.076H74.912V29.02h4.619a1.076,1.076,0,1,0,0-2.151H74.912v-1.32H81.42v8.458H74.912V32.531h4.619a1.084,1.084,0,0,0,1.114-1.076" transform="translate(-29.075 -9.786)" fill="#002441"/>
    <path id="パス_31949" data-name="パス 31949" d="M90.272,13.015h9.3V28.32a1.35,1.35,0,0,0,1.349,1.348,1.383,1.383,0,0,0,1.348-1.348V3.241a1.383,1.383,0,0,0-1.348-1.348H90.272a1.35,1.35,0,0,0-1.349,1.348v8.464a1.347,1.347,0,0,0,1.349,1.309m8.642-5.483A1.175,1.175,0,0,0,97.76,6.339H91.62V4.59h7.951V10.4H91.62V8.686h6.14a1.17,1.17,0,0,0,1.154-1.154" transform="translate(-37.631 -0.801)" fill="#002441"/>
    <path id="パス_31950" data-name="パス 31950" d="M4.956,55.177a.5.5,0,1,0,0,1.007H24.1a.5.5,0,0,0,0-1.007Z" transform="translate(-1.884 -23.35)" fill="#dc000c"/>
    <path id="パス_31951" data-name="パス 31951" d="M78.024,55.681a.5.5,0,0,0,.5.5H97.671a.5.5,0,0,0,0-1.007H78.528a.5.5,0,0,0-.5.5" transform="translate(-33.019 -23.35)" fill="#dc000c"/>
    <path id="パス_31952" data-name="パス 31952" d="M44.694,54a.323.323,0,0,0,.326-.326v-.6a.33.33,0,0,0-.326-.332H42.238a.333.333,0,0,0-.333.332v.6a.33.33,0,0,0,.333.326.323.323,0,0,0,.326-.326v-.277h.555v3.074a.333.333,0,0,0,.332.326.327.327,0,0,0,.326-.326V53.393h.584v.277a.33.33,0,0,0,.332.326" transform="translate(-17.734 -22.316)" fill="#002441"/>
    <path id="パス_31953" data-name="パス 31953" d="M49.887,52.734a.332.332,0,0,0-.313.234l-1.09,3.393a.338.338,0,0,0-.02.106.325.325,0,0,0,.332.326.339.339,0,0,0,.313-.227l.272-.84h1.591l.264.835a.324.324,0,0,0,.3.232.335.335,0,0,0,.338-.332.289.289,0,0,0-.013-.1l-1.072-3.395a.333.333,0,0,0-.314-.235Zm.347.659.532,1.674H49.589l.536-1.674Z" transform="translate(-20.509 -22.316)" fill="#002441"/>
    <path id="パス_31954" data-name="パス 31954" d="M58.785,56.793a.331.331,0,0,0,.326-.326v-3.4a.334.334,0,0,0-.326-.333h-.37a.3.3,0,0,0-.241.115l-.791.884-.718-.875a.343.343,0,0,0-.255-.123h-.446a.333.333,0,0,0-.332.333v3.4a.329.329,0,0,0,.659,0V53.435l.749.921v.562a.33.33,0,0,0,.332.326.323.323,0,0,0,.326-.326v-.547l.754-.852v2.947a.334.334,0,0,0,.332.326" transform="translate(-23.543 -22.316)" fill="#002441"/>
    <path id="パス_31955" data-name="パス 31955" d="M64.877,52.734h-.34a.969.969,0,0,0-.944.589c-.572.953-.619,1.181-.619,1.321v.17c0,.144.075.4.619,1.314a.969.969,0,0,0,.944.59h.34c.478,0,.664-.116.945-.59.539-.908.613-1.169.613-1.314v-.17c0-.155-.074-.422-.613-1.32-.281-.474-.467-.59-.945-.59m0,3.325h-.34c-.16,0-.221,0-.38-.266a6.391,6.391,0,0,1-.524-.985h0l0-.142a5.584,5.584,0,0,1,.527-1c.157-.271.213-.271.38-.271h.34c.223,0,.223,0,.38.272a5.568,5.568,0,0,1,.519.994V54.8a4.756,4.756,0,0,1-.52,1c-.156.266-.156.266-.38.266" transform="translate(-26.649 -22.316)" fill="#002441"/>
    <path id="パス_31956" data-name="パス 31956" d="M72.564,52.934v2.53L71.1,52.851a.338.338,0,0,0-.287-.172h-.2a.333.333,0,0,0-.333.332v3.4a.334.334,0,0,0,.333.326.327.327,0,0,0,.326-.326V53.926l1.444,2.569a.333.333,0,0,0,.287.167H72.9a.327.327,0,0,0,.326-.326v-3.4a.329.329,0,1,0-.659,0" transform="translate(-29.743 -22.26)" fill="#002441"/>
    <path id="パス_31957" data-name="パス 31957" d="M119.649,6.064h.777l-.792,2.418a.381.381,0,0,0-.022.116.354.354,0,0,0,.352.344.409.409,0,0,0,.121-.024l1.522-.621h0a.354.354,0,0,0,.219-.318.3.3,0,0,0-.032-.127.338.338,0,0,0-.321-.217.413.413,0,0,0-.121.024L120.512,8l.709-2.169a.38.38,0,0,0,.022-.115.328.328,0,0,0-.343-.326h-1.251a.336.336,0,0,0-.344.335.344.344,0,0,0,.344.344" transform="translate(-50.488 -2.279)" fill="#002441"/>
    <path id="パス_31958" data-name="パス 31958" d="M123.986,7.26a.35.35,0,0,0,.283-.143l.821-1.151h1.974a.344.344,0,1,0,0-.688h-1.878V4.741h1.86a.34.34,0,0,0,.335-.335.344.344,0,0,0-.335-.344h-1.86v-.6h2.321V7.091a.344.344,0,0,0,.688,0V3.12a.344.344,0,0,0-.344-.344h-1.161V1.2a.339.339,0,1,0-.679,0v1.58h-1.169a.344.344,0,0,0-.344.344V5.6L123.7,6.72a.31.31,0,0,0-.063.2.333.333,0,0,0,.344.344" transform="translate(-52.324 -0.361)" fill="#002441"/>
    <path id="パス_31959" data-name="パス 31959" d="M126.392,21.831l2.151-.782a.333.333,0,0,0,.228-.322.344.344,0,0,0-.352-.344.318.318,0,0,0-.109.014l-1.917.7V19.66a.344.344,0,1,0-.688,0v4.6a.344.344,0,0,0,.344.344h3.577a.344.344,0,0,0,0-.688h-3.234Z" transform="translate(-53.196 -8.174)" fill="#002441"/>
    <path id="パス_31960" data-name="パス 31960" d="M119.613,20.89l1.087-.871v4.326a.336.336,0,0,0,.344.326.34.34,0,0,0,.344-.326V19.761a.346.346,0,0,0-.088-.226l.937-.745,0,0a.338.338,0,0,0,.119-.261.334.334,0,0,0-.074-.216.343.343,0,0,0-.474-.047l-2.622,2.089a.336.336,0,0,0-.141.273.353.353,0,0,0,.566.262" transform="translate(-50.379 -7.699)" fill="#002441"/>
    <path id="パス_31961" data-name="パス 31961" d="M123.437,45.11a.344.344,0,0,0,.344-.344V43.376a.345.345,0,0,0-.344-.344H121.7a.348.348,0,0,0-.343.344v1.391a.348.348,0,0,0,.343.344Zm-1.4-1.391h1.053v.7H122.04Z" transform="translate(-51.355 -18.211)" fill="#002441"/>
    <path id="パス_31962" data-name="パス 31962" d="M128.8,45.11a.348.348,0,0,0,.343-.344V43.376a.348.348,0,0,0-.343-.344h-1.741a.345.345,0,0,0-.344.344v1.391a.344.344,0,0,0,.344.344Zm-1.4-1.391h1.053v.7h-1.053Z" transform="translate(-53.626 -18.211)" fill="#002441"/>
    <path id="パス_31963" data-name="パス 31963" d="M126.854,41.468a.344.344,0,0,0,.352-.344.349.349,0,0,0-.2-.318l-2.353-1.079h1.424a.339.339,0,1,0,0-.678H123.5v-.54a.344.344,0,0,0-.688,0v.54h-2.6a.339.339,0,1,0,0,.678h1.418l-2.341,1.08a.359.359,0,0,0-.2.308.353.353,0,0,0,.344.352.335.335,0,0,0,.143-.035l3.565-1.645,3.573,1.644a.283.283,0,0,0,.136.036" transform="translate(-50.399 -16.151)" fill="#002441"/>
    <path id="パス_31964" data-name="パス 31964" d="M128.929,37.793a.349.349,0,0,0,.344-.344V36.234a.349.349,0,0,0-.344-.344h-1.592a.345.345,0,0,0-.344.344V37.45a.345.345,0,0,0,.344.344Zm-1.248-1.216h.9v.537h-.9Z" transform="translate(-53.742 -15.188)" fill="#002441"/>
    <path id="パス_31965" data-name="パス 31965" d="M123.2,37.793a.345.345,0,0,0,.344-.344V36.234a.345.345,0,0,0-.344-.344h-1.592a.348.348,0,0,0-.343.344V37.45a.348.348,0,0,0,.343.344Zm-1.248-1.216h.9v.537h-.9Z" transform="translate(-51.316 -15.188)" fill="#002441"/>
    <path id="パス_31966" data-name="パス 31966" d="M125.328,56.768h.569a.353.353,0,0,0,.352-.344v-.481a.357.357,0,0,0-.352-.352h-.569a.353.353,0,0,0-.352.352v.481a.344.344,0,0,0,.352.344" transform="translate(-52.888 -23.525)" fill="#002441"/>
    <path id="パス_31967" data-name="パス 31967" d="M127.008,71.556a.337.337,0,0,0,.344-.327V68.416h1.887a.344.344,0,0,0,0-.688h-1.887V66.264h1.432a.339.339,0,1,0,0-.679h-3.524a.339.339,0,1,0,0,.679h1.405v1.464h-1.808a.344.344,0,0,0,0,.688h1.808v2.813a.337.337,0,0,0,.344.327" transform="translate(-52.696 -27.755)" fill="#002441"/>
    <path id="パス_31968" data-name="パス 31968" d="M121.732,71.223a.336.336,0,0,0,.344-.335V65.247a.345.345,0,0,0-.344-.344h-1.644a.345.345,0,0,0-.344.344v4.338l-.678,1.038a.336.336,0,0,0-.048.178.332.332,0,0,0,.335.344.353.353,0,0,0,.294-.155l.727-1.122a.345.345,0,0,0,.048-.186v-.723h.618a.344.344,0,0,0,0-.688h-.618v-.957h.618a.344.344,0,1,0,0-.688h-.618V65.591h.974v5.3a.336.336,0,0,0,.335.335" transform="translate(-50.367 -27.466)" fill="#002441"/>
    <path id="パス_31969" data-name="パス 31969" d="M130.73,84.171a.265.265,0,0,0-.265.265.272.272,0,0,0,.265.265h.4a.279.279,0,0,0,.265-.265.272.272,0,0,0-.265-.265Z" transform="translate(-55.211 -35.62)" fill="#002441"/>
    <path id="パス_31970" data-name="パス 31970" d="M127.351,87.178a.284.284,0,0,0,0-.565h-1.373a.275.275,0,0,0-.274.283v2.379a.271.271,0,0,0,.274.274h1.4a.28.28,0,0,0,0-.557h-.3V88.7h.286a.266.266,0,0,0,.273-.265v-.726a.27.27,0,0,0-.273-.273h-.286v-.257Zm-.833,1.814h-.257V88.7h.257Zm-.257-1.814h.257v.257h-.257Zm.817.974h-.817v-.17h.817Z" transform="translate(-53.196 -36.653)" fill="#002441"/>
    <path id="パス_31971" data-name="パス 31971" d="M119.194,88.282a.337.337,0,0,0,.3-.168l.632-1.132a.373.373,0,0,0,.036-.163V86.1h.417a.344.344,0,0,0,.312-.2v2.131a.344.344,0,0,0,.688,0v-.351a.322.322,0,0,0,.155.039.317.317,0,0,0,.257-.142l.637-.9a.3.3,0,0,0,.062-.177V84.4h2.041v1.03a.38.38,0,0,0,.059.19l.519.766-.923,1.534a.348.348,0,0,0-.057.178.362.362,0,0,0,.353.344.352.352,0,0,0,.3-.157l.767-1.27.876,1.285a.322.322,0,0,0,.266.134.329.329,0,0,0,.352-.326.358.358,0,0,0-.06-.2l-1.052-1.535.582-.965a.337.337,0,0,0,.048-.178.344.344,0,0,0-.344-.352.336.336,0,0,0-.3.166l-.418.693-.281-.412V84.4h.924a.317.317,0,1,0,0-.634h-.924v-.181a.359.359,0,0,0-.009-.08.346.346,0,0,0,.158-.287V83.1H126.6a.34.34,0,0,0,.344-.344.344.344,0,0,0-.344-.335h-1.038V82.21a.339.339,0,1,0-.679,0v.216h-1.342V82.21a.344.344,0,1,0-.688,0v.216h-.916a.344.344,0,0,0-.344.335.34.34,0,0,0,.344.344h.916v.111a.344.344,0,1,0,.688,0V83.1h1.342v.111a.342.342,0,0,0,.011.082.336.336,0,0,0-.168.286v.181H122.36a.322.322,0,0,0-.317.317v2.307l-.467.667V82.385a.344.344,0,0,0-.344-.343h-1.417a.348.348,0,0,0-.344.343v4.35l-.585,1.042a.412.412,0,0,0-.036.171.325.325,0,0,0,.344.335m1.694-2.674a.344.344,0,0,0-.312-.2h-.417v-.957h.417a.344.344,0,0,0,.312-.2Zm0-1.645a.344.344,0,0,0-.312-.2h-.417V82.728h.729Z" transform="translate(-50.296 -34.645)" fill="#002441"/>
    <path id="パス_31972" data-name="パス 31972" d="M126.36,105.2a.336.336,0,0,0,.344-.335v-4.618a.348.348,0,0,0-.344-.344h-2.42v-.854a.344.344,0,0,0-.343-.344.349.349,0,0,0-.344.344V99.9H120.92a.357.357,0,0,0-.343.344v3.381l-.948.914a.31.31,0,0,0-.111.244.348.348,0,0,0,.58.249l1.075-1.022a.371.371,0,0,0,.091-.241v-3.181h1.988v1.136l-1.507,1.242a.345.345,0,0,0-.119.27.332.332,0,0,0,.344.335.352.352,0,0,0,.215-.073l1.422-1.17,1.3,1.039a.353.353,0,0,0,.213.072.332.332,0,0,0,.335-.344.314.314,0,0,0-.121-.263l-1.392-1.11v-1.135h2.085v4.274a.336.336,0,0,0,.335.335" transform="translate(-50.578 -41.769)" fill="#002441"/>
    <path id="パス_31973" data-name="パス 31973" d="M126.99,119.857h-1.467v-3.61a.344.344,0,0,0-.344-.344.348.348,0,0,0-.344.344v3.61h-2.628a.316.316,0,0,0,.036-.146.372.372,0,0,0-.118-.26l-.792-.708v-.325h.654a.344.344,0,1,0,0-.688h-.654V116.8l.787-.1a.344.344,0,0,0,.306-.335v-.046a.345.345,0,0,0-.353-.305h0l-2.571.341a.337.337,0,0,0-.3.335.346.346,0,0,0,.354.343h0l1.088-.136v.84h-1.169a.344.344,0,1,0,0,.688h1.169v.323l-1.586,1.329a.345.345,0,0,0-.119.27.346.346,0,0,0,.56.261l1.146-.968v2.474a.336.336,0,0,0,.344.326.34.34,0,0,0,.344-.326v-2.432l.328.292a.311.311,0,0,0,.2.087.323.323,0,0,0-.032.138.345.345,0,0,0,.344.344h2.665v1.572a.34.34,0,0,0,.344.326.336.336,0,0,0,.344-.326v-1.572h1.467a.339.339,0,1,0,0-.679" transform="translate(-50.334 -49.049)" fill="#002441"/>
    <path id="パス_31974" data-name="パス 31974" d="M127.626,117.984a.327.327,0,0,0-.119-.472l-1.023-.6a.337.337,0,0,0-.178-.048.336.336,0,0,0-.169.631l1.023.612a.335.335,0,0,0,.178.048.326.326,0,0,0,.288-.167" transform="translate(-53.305 -49.454)" fill="#002441"/>
    <path id="パス_31975" data-name="パス 31975" d="M127.067,119.773l-1.016-.616a.319.319,0,0,0-.185-.053.344.344,0,0,0-.344.344.338.338,0,0,0,.166.3l1.024.621a.349.349,0,0,0,.474-.119.326.326,0,0,0-.119-.472" transform="translate(-53.119 -50.403)" fill="#002441"/>
    <path id="パス_31976" data-name="パス 31976" d="M11.884,110.294H8.445v-.746a.76.76,0,0,0-.742-.757.742.742,0,0,0-.742.757v1.131a6.972,6.972,0,0,1-3.249,2.263.754.754,0,0,0-.531.714.727.727,0,0,0,.742.727c.84,0,2.584-1.2,3.136-1.684a7.744,7.744,0,0,0,.93-.935h3.138v.209a7.308,7.308,0,0,1-1.875,2.6A13.89,13.89,0,0,1,3.3,118.151a.735.735,0,0,0,.21,1.441.785.785,0,0,0,.212-.032l.038-.01a15.257,15.257,0,0,0,6.671-4.041c1.307-1.337,2.186-2.757,2.186-3.535v-.953a.728.728,0,0,0-.727-.727" transform="translate(-1.169 -46.039)" fill="#002441"/>
    <path id="パス_31977" data-name="パス 31977" d="M34.365,109.875a.752.752,0,0,0-.742.742v2.872c0,2.81-1.365,4.287-5.041,5.45a.738.738,0,0,0,.247,1.439.625.625,0,0,0,.215-.03,10.467,10.467,0,0,0,4.55-2.524l0,0a6.029,6.029,0,0,0,1.51-4.332v-2.872a.761.761,0,0,0-.742-.742" transform="translate(-11.879 -46.498)" fill="#002441"/>
    <path id="パス_31978" data-name="パス 31978" d="M30.021,115.312v-4.256a.742.742,0,0,0-1.485,0v4.256a.742.742,0,1,0,1.485,0" transform="translate(-12.076 -46.683)" fill="#002441"/>
    <path id="パス_31979" data-name="パス 31979" d="M51.109,113.388a.743.743,0,0,0,.742.742h6.28a.743.743,0,0,0,.742-.742.735.735,0,0,0-.742-.727h-6.28a.735.735,0,0,0-.742.727" transform="translate(-21.629 -47.677)" fill="#002441"/>
    <path id="パス_31980" data-name="パス 31980" d="M58.676,121.15H47.723a.752.752,0,0,0-.742.742.761.761,0,0,0,.742.742H58.676a.761.761,0,0,0,.742-.742.752.752,0,0,0-.742-.742" transform="translate(-19.882 -51.269)" fill="#002441"/>
    <path id="パス_31981" data-name="パス 31981" d="M82.229,117.156a.722.722,0,0,0,.683-.927l-.629-1.946a.706.706,0,0,0-1.377.225.7.7,0,0,0,.03.23l.629,1.93a.72.72,0,0,0,.664.487" transform="translate(-34.238 -48.157)" fill="#002441"/>
    <path id="パス_31982" data-name="パス 31982" d="M77.722,117.588a.691.691,0,0,0,.683-.712.72.72,0,0,0-.1-.371l-1.148-1.878a.7.7,0,0,0-1.3.373.72.72,0,0,0,.1.37l1.14,1.864a.693.693,0,0,0,.629.354" transform="translate(-32.098 -48.365)" fill="#002441"/>
    <path id="パス_31983" data-name="パス 31983" d="M83.293,113.926a.706.706,0,0,0-.712.7v1.443c0,.675-1.675,3.3-5.577,4.452a.728.728,0,0,0-.51.667.713.713,0,0,0,.713.727.62.62,0,0,0,.224-.033,12.089,12.089,0,0,0,4.807-2.751,4.947,4.947,0,0,0,1.767-3.063v-1.443a.706.706,0,0,0-.712-.7" transform="translate(-32.371 -48.212)" fill="#002441"/>
    <path id="パス_31984" data-name="パス 31984" d="M105.273,110.294h-3.44v-.746a.76.76,0,0,0-.742-.757.742.742,0,0,0-.742.757v1.131a6.971,6.971,0,0,1-3.249,2.263.754.754,0,0,0-.531.714.727.727,0,0,0,.742.727c.84,0,2.584-1.2,3.136-1.684a7.691,7.691,0,0,0,.93-.935h3.138v.209a7.3,7.3,0,0,1-1.875,2.6,13.885,13.885,0,0,1-5.957,3.583.735.735,0,0,0,.21,1.441.785.785,0,0,0,.212-.032l.038-.01a15.25,15.25,0,0,0,6.671-4.041c1.307-1.336,2.186-2.757,2.186-3.535v-.953a.728.728,0,0,0-.727-.727" transform="translate(-40.69 -46.039)" fill="#002441"/>
    <path id="パス_31985" data-name="パス 31985" d="M24.156,78.568,18.29,73.89V68.98h8.944v18a1.312,1.312,0,0,0,2.623,0V67.649a1.348,1.348,0,0,0-1.33-1.33H18.29V62.635a1.331,1.331,0,0,0-1.33-1.33,1.347,1.347,0,0,0-1.33,1.33V66.32H5.759a1.382,1.382,0,0,0-1.33,1.33v14.2l-4,3.861A1.2,1.2,0,0,0,0,86.648a1.288,1.288,0,0,0,1.33,1.33,1.363,1.363,0,0,0,.917-.366l4.466-4.246.021-.023a1.439,1.439,0,0,0,.355-.94V68.98H15.63v4.913l-6.349,5.23a1.332,1.332,0,0,0-.46,1.046,1.283,1.283,0,0,0,1.33,1.293,1.36,1.36,0,0,0,.829-.281L17,76.231l5.5,4.4a1.361,1.361,0,0,0,.827.278,1.283,1.283,0,0,0,1.293-1.33,1.206,1.206,0,0,0-.467-1.015" transform="translate(0 -25.943)" fill="#002441"/>
    <path id="パス_31986" data-name="パス 31986" d="M92.115,70.032a1.261,1.261,0,0,0-.462-1.83l-4.281-2.524a1.3,1.3,0,0,0-.687-.185,1.3,1.3,0,0,0-.65,2.439l4.282,2.562a1.3,1.3,0,0,0,.687.185,1.256,1.256,0,0,0,1.111-.647" transform="translate(-36.121 -27.716)" fill="#002441"/>
    <path id="パス_31987" data-name="パス 31987" d="M89.551,78.041H83.3V62.826a1.331,1.331,0,0,0-1.33-1.33,1.347,1.347,0,0,0-1.33,1.33V78.041h-11.3a1.258,1.258,0,0,0,.231-.721,1.446,1.446,0,0,0-.456-1l-3.351-3V71.805h2.843a1.33,1.33,0,1,0,0-2.659H65.77V65.038l3.39-.445A1.327,1.327,0,0,0,70.345,63.3v-.147l0-.033a1.331,1.331,0,0,0-1.328-1.187l-10.8,1.43a1.3,1.3,0,0,0-1.148,1.291,1.331,1.331,0,0,0,1.33,1.33l4.71-.587v3.748h-5a1.33,1.33,0,1,0,0,2.659h5v1.51l-6.678,5.6a1.332,1.332,0,0,0-.46,1.046,1.34,1.34,0,0,0,2.162,1.01l4.976-4.2V87.351a1.3,1.3,0,0,0,1.33,1.256,1.312,1.312,0,0,0,1.33-1.256V76.931l1.556,1.386a1.234,1.234,0,0,0,.936.332,1.247,1.247,0,0,0-.21.686,1.331,1.331,0,0,0,1.33,1.33H80.644v6.687a1.312,1.312,0,0,0,1.33,1.256,1.3,1.3,0,0,0,1.33-1.256V80.664h6.247a1.312,1.312,0,1,0,0-2.623" transform="translate(-23.687 -26.024)" fill="#002441"/>
    <path id="パス_31988" data-name="パス 31988" d="M89.816,77.67l-4.273-2.593a1.239,1.239,0,0,0-.7-.191,1.331,1.331,0,0,0-1.33,1.33,1.3,1.3,0,0,0,.641,1.145l4.284,2.6a1.352,1.352,0,0,0,1.834-.462,1.259,1.259,0,0,0-.459-1.828" transform="translate(-35.342 -31.691)" fill="#002441"/>
  </g>
</svg>
