<svg id="footer-logo" xmlns="http://www.w3.org/2000/svg" xmlns:xlink="http://www.w3.org/1999/xlink" width="133.492" height="128.084" viewBox="0 0 133.492 128.084">
  <defs>
    <clipPath id="clip-path">
      <rect id="長方形_1" data-name="長方形 1" width="133.492" height="128.084" fill="none"/>
    </clipPath>
  </defs>
  <g id="グループ_1" data-name="グループ 1" clip-path="url(#clip-path)">
    <path id="パス_1" data-name="パス 1" d="M120.428,2.369l2.107.7a.568.568,0,0,0,.186.023.6.6,0,0,0,.573-.41.568.568,0,0,0,.023-.186.59.59,0,0,0-.41-.557l-2.107-.7a.571.571,0,0,0-.186-.023.581.581,0,0,0-.581.58.6.6,0,0,0,.4.573" fill="#fff"/>
    <path id="パス_2" data-name="パス 2" d="M124.54,2.721l1.3.741a.581.581,0,0,0,.308.083.564.564,0,0,0,.5-.29.6.6,0,0,0,.1-.306.6.6,0,0,0-.306-.514l-1.286-.741a.6.6,0,0,0-.613,1.027" fill="#fff"/>
    <path id="パス_3" data-name="パス 3" d="M130.546,3.575a.664.664,0,0,0,.33-.1l1.243-.834a.586.586,0,0,0,.266-.494.669.669,0,0,0-.107-.351.611.611,0,0,0-.834-.142l-1.227.833a.587.587,0,0,0-.267.494.6.6,0,0,0,.6.6" fill="#fff"/>
    <path id="パス_4" data-name="パス 4" d="M4.92,51.939a2.842,2.842,0,0,0,.825-.165L50.913,32.368l.034-.017A2.448,2.448,0,0,0,52.291,30.4v-.2a2.3,2.3,0,0,0-.9-1.859L41.269,20.811V19.242A2.431,2.431,0,0,0,38.932,16.9a2.4,2.4,0,0,0-2.338,2.339v1.093L8.308,31.194a2.357,2.357,0,0,0-1.465,2.18,2.281,2.281,0,0,0,2.27,2.338,2.832,2.832,0,0,0,.879-.161l11.592-4.473a2.618,2.618,0,0,0-.069.606,2.3,2.3,0,0,0,.812,1.777l4.8,4L3.885,47.5a2.376,2.376,0,0,0-1.37,2.169,2.349,2.349,0,0,0,2.4,2.27M25.095,29.73,38.536,24.6l6.812,5.032L31.9,35.438l-6.559-5.509a1.7,1.7,0,0,0-.242-.2" fill="#fff"/>
    <path id="パス_5" data-name="パス 5" d="M6.408,26.854a2.342,2.342,0,0,0,.735-.156L43.93,13.647a2.26,2.26,0,0,0,1.531-1.872V11.4a2.186,2.186,0,0,0-1.049-1.87l-8.89-5.839V2.338a2.338,2.338,0,1,0-4.676,0V3.2L7.582,9.889a2.314,2.314,0,0,0-1.687,2.186A2.408,2.408,0,0,0,8.3,14.413a1.524,1.524,0,0,0,.605-.09l8.751-2.509a2.2,2.2,0,0,0-.131.734,2.328,2.328,0,0,0,.722,1.69l2.679,2.621L5.544,22.333A2.257,2.257,0,0,0,4,24.517a2.3,2.3,0,0,0,2.406,2.337M21.385,10.771,32.852,7.548l5.033,3.278L25.907,15.091,21.48,10.859c-.03-.03-.062-.059-.095-.088" fill="#fff"/>
    <path id="パス_6" data-name="パス 6" d="M55.694,49.708a2.3,2.3,0,0,0,1.936-.979l6-9.033a1.844,1.844,0,0,0,.42-1.318v-17.2H79.428a2.335,2.335,0,0,0,2.337-2.27V4.23a2.339,2.339,0,0,0-2.337-2.337H61.78A2.34,2.34,0,0,0,59.442,4.23V37.654l-5.694,8.44a2.587,2.587,0,0,0-.392,1.277,2.286,2.286,0,0,0,2.338,2.337m20.054-38.04A2.1,2.1,0,0,0,73.68,9.6H64.05V6.569H77.09V16.634H64.05V13.669h9.63a2.088,2.088,0,0,0,2.068-2" fill="#fff"/>
    <path id="パス_7" data-name="パス 7" d="M90.748,49.2a2.213,2.213,0,0,0,4.406,0V27.327h4.964a2.1,2.1,0,1,0,0-4.2H71.651a2.1,2.1,0,0,0,0,4.2h3.41V41.99H70.907a2.2,2.2,0,0,0,0,4.4H90.748ZM89.406,37.566A1.925,1.925,0,0,0,87.474,35.7H79.466V33.345h8.008a1.866,1.866,0,1,0,0-3.729H79.466V27.327H90.748V41.99H79.466V39.431h8.008a1.879,1.879,0,0,0,1.932-1.865" fill="#fff"/>
    <path id="パス_8" data-name="パス 8" d="M91.261,21.174h16.122V47.709a2.34,2.34,0,0,0,2.338,2.337,2.4,2.4,0,0,0,2.337-2.337V4.23a2.4,2.4,0,0,0-2.337-2.337H91.261A2.34,2.34,0,0,0,88.923,4.23V18.9a2.336,2.336,0,0,0,2.338,2.27m14.983-9.506a2.038,2.038,0,0,0-2-2.067H93.6V6.569h13.784V16.634H93.6V13.669h10.644a2.028,2.028,0,0,0,2-2" fill="#fff"/>
    <path id="パス_9" data-name="パス 9" d="M5.325,55.177a.873.873,0,0,0,0,1.746H38.514a.873.873,0,0,0,0-1.746Z" fill="#dc000c"/>
    <path id="パス_10" data-name="パス 10" d="M78.024,56.05a.873.873,0,0,0,.873.873h33.188a.873.873,0,1,0,0-1.746H78.9a.873.873,0,0,0-.873.873" fill="#dc000c"/>
    <path id="パス_11" data-name="パス 11" d="M46.741,54.923a.56.56,0,0,0,.566-.566V53.31a.572.572,0,0,0-.566-.576H42.482a.577.577,0,0,0-.577.576v1.047a.572.572,0,0,0,.577.566.56.56,0,0,0,.566-.566v-.481h.962v5.33a.578.578,0,0,0,.576.566.567.567,0,0,0,.566-.566v-5.33h1.013v.481a.572.572,0,0,0,.576.566" fill="#fff"/>
    <path id="パス_12" data-name="パス 12" d="M50.931,52.734a.575.575,0,0,0-.543.4L48.5,59.022a.586.586,0,0,0-.034.184.564.564,0,0,0,.576.566.587.587,0,0,0,.543-.394l.471-1.456h2.759l.458,1.447a.561.561,0,0,0,.527.4.582.582,0,0,0,.586-.576.5.5,0,0,0-.023-.17L52.5,53.141a.577.577,0,0,0-.544-.407Zm.6,1.142.922,2.9h-2.04l.93-2.9Z" fill="#fff"/>
    <path id="パス_13" data-name="パス 13" d="M61.1,59.772a.573.573,0,0,0,.566-.566v-5.9a.579.579,0,0,0-.566-.577h-.641a.528.528,0,0,0-.418.2l-1.372,1.532-1.244-1.517a.594.594,0,0,0-.442-.214h-.773a.577.577,0,0,0-.576.577v5.9a.571.571,0,0,0,1.142,0V53.95l1.3,1.6v.975a.572.572,0,0,0,.576.566.56.56,0,0,0,.566-.566v-.948L60.522,54.1v5.109a.579.579,0,0,0,.576.566" fill="#fff"/>
    <path id="パス_14" data-name="パス 14" d="M66.274,52.734h-.59a1.68,1.68,0,0,0-1.637,1.021c-.991,1.652-1.074,2.048-1.074,2.29v.3c0,.25.13.7,1.074,2.278a1.68,1.68,0,0,0,1.637,1.022h.59c.829,0,1.151-.2,1.638-1.022.934-1.575,1.063-2.026,1.063-2.278v-.3c0-.268-.129-.731-1.063-2.289-.487-.821-.809-1.022-1.638-1.022m0,5.764h-.59c-.278,0-.383,0-.659-.461a11.08,11.08,0,0,1-.909-1.708h0l0-.247a9.681,9.681,0,0,1,.913-1.737c.272-.47.369-.47.658-.47h.59c.387,0,.387,0,.659.471a9.653,9.653,0,0,1,.9,1.724v.238a8.246,8.246,0,0,1-.9,1.728c-.271.461-.271.461-.659.461" fill="#fff"/>
    <path id="パス_15" data-name="パス 15" d="M74.238,53.178v4.386L71.7,53.033a.585.585,0,0,0-.5-.3H70.86a.577.577,0,0,0-.577.576v5.9a.579.579,0,0,0,.577.566.567.567,0,0,0,.566-.566V54.9l2.5,4.454a.578.578,0,0,0,.5.289h.386a.567.567,0,0,0,.566-.566v-5.9a.571.571,0,1,0-1.142,0" fill="#fff"/>
    <path id="パス_16" data-name="パス 16" d="M119.9,6.562h1.347l-1.373,4.192a.661.661,0,0,0-.039.2.613.613,0,0,0,.611.6.709.709,0,0,0,.21-.042l2.639-1.077.005,0a.613.613,0,0,0,.38-.552.511.511,0,0,0-.055-.22.586.586,0,0,0-.556-.376.716.716,0,0,0-.21.042l-1.463.588,1.23-3.761a.659.659,0,0,0,.038-.2.568.568,0,0,0-.6-.566H119.9a.583.583,0,0,0-.6.581.6.6,0,0,0,.6.6" fill="#fff"/>
    <path id="パス_17" data-name="パス 17" d="M124.238,11.961a.607.607,0,0,0,.491-.248l1.424-2h3.422a.6.6,0,1,0,0-1.192H126.32V7.594h3.225a.589.589,0,0,0,.581-.581.6.6,0,0,0-.581-.6H126.32V5.38h4.024v6.288a.6.6,0,0,0,1.192,0V4.784a.6.6,0,0,0-.6-.6h-2.012V1.448a.589.589,0,1,0-1.177,0v2.74h-2.027a.6.6,0,0,0-.6.6v4.3l-1.377,1.939a.537.537,0,0,0-.109.34.577.577,0,0,0,.6.6" fill="#fff"/>
    <path id="パス_18" data-name="パス 18" d="M126.9,23.676l3.729-1.356a.577.577,0,0,0,.4-.558.6.6,0,0,0-.611-.6.552.552,0,0,0-.189.025L126.9,22.4V19.912a.6.6,0,1,0-1.192,0v7.976a.6.6,0,0,0,.6.6h6.2a.6.6,0,1,0,0-1.192H126.9Z" fill="#fff"/>
    <path id="パス_19" data-name="パス 19" d="M120.029,22.869l1.884-1.51v7.5a.583.583,0,0,0,.6.566.59.59,0,0,0,.6-.566V20.912a.6.6,0,0,0-.152-.391l1.624-1.291,0,0a.586.586,0,0,0,.207-.453.578.578,0,0,0-.129-.374.6.6,0,0,0-.822-.081l-4.545,3.621a.582.582,0,0,0-.245.474.612.612,0,0,0,.982.455" fill="#fff"/>
    <path id="パス_20" data-name="パス 20" d="M124.966,46.635a.6.6,0,0,0,.6-.6V43.628a.6.6,0,0,0-.6-.6h-3.018a.6.6,0,0,0-.6.6v2.411a.6.6,0,0,0,.6.6Zm-2.422-2.411h1.825v1.219h-1.825Z" fill="#fff"/>
    <path id="パス_21" data-name="パス 21" d="M130.334,46.635a.6.6,0,0,0,.6-.6V43.628a.6.6,0,0,0-.6-.6h-3.018a.6.6,0,0,0-.6.6v2.411a.6.6,0,0,0,.6.6Zm-2.422-2.411h1.826v1.219h-1.826Z" fill="#fff"/>
    <path id="パス_22" data-name="パス 22" d="M132.548,43.891a.6.6,0,0,0,.61-.6.605.605,0,0,0-.349-.552l-4.08-1.87H131.2a.588.588,0,1,0,0-1.176h-4.468v-.936a.6.6,0,1,0-1.192,0V39.7h-4.5a.588.588,0,1,0,0,1.176H123.5l-4.058,1.873a.623.623,0,0,0-.345.534.613.613,0,0,0,.6.611.58.58,0,0,0,.248-.06l6.181-2.852,6.194,2.85a.49.49,0,0,0,.236.062" fill="#fff"/>
    <path id="パス_23" data-name="パス 23" d="M130.349,39.19a.6.6,0,0,0,.6-.6V36.486a.6.6,0,0,0-.6-.6h-2.76a.6.6,0,0,0-.6.6v2.108a.6.6,0,0,0,.6.6Zm-2.164-2.108h1.568v.931h-1.568Z" fill="#fff"/>
    <path id="パス_24" data-name="パス 24" d="M124.617,39.19a.6.6,0,0,0,.6-.6V36.486a.6.6,0,0,0-.6-.6h-2.76a.6.6,0,0,0-.6.6v2.108a.6.6,0,0,0,.6.6Zm-2.164-2.108h1.568v.931h-1.568Z" fill="#fff"/>
    <path id="パス_25" data-name="パス 25" d="M125.587,57.632h.986a.612.612,0,0,0,.611-.6V56.2a.619.619,0,0,0-.611-.611h-.986a.612.612,0,0,0-.611.611v.834a.6.6,0,0,0,.611.6" fill="#fff"/>
    <path id="パス_26" data-name="パス 26" d="M128.832,75.936a.584.584,0,0,0,.6-.567V70.493H132.7a.6.6,0,0,0,0-1.193h-3.271V66.762h2.482a.589.589,0,1,0,0-1.177H125.8a.589.589,0,1,0,0,1.177h2.436V69.3H125.1a.6.6,0,0,0,0,1.193h3.134v4.876a.584.584,0,0,0,.6.567" fill="#fff"/>
    <path id="パス_27" data-name="パス 27" d="M123.723,75.86a.582.582,0,0,0,.6-.581V65.5a.6.6,0,0,0-.6-.6h-2.851a.6.6,0,0,0-.6.6v7.52l-1.175,1.8a.583.583,0,0,0-.083.308.576.576,0,0,0,.581.6.612.612,0,0,0,.51-.269l1.261-1.945a.6.6,0,0,0,.083-.323V71.933h1.072a.6.6,0,1,0,0-1.192h-1.072V69.082h1.072a.6.6,0,1,0,0-1.192h-1.072V66.1h1.689v9.184a.582.582,0,0,0,.581.581" fill="#fff"/>
    <path id="パス_28" data-name="パス 28" d="M130.925,84.171a.46.46,0,0,0-.46.459.472.472,0,0,0,.46.46h.7a.484.484,0,0,0,.459-.46.472.472,0,0,0-.459-.459Z" fill="#fff"/>
    <path id="パス_29" data-name="パス 29" d="M128.559,87.592a.492.492,0,0,0,0-.979h-2.38a.478.478,0,0,0-.475.49v4.124a.47.47,0,0,0,.475.475H128.6a.486.486,0,0,0,0-.965h-.526V90.23h.5a.461.461,0,0,0,.474-.459V88.512a.469.469,0,0,0-.474-.474h-.5v-.446Zm-1.445,3.145h-.446V90.23h.446Zm-.445-3.145h.446v.446h-.446Zm1.416,1.689h-1.416v-.294h1.416Z" fill="#fff"/>
    <path id="パス_30" data-name="パス 30" d="M119.446,92.99a.584.584,0,0,0,.515-.292l1.1-1.962a.647.647,0,0,0,.063-.283V89.2h.723a.6.6,0,0,0,.541-.347v3.694a.6.6,0,0,0,1.192,0v-.609a.558.558,0,0,0,.268.067.55.55,0,0,0,.446-.247l1.1-1.559a.519.519,0,0,0,.108-.306V86.257h3.539v1.785a.659.659,0,0,0,.1.33l.9,1.328-1.6,2.659a.6.6,0,0,0-.1.308.628.628,0,0,0,.612.6.61.61,0,0,0,.512-.273l1.33-2.2,1.518,2.228a.558.558,0,0,0,.461.232.571.571,0,0,0,.611-.566.621.621,0,0,0-.1-.346l-1.823-2.661L132.468,88a.584.584,0,0,0,.084-.308.6.6,0,0,0-.6-.611.583.583,0,0,0-.513.287l-.724,1.2-.487-.714v-1.6h1.6a.55.55,0,1,0,0-1.1h-1.6v-.314a.623.623,0,0,0-.016-.139.6.6,0,0,0,.274-.5v-.193h1.8a.59.59,0,0,0,.6-.6.6.6,0,0,0-.6-.58h-1.8v-.375a.589.589,0,1,0-1.177,0v.375h-2.326v-.375a.6.6,0,0,0-1.192,0v.375h-1.588a.6.6,0,0,0-.6.58.59.59,0,0,0,.6.6h1.588v.193a.6.6,0,1,0,1.192,0v-.193h2.326v.193a.593.593,0,0,0,.019.142.582.582,0,0,0-.292.5v.314h-4.1a.558.558,0,0,0-.55.55v4l-.81,1.157v-8.1a.6.6,0,0,0-.6-.6h-2.456a.6.6,0,0,0-.6.6v7.541l-1.015,1.806a.714.714,0,0,0-.062.3.563.563,0,0,0,.6.581m2.937-4.635a.6.6,0,0,0-.541-.348h-.723V86.348h.723a.6.6,0,0,0,.541-.347Zm0-2.851a.6.6,0,0,0-.541-.347h-.723v-1.8h1.264Z" fill="#fff"/>
    <path id="パス_31" data-name="パス 31" d="M131.38,109.961a.582.582,0,0,0,.6-.581v-8.006a.6.6,0,0,0-.6-.6h-4.2V99.3a.6.6,0,0,0-.6-.6.6.6,0,0,0-.6.6v1.481h-4.044a.619.619,0,0,0-.6.6v5.862l-1.643,1.585a.538.538,0,0,0-.192.423.6.6,0,0,0,1.006.431l1.863-1.772a.643.643,0,0,0,.158-.418V101.97h3.447v1.969l-2.613,2.153a.6.6,0,0,0-.207.468.576.576,0,0,0,.6.581.61.61,0,0,0,.372-.127l2.465-2.028,2.252,1.8a.611.611,0,0,0,.37.125.575.575,0,0,0,.58-.6.545.545,0,0,0-.21-.456l-2.413-1.924V101.97H130.8v7.41a.582.582,0,0,0,.581.581" fill="#fff"/>
    <path id="パス_32" data-name="パス 32" d="M132.9,122.758h-2.543V116.5a.6.6,0,0,0-.6-.6.6.6,0,0,0-.6.6v6.258h-4.556a.547.547,0,0,0,.062-.253.645.645,0,0,0-.2-.45l-1.373-1.227v-.563h1.133a.6.6,0,1,0,0-1.192H123.09v-1.617l1.365-.179a.6.6,0,0,0,.531-.58l0-.08a.6.6,0,0,0-.612-.529h0l-4.458.591a.584.584,0,0,0-.515.58.6.6,0,0,0,.613.594h0l1.887-.236v1.456h-2.027a.6.6,0,1,0,0,1.192H121.9v.56l-2.75,2.3a.6.6,0,0,0-.207.468.6.6,0,0,0,.97.452l1.987-1.678v4.289a.583.583,0,0,0,.6.565.589.589,0,0,0,.6-.565v-4.217l.568.506a.539.539,0,0,0,.343.15.56.56,0,0,0-.056.24.6.6,0,0,0,.6.6h4.62v2.725a.589.589,0,0,0,.6.565.582.582,0,0,0,.6-.565v-2.725H132.9a.589.589,0,1,0,0-1.177" fill="#fff"/>
    <path id="パス_33" data-name="パス 33" d="M128.846,118.808a.566.566,0,0,0-.207-.819l-1.773-1.046a.583.583,0,0,0-.308-.083.583.583,0,0,0-.293,1.094l1.774,1.061a.581.581,0,0,0,.308.083.564.564,0,0,0,.5-.29" fill="#fff"/>
    <path id="パス_34" data-name="パス 34" d="M128.2,120.264l-1.762-1.068a.553.553,0,0,0-.321-.092.6.6,0,0,0-.6.6.586.586,0,0,0,.288.513l1.775,1.076a.6.6,0,0,0,.822-.207.566.566,0,0,0-.206-.818" fill="#fff"/>
    <path id="パス_35" data-name="パス 35" d="M18.576,111.4H12.613V110.1a1.317,1.317,0,0,0-1.287-1.313,1.286,1.286,0,0,0-1.287,1.313v1.96a12.086,12.086,0,0,1-5.632,3.924,1.308,1.308,0,0,0-.921,1.237,1.261,1.261,0,0,0,1.287,1.261c1.457,0,4.479-2.088,5.437-2.92a13.425,13.425,0,0,0,1.613-1.621h5.44v.362c-.02.377-.985,2.208-3.25,4.5a24.081,24.081,0,0,1-10.327,6.211,1.274,1.274,0,0,0,.364,2.5,1.361,1.361,0,0,0,.367-.055l.066-.017a26.451,26.451,0,0,0,11.565-7.006c2.266-2.318,3.789-4.78,3.789-6.128v-1.652a1.263,1.263,0,0,0-1.261-1.261" fill="#fff"/>
    <path id="パス_36" data-name="パス 36" d="M38.982,109.875a1.3,1.3,0,0,0-1.287,1.287v4.979c0,4.872-2.366,7.432-8.739,9.448a1.279,1.279,0,0,0,.428,2.5,1.083,1.083,0,0,0,.373-.052c3.7-1.2,6.21-2.589,7.889-4.375l.005,0a10.452,10.452,0,0,0,2.618-7.511v-4.979a1.32,1.32,0,0,0-1.287-1.287" fill="#fff"/>
    <path id="パス_37" data-name="パス 37" d="M31.11,118.979V111.6a1.287,1.287,0,0,0-2.574,0v7.379a1.287,1.287,0,1,0,2.574,0" fill="#fff"/>
    <path id="パス_38" data-name="パス 38" d="M51.109,113.922a1.288,1.288,0,0,0,1.287,1.287H63.284a1.288,1.288,0,0,0,1.287-1.287,1.275,1.275,0,0,0-1.287-1.261H52.4a1.275,1.275,0,0,0-1.287,1.261" fill="#fff"/>
    <path id="パス_39" data-name="パス 39" d="M67.257,121.15H48.268a1.3,1.3,0,0,0-1.287,1.287,1.32,1.32,0,0,0,1.287,1.287H67.257a1.32,1.32,0,0,0,1.287-1.287,1.3,1.3,0,0,0-1.287-1.287" fill="#fff"/>
    <path id="パス_40" data-name="パス 40" d="M83.2,119.621a1.251,1.251,0,0,0,1.184-1.607l-1.09-3.373a1.224,1.224,0,0,0-2.387.39,1.207,1.207,0,0,0,.052.4l1.09,3.346a1.247,1.247,0,0,0,1.151.845" fill="#fff"/>
    <path id="パス_41" data-name="パス 41" d="M79.1,120.009a1.2,1.2,0,0,0,1.184-1.235,1.248,1.248,0,0,0-.182-.643l-1.99-3.255a1.217,1.217,0,0,0-2.26.647,1.247,1.247,0,0,0,.182.642l1.976,3.231a1.2,1.2,0,0,0,1.09.613" fill="#fff"/>
    <path id="パス_42" data-name="パス 42" d="M88.282,113.926a1.224,1.224,0,0,0-1.235,1.21v2.5c0,1.17-2.9,5.713-9.668,7.719a1.262,1.262,0,0,0-.885,1.157,1.236,1.236,0,0,0,1.236,1.261,1.075,1.075,0,0,0,.389-.057,20.957,20.957,0,0,0,8.334-4.77c1.919-1.85,3.064-3.835,3.064-5.31v-2.5a1.224,1.224,0,0,0-1.235-1.21" fill="#fff"/>
    <path id="パス_43" data-name="パス 43" d="M111.965,111.4H106V110.1a1.318,1.318,0,0,0-1.287-1.313,1.286,1.286,0,0,0-1.287,1.313v1.96a12.086,12.086,0,0,1-5.632,3.924,1.308,1.308,0,0,0-.921,1.237,1.261,1.261,0,0,0,1.287,1.261c1.457,0,4.479-2.088,5.437-2.92a13.333,13.333,0,0,0,1.612-1.621h5.441v.362c-.02.377-.984,2.208-3.25,4.5a24.071,24.071,0,0,1-10.327,6.211,1.274,1.274,0,0,0,.364,2.5,1.361,1.361,0,0,0,.367-.055l.066-.017a26.438,26.438,0,0,0,11.565-7.006c2.266-2.317,3.789-4.78,3.789-6.128v-1.652a1.263,1.263,0,0,0-1.261-1.261" fill="#fff"/>
    <path id="パス_44" data-name="パス 44" d="M41.878,91.233l-10.169-8.11V74.61H47.215v31.2a2.274,2.274,0,0,0,4.548,0V72.3A2.337,2.337,0,0,0,49.457,70H31.709V63.61A2.308,2.308,0,0,0,29.4,61.305,2.336,2.336,0,0,0,27.1,63.61V70H9.984A2.4,2.4,0,0,0,7.679,72.3V96.92L.738,103.614A2.075,2.075,0,0,0,0,105.241a2.232,2.232,0,0,0,2.305,2.305,2.363,2.363,0,0,0,1.59-.635l7.742-7.362.037-.04a2.5,2.5,0,0,0,.616-1.63V74.61H27.1v8.518L16.091,92.195a2.31,2.31,0,0,0-.8,1.813A2.225,2.225,0,0,0,17.6,96.25a2.357,2.357,0,0,0,1.437-.487l10.434-8.581,9.542,7.634a2.36,2.36,0,0,0,1.433.482,2.224,2.224,0,0,0,2.242-2.305,2.091,2.091,0,0,0-.81-1.76" fill="#fff"/>
    <path id="パス_45" data-name="パス 45" d="M97.074,73.362a2.186,2.186,0,0,0-.8-3.172l-7.422-4.376a2.246,2.246,0,0,0-1.191-.321,2.25,2.25,0,0,0-1.127,4.228l7.424,4.442a2.255,2.255,0,0,0,1.191.32,2.178,2.178,0,0,0,1.926-1.121" fill="#fff"/>
    <path id="パス_46" data-name="パス 46" d="M114.187,90.18H103.356V63.8A2.308,2.308,0,0,0,101.05,61.5,2.336,2.336,0,0,0,98.745,63.8V90.18H79.157a2.181,2.181,0,0,0,.4-1.25,2.507,2.507,0,0,0-.79-1.742L72.958,82V79.369h4.929a2.305,2.305,0,0,0,0-4.61H72.958V67.636l5.877-.772a2.3,2.3,0,0,0,2.055-2.238v-.254l0-.058a2.308,2.308,0,0,0-2.3-2.057L59.866,64.736a2.253,2.253,0,0,0-1.99,2.238,2.308,2.308,0,0,0,2.305,2.305l8.166-1.017v6.5H59.674a2.305,2.305,0,1,0,0,4.61h8.673v2.618l-11.578,9.7a2.31,2.31,0,0,0-.8,1.813,2.322,2.322,0,0,0,3.748,1.751l8.627-7.286V106.32a2.247,2.247,0,0,0,2.306,2.178,2.274,2.274,0,0,0,2.305-2.178V88.255l2.7,2.4a2.14,2.14,0,0,0,1.623.575,2.162,2.162,0,0,0-.364,1.19,2.308,2.308,0,0,0,2.306,2.305H98.745V106.32a2.274,2.274,0,0,0,2.305,2.178,2.247,2.247,0,0,0,2.306-2.178V94.727h10.831a2.274,2.274,0,1,0,0-4.547" fill="#fff"/>
    <path id="パス_47" data-name="パス 47" d="M94.438,79.713,87.03,75.218a2.149,2.149,0,0,0-1.21-.332,2.308,2.308,0,0,0-2.305,2.305,2.256,2.256,0,0,0,1.112,1.985l7.427,4.507a2.344,2.344,0,0,0,3.18-.8,2.183,2.183,0,0,0-.8-3.169" fill="#fff"/>
  </g>
</svg>
