<svg xmlns="http://www.w3.org/2000/svg" width="29.085" height="29.085" viewBox="0 0 29.085 29.085">
  <g id="tel" transform="translate(-222.313 -533.331)">
    <circle id="楕円形_299" data-name="楕円形 299" cx="14.542" cy="14.542" r="14.542" transform="translate(222.313 533.331)" fill="#802"/>
    <path id="パス_32085" data-name="パス 32085" d="M1.081.668c-1.084.7-1.3,2.9-.887,4.69a16.173,16.173,0,0,0,2.138,5.026,16.8,16.8,0,0,0,3.717,4c1.468,1.1,3.561,1.805,4.644,1.1a5.491,5.491,0,0,0,1.4-1.5l-.582-.9-1.6-2.468c-.119-.183-.865-.016-1.244.2a3.607,3.607,0,0,0-.982,1.067c-.351.2-.644,0-1.258-.282a7.47,7.47,0,0,1-2.276-2.4A7.471,7.471,0,0,1,2.885,6.148c-.008-.675-.072-1.026.256-1.263a3.608,3.608,0,0,0,1.375-.461c.35-.259.808-.871.689-1.055L3.6.9,3.022,0A5.489,5.489,0,0,0,1.081.668Z" transform="matrix(0.995, -0.105, 0.105, 0.995, 230.018, 541.082)" fill="#fff"/>
  </g>
</svg>
