<svg xmlns="http://www.w3.org/2000/svg" width="38" height="38" viewBox="0 0 38 38">
  <g id="tel-round" transform="translate(-309.738 -1450.784)">
    <circle id="tel-round-2" data-name="tel-round" cx="19" cy="19" r="19" transform="translate(309.738 1450.784)" fill="#802"/>
    <path id="パス_32048" data-name="パス 32048" d="M1.413.873C0,1.791-.281,4.662.253,7a21.131,21.131,0,0,0,2.794,6.566A21.951,21.951,0,0,0,7.9,18.8c1.918,1.442,4.652,2.359,6.068,1.44A7.174,7.174,0,0,0,15.8,18.276L15.038,17.1l-2.092-3.225c-.155-.24-1.13-.021-1.625.26a4.713,4.713,0,0,0-1.283,1.394c-.458.265-.842,0-1.643-.368a9.76,9.76,0,0,1-2.974-3.137A9.761,9.761,0,0,1,3.77,8.033c-.01-.882-.094-1.34.334-1.65a4.714,4.714,0,0,0,1.8-.6c.458-.338,1.055-1.138.9-1.378L4.709,1.176,3.948,0A7.171,7.171,0,0,0,1.413.873Z" transform="matrix(0.995, -0.105, 0.105, 0.995, 319.805, 1460.911)" fill="#fff"/>
  </g>
</svg>
