<svg xmlns="http://www.w3.org/2000/svg" width="18.219" height="22.581" viewBox="0 0 18.219 22.581">
  <path id="tel-icon" d="M386.9,368.89c-1.444.936-1.727,3.863-1.182,6.249a21.548,21.548,0,0,0,2.849,6.7,22.384,22.384,0,0,0,4.952,5.332c1.956,1.47,4.744,2.405,6.188,1.469a7.315,7.315,0,0,0,1.864-2l-.776-1.2-2.133-3.289c-.159-.244-1.153-.021-1.657.265a4.806,4.806,0,0,0-1.309,1.421c-.467.27-.858,0-1.676-.375a12.085,12.085,0,0,1-4.717-7.273c-.01-.9-.1-1.366.341-1.683a4.807,4.807,0,0,0,1.832-.615c.467-.344,1.076-1.161.918-1.405l-2.133-3.289-.775-1.2A7.312,7.312,0,0,0,386.9,368.89Z" transform="matrix(0.995, -0.105, 0.105, 0.995, -421.819, -324.008)"/>
</svg>
