<svg xmlns="http://www.w3.org/2000/svg" xmlns:xlink="http://www.w3.org/1999/xlink" width="38" height="38" viewBox="0 0 38 38">
  <defs>
    <clipPath id="clip-path">
      <rect id="長方形_5907" data-name="長方形 5907" width="20" height="19" transform="translate(0.352 -0.499)" fill="#802"/>
    </clipPath>
  </defs>
  <g id="web-round" transform="translate(-817.369 -1450.784)">
    <circle id="web-round-2" data-name="web-round" cx="19" cy="19" r="19" transform="translate(817.369 1450.784)" fill="#fff"/>
    <g id="グループ_15538" data-name="グループ 15538" transform="translate(826.2 1461.822)">
      <g id="グループ_15537" data-name="グループ 15537" transform="translate(-0.051 -0.539)" clip-path="url(#clip-path)">
        <path id="パス_32051" data-name="パス 32051" d="M18.351,0H1.668A1.669,1.669,0,0,0,0,1.668V12.79a1.669,1.669,0,0,0,1.668,1.668H8.342l-.556,1.668h-2.5a.834.834,0,1,0,0,1.668h9.454a.834.834,0,0,0,0-1.668h-2.5l-.556-1.668h6.673A1.669,1.669,0,0,0,20.02,12.79V1.668A1.669,1.669,0,0,0,18.351,0M17.8,10.01H2.224V2.224H17.8Z" transform="translate(0.076 0.395)" fill="#802"/>
      </g>
    </g>
  </g>
</svg>
