<svg xmlns="http://www.w3.org/2000/svg" xmlns:xlink="http://www.w3.org/1999/xlink" width="28.339" height="28.339" viewBox="0 0 28.339 28.339">
  <defs>
    <clipPath id="clip-path">
      <rect id="長方形_5951" data-name="長方形 5951" width="14.915" height="14.169" transform="translate(0 0)" fill="#802"/>
    </clipPath>
  </defs>
  <g id="web" transform="translate(-34.131 -533.704)">
    <circle id="楕円形_298" data-name="楕円形 298" cx="14.169" cy="14.169" r="14.169" transform="translate(34.131 533.704)" fill="#fff"/>
    <g id="グループ_15564" data-name="グループ 15564" transform="translate(40.941 541.161)" clip-path="url(#clip-path)">
      <path id="パス_32084" data-name="パス 32084" d="M13.686,0H1.244A1.244,1.244,0,0,0,0,1.244V9.538a1.244,1.244,0,0,0,1.244,1.244H6.221l-.415,1.244H3.94a.622.622,0,0,0,0,1.244h7.05a.622.622,0,0,0,0-1.244H9.124l-.415-1.244h4.977A1.244,1.244,0,0,0,14.93,9.538V1.244A1.244,1.244,0,0,0,13.686,0m-.415,7.465H1.659V1.659H13.271Z" transform="translate(-0.206 0.666)" fill="#802"/>
    </g>
  </g>
</svg>
