<svg id="hero-icon" xmlns="http://www.w3.org/2000/svg" xmlns:xlink="http://www.w3.org/1999/xlink" width="44.419" height="37.768" viewBox="0 0 44.419 37.768">
  <defs>
    <clipPath id="clip-path">
      <rect id="長方形_5909" data-name="長方形 5909" width="44.419" height="37.768" fill="none" stroke="#3c4a6e" stroke-width="2"/>
    </clipPath>
  </defs>
  <g id="グループ_15541" data-name="グループ 15541" clip-path="url(#clip-path)">
    <path id="パス_32052" data-name="パス 32052" d="M111.7,123.556v-3.279a1.291,1.291,0,0,1,1.288-1.287h4.151v-4.151a1.291,1.291,0,0,1,1.288-1.287H121.7a1.291,1.291,0,0,1,1.288,1.287v4.151h4.151a1.291,1.291,0,0,1,1.287,1.287v3.279a1.291,1.291,0,0,1-1.287,1.287h-4.151V129a1.291,1.291,0,0,1-1.288,1.288h-3.279A1.291,1.291,0,0,1,117.135,129v-4.151h-4.151A1.291,1.291,0,0,1,111.7,123.556Z" transform="translate(-97.852 -99.477)" fill="none" stroke="#3c4a6e" stroke-linecap="round" stroke-linejoin="round" stroke-width="2"/>
    <path id="パス_32053" data-name="パス 32053" d="M49.626,16.146l-.662,4.486a1.482,1.482,0,0,1-1.445,1.262H47.5a1.433,1.433,0,0,1-.187-.016l-7.7-1.137a1.482,1.482,0,0,1-1.246-1.678c.628-4.254,1.932-4.894-3.649-5.953a45.25,45.25,0,0,0-6.334-.666h-.071a45.251,45.251,0,0,0-6.334.666c-5.581,1.059-4.277,1.7-3.649,5.953a1.483,1.483,0,0,1-1.246,1.678l-7.7,1.137a1.431,1.431,0,0,1-.187.016H9.165A1.483,1.483,0,0,1,7.72,20.632l-.662-4.486A5.986,5.986,0,0,1,7,15.539C7.093,10.518,17.715,7.362,28.342,7c10.626.363,21.249,3.519,21.342,8.54A5.952,5.952,0,0,1,49.626,16.146Z" transform="translate(-6.132 -6.132)" fill="none" stroke="#3c4a6e" stroke-linecap="round" stroke-linejoin="round" stroke-width="2"/>
    <path id="パス_32054" data-name="パス 32054" d="M74.4,147.862c1.357,4.159,3.058,9.356,3.058,10.633v3.278c0,2.563-1.824,4.662-4.052,4.662H47.973c-2.227,0-4.052-2.1-4.052-4.662v-3.278c0-1.282,1.779-6.477,3.213-10.635" transform="translate(-38.477 -129.533)" fill="none" stroke="#3c4a6e" stroke-linecap="round" stroke-linejoin="round" stroke-width="2"/>
  </g>
</svg>
