<svg xmlns="http://www.w3.org/2000/svg" width="39.652" height="39.106" viewBox="0 0 39.652 39.106">
  <g id="hero-icon" transform="translate(0.008 0.009)">
    <g id="グループ_15513" data-name="グループ 15513">
      <path id="パス_31947" data-name="パス 31947" d="M26.076,7a5.452,5.452,0,1,1-5.452,5.452A5.452,5.452,0,0,1,26.076,7Zm0,2.82v5.265m-2.632-2.632h5.265M31.619,15h4.637V44.6H15.9V15h4.637m-5,29.6H7V22.552h8.682M36.622,44.6h8.53V22.552H36.47M20.567,44.6V38.153H31.585V44.6M9.938,37.274h2.806V39.73H9.938Zm0-5.226h2.806V34.5H9.938Zm0-5.226h2.806v2.456H9.938Zm29.47,10.451h2.806V39.73H39.408Zm0-5.226h2.806V34.5H39.408Zm0-5.226h2.806v2.456H39.408ZM20.621,21.429H31.531v2.456H20.621Zm0,5.394H31.531v2.456H20.621Zm0,5.226H31.531V34.5H20.621Zm5.455,6.708v5.265" transform="translate(-6.258 -6.258)" fill="none" stroke="#3c4a6e" stroke-linecap="round" stroke-linejoin="round" stroke-width="1.5"/>
    </g>
  </g>
</svg>
