<svg id="hero-icon" xmlns="http://www.w3.org/2000/svg" xmlns:xlink="http://www.w3.org/1999/xlink" width="46.553" height="34.49" viewBox="0 0 46.553 34.49">
  <defs>
    <clipPath id="clip-path">
      <rect id="長方形_5724" data-name="長方形 5724" width="46.553" height="34.49" fill="none" stroke="#3c4a6e" stroke-width="2"/>
    </clipPath>
  </defs>
  <g id="グループ_15473" data-name="グループ 15473" clip-path="url(#clip-path)">
    <path id="パス_31863" data-name="パス 31863" d="M15.9,37.693a4.329,4.329,0,0,1-2.838,2.072,3.611,3.611,0,0,1-3.895-3.3c-.567-5.6-1.623-10.021-2.09-14.636A14.06,14.06,0,0,1,7,20.34v0H7A12.981,12.981,0,0,1,18.62,7.132c6.885-.7,13.873,1.266,14.622,8.661s1.094,13.135-2.812,13.981C22.375,31.52,18.663,34.092,15.9,37.693Z" transform="translate(-6.146 -6.146)" fill="none" stroke="#3c4a6e" stroke-linecap="round" stroke-linejoin="round" stroke-width="2"/>
    <path id="パス_31864" data-name="パス 31864" d="M220.182,29.765c-.025-.213-.052-.428-.08-.642a3.677,3.677,0,0,1,.758-2.782,3.189,3.189,0,0,1,2.094-1.2c9.095-1.12,9.632-.381,12.743.085,4.307.645,3.717,4.192,1.613,5.065-4.544,1.884-4.76,11.18-13.925,12.423A2.446,2.446,0,0,1,220.7,40.52" transform="translate(-193.224 -21.557)" fill="none" stroke="#3c4a6e" stroke-linecap="round" stroke-linejoin="round" stroke-width="2"/>
  </g>
</svg>
