<svg xmlns="http://www.w3.org/2000/svg" width="38.619" height="42.295" viewBox="0 0 38.619 42.295">
  <g id="colo-icon" transform="translate(0.536 0.58)">
    <g id="グループ_15554" data-name="グループ 15554">
      <path id="パス_32074" data-name="パス 32074" d="M97.564,5v5.55a4.954,4.954,0,0,0,4.743,5.14" transform="translate(-88.518 -4.58)" fill="none" stroke="#3c4a6e" stroke-linecap="round" stroke-linejoin="round" stroke-width="2"/>
      <path id="パス_32075" data-name="パス 32075" d="M189.375,21.727c3.1,0,6.394-2.72,6.394-6.076s-3.3-6.076-6.394-6.076h-8.462a1.355,1.355,0,0,1-1.3-1.406V5" transform="translate(-162.962 -4.579)" fill="none" stroke="#3c4a6e" stroke-linecap="round" stroke-linejoin="round" stroke-width="2"/>
      <path id="パス_32076" data-name="パス 32076" d="M28.973,132.134H11.395c-3.1,0-6.395,2.72-6.395,6.076H5c0,3.356,3.3,6.076,6.395,6.076h9.587" transform="translate(-4.536 -121.024)" fill="none" stroke="#3c4a6e" stroke-linecap="round" stroke-linejoin="round" stroke-width="2"/>
      <path id="パス_32077" data-name="パス 32077" d="M92.351,276.211l-16.7.038c-3.1,0-6.394,2.72-6.394,6.076h0c0,3.356,3.3,5.791,6.394,5.791h7.01a2.292,2.292,0,0,1,2.2,2.379V293.7" transform="translate(-62.837 -252.987)" fill="none" stroke="#3c4a6e" stroke-linecap="round" stroke-linejoin="round" stroke-width="2"/>
      <path id="パス_32078" data-name="パス 32078" d="M88.327,203.946h22.5c3.1,0,6.394,2.72,6.394,6.076h0c0,3.356-3.3,6.076-6.394,6.076l-16.9-.22" transform="translate(-80.137 -186.798)" fill="none" stroke="#3c4a6e" stroke-linecap="round" stroke-linejoin="round" stroke-width="2"/>
      <path id="パス_32079" data-name="パス 32079" d="M266.89,359.89v-5.721a5.488,5.488,0,0,0-5.255-5.694" transform="translate(-237.376 -319.174)" fill="none" stroke="#3c4a6e" stroke-linecap="round" stroke-linejoin="round" stroke-width="2"/>
      <path id="パス_32080" data-name="パス 32080" d="M273.1,115.5a5.051,5.051,0,0,0-.045,3.125" transform="translate(-247.535 -105.79)" fill="none" stroke="#3c4a6e" stroke-linecap="round" stroke-linejoin="round" stroke-width="2"/>
      <path id="パス_32081" data-name="パス 32081" d="M142.016,335.538a4.378,4.378,0,0,0,.038-2.619" transform="translate(-128.848 -304.926)" fill="none" stroke="#3c4a6e" stroke-linecap="round" stroke-linejoin="round" stroke-width="2"/>
    </g>
  </g>
</svg>
