<svg id="icon" xmlns="http://www.w3.org/2000/svg" xmlns:xlink="http://www.w3.org/1999/xlink" width="41.818" height="41.136" viewBox="0 0 41.818 41.136">
  <defs>
    <clipPath id="clip-path">
      <rect id="長方形_5722" data-name="長方形 5722" width="41.818" height="41.136" fill="none" stroke="#3c4a6e" stroke-width="2"/>
    </clipPath>
  </defs>
  <g id="グループ_15469" data-name="グループ 15469" clip-path="url(#clip-path)">
    <path id="パス_31852" data-name="パス 31852" d="M8.922,67.527c-5.7-8.629,2.3-23.409,10.49-15.717,3.225,1.949,9.441.512,9.514-4.052.048-2.988-1.3-4.267-1.3-7.222,0-5.33,4-9.65,8.93-9.65,7.619,0,10.6,10.249,10.6,16.932,0,10.173-9.216,18.42-17.7,18.42s-9.846-2.933-14.369-8.577c-2.927-.64-3.811,7.032.193,8.494" transform="translate(-6.169 -27.222)" fill="none" stroke="#3c4a6e" stroke-linecap="round" stroke-linejoin="round" stroke-width="2"/>
    <path id="パス_31853" data-name="パス 31853" d="M171.421,7c.89,3.411,2.048,4.981,3.533,5.876" transform="translate(-151.082 -6.169)" fill="none" stroke="#3c4a6e" stroke-linecap="round" stroke-linejoin="round" stroke-width="2"/>
    <path id="パス_31854" data-name="パス 31854" d="M124.938,11.99c1.362,8.026,4.745,9.537,7.085,14.792" transform="translate(-110.114 -10.567)" fill="none" stroke="#3c4a6e" stroke-linecap="round" stroke-linejoin="round" stroke-width="2"/>
  </g>
</svg>
